{"glyphs":{"0":{"ha":681,"x_min":75,"x_max":608,"o":"m 114 122 q 84 187 94 162 q 75 233 75 212 q 79 323 75 282 q 106 397 84 364 l 153 473 q 178 496 160 482 q 217 523 196 510 q 259 544 238 535 q 292 553 279 553 q 310 548 303 549 q 322 547 317 547 q 331 549 328 547 q 337 553 334 551 l 371 553 q 415 547 396 553 q 456 524 434 541 l 499 481 l 525 468 q 544 447 538 459 q 551 421 549 435 q 557 395 554 408 q 568 372 559 382 q 581 357 576 361 q 591 349 587 353 q 599 338 595 345 q 605 319 602 332 q 606 304 605 314 q 607 282 606 294 q 608 259 608 271 q 608 237 608 247 q 605 220 608 231 q 598 197 602 209 q 590 177 594 186 q 586 167 587 168 q 577 146 584 159 q 564 118 571 132 q 550 92 557 104 q 539 75 543 80 q 514 60 523 68 q 498 44 505 52 q 485 29 491 36 q 467 19 478 22 q 448 11 458 14 q 427 5 437 7 q 405 0 416 3 q 384 -6 394 -2 l 350 -6 q 272 3 303 -6 q 216 28 241 12 q 168 68 191 45 q 114 122 145 92 m 131 281 q 138 242 131 267 q 157 192 146 218 q 183 145 169 167 q 212 113 198 123 q 251 93 227 102 q 299 77 274 83 q 348 66 324 70 q 390 62 372 62 q 398 64 395 62 q 404 69 401 66 q 409 75 406 72 q 417 79 412 77 q 433 85 427 83 q 444 90 439 87 q 453 97 449 92 q 464 109 458 101 q 478 126 470 119 q 494 139 486 133 q 508 154 501 146 q 517 174 514 161 q 518 180 517 176 q 519 190 519 185 q 520 198 519 194 q 522 202 521 201 q 526 217 524 211 q 530 230 528 224 q 534 243 532 236 q 535 260 535 250 q 531 300 535 282 q 507 332 527 318 q 504 345 505 341 q 504 352 504 349 q 501 371 504 363 q 493 385 498 378 q 481 399 488 392 q 467 415 475 406 q 439 447 452 437 q 413 461 426 456 q 387 469 401 465 q 355 484 373 473 l 290 484 q 284 482 290 484 q 272 477 279 480 q 258 470 265 473 q 245 463 250 466 q 206 431 226 452 q 169 383 186 409 q 141 330 152 357 q 131 281 131 302 z "},"1":{"ha":511,"x_min":60,"x_max":450,"o":"m 69 24 q 77 46 69 38 q 96 58 84 54 q 122 64 108 62 q 151 68 137 66 q 175 74 164 71 q 191 85 186 78 q 196 98 193 90 q 202 115 199 106 q 207 132 205 123 q 209 144 209 140 l 191 233 q 194 248 191 238 q 198 269 196 258 q 203 288 201 279 q 205 299 205 297 l 191 424 q 194 436 191 431 q 199 450 196 442 q 170 475 184 465 q 138 493 155 486 q 115 499 128 496 q 89 505 101 501 q 68 517 77 509 q 60 538 60 525 q 65 551 60 547 q 77 558 70 556 q 92 562 84 561 q 104 562 99 562 l 176 557 q 190 558 185 557 q 205 562 195 559 q 234 559 220 560 q 262 557 248 557 q 286 558 273 557 q 312 562 298 559 q 329 570 317 567 q 354 576 340 574 q 380 579 367 578 q 401 580 393 580 q 415 579 407 580 q 431 576 423 578 q 444 569 439 574 q 450 556 450 564 q 438 529 450 539 q 412 513 427 519 q 379 503 396 507 q 352 496 363 500 q 343 489 347 494 q 335 477 338 484 q 328 463 331 470 q 321 450 324 456 l 312 323 l 324 227 l 312 209 q 314 201 312 208 q 318 193 317 195 l 318 193 q 315 176 318 184 q 312 159 312 168 q 318 131 312 142 q 328 103 325 119 q 335 102 330 103 q 347 100 340 101 q 361 98 354 99 q 371 96 368 97 q 389 86 376 94 q 415 71 401 79 q 439 53 429 62 q 450 35 450 43 l 450 34 q 443 20 448 26 q 431 6 438 13 l 334 2 q 329 5 334 3 q 324 6 325 6 q 316 7 321 7 q 305 7 311 7 l 275 7 q 208 6 242 7 q 143 0 174 5 l 130 -7 q 93 3 109 -7 q 69 24 77 12 z "},"2":{"ha":650,"x_min":62,"x_max":602,"o":"m 62 8 q 67 22 62 12 q 75 40 71 33 q 85 49 77 44 q 102 58 93 54 q 120 67 111 63 q 133 75 129 72 q 157 91 144 84 q 182 106 170 98 q 208 121 195 113 q 231 140 220 130 q 275 184 252 158 q 317 241 298 211 q 349 303 336 271 q 361 365 361 335 q 354 393 361 379 q 336 417 347 406 q 310 434 325 427 q 279 441 296 441 l 254 432 l 228 432 q 215 431 222 432 q 202 422 208 430 q 184 402 192 415 q 167 378 176 390 q 149 358 159 367 q 123 350 138 350 q 109 351 116 350 q 96 358 101 352 l 96 378 q 99 405 96 396 q 108 419 102 414 q 121 430 113 425 q 136 447 128 435 l 146 458 q 179 497 161 479 q 223 524 196 515 l 275 530 l 308 537 q 346 534 324 537 q 391 526 368 532 q 434 509 414 519 q 467 484 454 499 q 475 471 472 478 q 481 463 479 463 l 503 428 l 503 350 q 493 327 503 337 q 477 307 484 316 q 475 304 476 306 q 473 296 475 302 q 467 281 471 291 q 458 257 464 272 q 456 255 457 256 q 454 254 455 254 q 444 243 447 249 q 438 232 440 238 q 433 221 435 227 q 424 210 430 215 q 410 201 416 204 q 396 196 403 198 q 381 193 389 195 q 368 188 374 192 q 362 184 367 188 q 353 176 358 180 q 343 167 348 171 q 337 162 338 163 q 331 159 336 162 q 319 151 326 155 q 308 142 313 146 q 302 137 302 138 q 292 128 298 134 q 280 115 286 122 q 271 102 275 109 q 267 92 267 95 q 271 88 267 88 l 292 88 q 325 86 310 88 q 353 79 340 85 l 388 79 q 460 84 424 79 q 530 104 497 90 q 536 113 536 108 q 540 122 537 117 q 564 142 549 134 q 592 159 578 151 l 602 124 q 597 101 602 113 q 585 75 592 89 q 581 58 583 71 q 574 33 578 46 q 564 10 570 20 q 546 0 557 0 l 534 -1 q 483 -9 508 -5 q 431 -13 457 -13 q 415 -10 423 -13 q 400 -4 408 -7 q 385 2 393 -1 q 370 5 378 5 q 339 3 356 5 q 310 -2 321 1 q 301 -6 307 -2 q 292 -13 296 -9 l 231 5 q 215 0 222 5 q 197 -6 207 -5 q 173 -8 184 -7 q 150 -11 162 -9 q 126 -12 138 -12 q 98 -13 113 -13 q 74 -9 86 -13 q 62 6 62 -5 l 62 8 z "},"3":{"ha":516,"x_min":32,"x_max":432,"o":"m 32 -229 q 33 -208 32 -216 q 39 -196 35 -200 q 51 -189 43 -191 q 71 -183 58 -186 q 89 -176 78 -180 q 106 -172 100 -172 q 125 -177 116 -172 q 144 -188 135 -182 q 163 -199 153 -194 q 185 -204 174 -204 q 217 -198 201 -204 q 245 -183 232 -193 q 269 -160 258 -173 q 288 -134 280 -147 q 290 -123 289 -131 q 291 -111 291 -115 q 297 -107 294 -109 q 304 -103 301 -105 q 311 -98 308 -101 q 313 -89 313 -95 l 313 -21 q 310 -11 313 -17 q 303 1 307 -5 q 296 12 300 7 q 291 18 292 16 q 268 44 280 33 q 243 65 256 55 q 216 84 230 75 q 188 103 202 93 q 185 107 187 104 q 179 114 182 111 q 174 120 176 117 q 169 122 171 122 q 153 119 161 122 q 137 113 145 116 q 121 106 129 109 q 106 103 113 103 q 90 113 98 103 q 82 130 82 122 q 94 154 82 144 q 120 171 105 164 q 151 183 136 178 q 176 191 167 188 q 179 195 176 192 q 185 202 182 198 q 192 209 189 205 q 197 212 195 212 q 212 223 204 218 q 227 232 220 228 q 241 242 234 237 q 252 256 248 248 l 260 267 q 294 328 279 297 q 310 393 310 359 q 306 399 310 395 q 296 410 302 404 q 283 424 290 416 q 273 437 277 431 q 255 450 267 447 q 231 453 242 453 q 189 440 206 445 q 150 435 172 435 l 119 437 q 104 447 108 437 q 101 465 101 457 q 104 484 101 480 l 122 493 q 145 511 136 500 q 165 532 153 522 q 192 547 178 541 q 222 557 207 553 q 254 564 238 562 q 285 566 270 566 q 310 560 299 566 q 336 547 321 554 q 374 529 359 538 q 398 509 389 521 q 413 482 408 498 q 425 444 419 467 q 429 429 426 436 q 432 414 432 422 q 427 381 432 399 q 414 343 422 362 q 395 307 406 324 q 374 278 385 290 q 363 268 370 271 q 351 262 357 264 q 339 257 345 260 q 328 249 332 254 q 314 228 317 238 q 302 209 311 218 q 289 190 289 204 q 289 187 289 187 q 290 185 290 186 q 306 165 294 176 q 333 143 319 155 q 361 121 348 132 q 381 103 375 111 q 390 70 383 83 q 402 45 396 57 q 414 19 409 33 q 419 -18 419 5 q 418 -39 419 -25 q 414 -69 416 -54 q 409 -98 412 -85 q 402 -117 406 -112 l 385 -140 q 377 -151 380 -144 q 372 -165 374 -158 q 366 -178 369 -172 q 357 -190 362 -185 q 308 -231 339 -209 q 241 -273 277 -254 q 169 -304 205 -292 q 106 -317 133 -317 q 87 -308 95 -317 q 71 -290 79 -299 q 55 -279 62 -284 q 42 -267 47 -273 q 35 -251 37 -260 q 32 -229 32 -242 z "},"4":{"ha":677,"x_min":27,"x_max":669,"o":"m 297 -210 l 310 -174 l 305 -132 q 308 -105 305 -117 q 315 -80 311 -94 q 320 -52 318 -66 q 323 -24 323 -39 q 316 -11 323 -18 q 305 -1 309 -4 l 228 2 q 205 1 218 2 q 178 -2 193 1 q 150 -7 163 -5 q 123 -9 137 -9 l 98 -3 q 93 -5 96 -3 q 81 -9 89 -7 q 72 -7 75 -9 q 66 -3 69 -5 q 60 1 64 -1 q 47 3 56 3 q 35 2 38 3 q 28 20 30 13 q 27 39 27 28 q 28 60 27 53 q 35 77 30 68 q 92 163 65 120 q 146 251 119 206 l 161 277 q 168 283 164 281 q 176 287 172 285 q 184 290 180 288 q 193 298 189 292 q 195 308 194 301 q 196 317 196 314 q 201 322 197 318 q 210 330 205 326 q 218 339 214 334 q 222 345 222 343 l 231 370 l 244 381 q 250 392 245 384 q 259 408 254 399 q 269 424 264 416 q 276 435 273 432 q 277 443 276 437 q 279 448 278 448 l 316 486 q 317 491 316 489 q 319 496 318 494 q 320 500 319 497 q 322 507 321 503 q 325 514 323 511 q 326 517 326 517 l 348 540 q 362 559 357 551 q 374 574 368 568 q 389 584 380 581 q 413 587 397 587 q 431 570 425 587 q 442 533 438 554 q 447 492 446 512 q 448 463 448 471 l 446 431 q 436 412 437 420 q 435 392 435 404 q 438 374 435 380 q 441 358 441 368 l 435 310 l 435 298 l 441 277 l 432 155 q 434 136 432 145 q 450 124 436 126 q 472 122 461 123 q 495 122 484 122 q 519 122 507 122 q 543 124 531 123 q 565 135 554 134 q 589 136 575 136 q 609 132 596 136 q 636 120 623 127 q 659 104 649 113 q 669 85 669 95 q 666 52 669 68 q 653 23 662 36 q 631 3 645 11 q 599 -5 618 -5 q 585 -3 591 -5 q 571 1 578 -1 q 555 4 564 3 q 535 6 546 6 q 519 4 528 5 q 503 3 511 3 q 477 2 490 3 q 454 -4 465 1 q 438 -19 444 -9 q 432 -45 432 -28 q 431 -52 431 -47 q 431 -62 431 -57 l 431 -117 q 431 -129 431 -123 q 432 -137 431 -134 q 427 -157 427 -146 q 432 -170 427 -166 q 439 -184 436 -174 q 443 -231 443 -209 q 439 -277 443 -256 q 432 -291 439 -283 q 417 -307 426 -299 q 400 -319 409 -314 q 389 -325 392 -325 q 376 -318 382 -325 q 363 -311 370 -312 q 331 -301 340 -306 q 317 -288 321 -296 q 312 -268 313 -279 q 305 -236 311 -256 l 297 -210 m 157 129 q 163 116 157 121 q 178 109 169 111 q 197 107 186 107 q 217 106 208 106 q 246 109 225 106 q 289 115 267 111 q 327 126 311 119 q 344 142 344 132 q 343 163 344 150 q 340 190 342 177 q 338 214 339 203 q 337 225 337 224 l 331 237 q 330 249 330 242 q 330 265 330 256 q 328 291 330 277 q 321 314 326 304 q 309 332 317 325 q 288 339 300 339 q 264 329 276 339 q 243 306 253 319 q 224 277 233 292 q 210 254 216 263 l 165 164 q 158 146 159 152 q 157 129 157 140 z "},"5":{"ha":505,"x_min":66,"x_max":466,"o":"m 66 -254 q 77 -218 66 -237 q 106 -191 87 -199 q 158 -140 134 -165 q 197 -88 182 -115 q 202 -63 202 -79 q 203 -51 202 -57 q 205 -41 205 -45 l 218 -7 q 219 1 218 -1 q 220 7 220 3 q 221 13 220 10 q 225 18 223 15 q 230 25 228 20 q 231 37 231 29 l 228 66 l 235 102 q 229 118 235 107 q 214 141 223 129 q 196 165 205 153 q 181 184 187 177 q 179 187 180 185 q 176 190 178 189 l 175 193 q 161 205 172 197 q 140 221 151 213 q 120 238 130 230 q 110 251 111 245 l 106 272 q 96 289 100 281 q 90 302 92 296 q 85 316 87 309 q 83 336 83 324 q 84 352 83 345 q 85 365 84 359 q 89 379 87 372 q 96 397 92 387 q 93 406 94 401 q 92 413 92 410 q 96 440 92 429 q 104 460 99 451 q 116 479 109 470 q 128 498 122 488 l 128 516 l 149 538 q 168 561 160 552 q 185 576 176 570 q 206 583 194 581 q 236 585 218 585 q 267 583 251 585 q 299 576 283 580 q 331 570 315 572 q 361 567 347 567 q 393 575 378 567 q 420 594 408 584 q 442 613 432 605 q 459 622 452 622 q 463 619 462 622 q 465 612 465 616 q 466 604 466 608 q 466 597 466 600 l 466 596 q 458 564 462 578 q 452 542 455 552 q 448 530 450 532 q 445 523 448 527 q 440 516 441 519 l 427 503 q 422 487 424 496 q 417 469 420 477 q 409 453 414 460 q 392 447 403 447 q 343 451 366 447 q 299 461 321 456 q 255 472 277 467 q 210 476 233 476 l 179 476 q 162 460 168 473 q 157 435 157 447 q 172 413 157 431 q 208 374 188 395 l 233 350 q 255 322 244 336 q 271 298 266 307 q 289 270 277 283 q 311 241 300 257 l 322 215 q 337 200 335 204 q 340 193 340 197 q 341 172 340 182 q 350 159 342 163 l 350 130 l 345 64 l 350 47 q 349 33 350 41 q 347 16 349 25 q 344 -1 346 7 q 340 -15 342 -9 l 326 -32 q 321 -45 322 -37 q 318 -61 319 -53 q 316 -78 317 -70 q 311 -94 314 -87 q 292 -125 304 -105 q 262 -167 279 -144 q 225 -213 245 -189 q 187 -255 206 -236 q 150 -285 168 -273 q 117 -297 132 -297 q 100 -294 109 -297 q 83 -286 91 -291 q 71 -272 76 -280 q 66 -254 66 -264 z "},"6":{"ha":585,"x_min":68,"x_max":606,"o":"m 68 229 q 75 282 68 255 q 85 334 81 310 q 90 346 89 338 q 102 372 97 358 q 111 400 106 386 q 122 429 116 414 q 138 458 128 444 q 156 483 146 473 q 172 501 165 494 q 191 518 183 510 q 205 536 199 527 q 218 555 212 545 q 233 577 224 566 l 265 606 l 273 624 q 281 629 274 625 q 297 640 288 634 q 317 652 307 646 q 337 663 328 659 q 348 668 345 666 q 352 671 351 670 q 357 672 353 671 q 364 675 360 673 q 372 677 368 676 q 378 680 376 679 q 389 693 385 687 q 398 704 394 699 q 408 714 403 709 q 421 725 413 720 q 452 738 435 731 q 484 753 469 745 q 497 766 492 760 q 509 777 503 772 q 522 784 515 781 q 540 786 529 786 q 559 785 548 786 q 581 782 571 785 q 598 772 591 779 q 606 753 606 765 q 603 739 606 744 q 594 729 600 733 q 583 723 589 726 q 569 717 576 720 q 556 697 562 708 q 540 680 551 686 q 530 677 537 680 q 516 669 522 674 l 496 659 q 478 643 485 652 q 461 624 472 633 q 441 608 453 616 q 418 591 429 600 q 400 571 408 582 q 392 547 392 559 q 373 537 383 541 q 353 529 363 533 q 333 519 342 525 q 316 501 323 513 q 315 492 316 500 q 312 484 313 484 l 305 475 q 316 470 305 473 q 342 464 328 467 q 372 456 357 460 q 392 450 386 453 q 418 434 406 441 q 439 419 429 427 q 458 401 449 411 q 479 379 468 392 q 489 361 483 376 q 501 329 495 346 q 511 297 507 312 q 515 278 515 282 q 512 253 514 260 q 511 244 511 245 q 512 231 511 236 q 513 220 513 225 q 512 208 513 212 q 511 201 511 203 q 508 174 511 186 q 496 148 505 162 q 473 108 482 126 q 450 69 463 90 q 446 67 448 68 q 444 64 444 66 q 435 63 442 64 q 425 61 428 62 q 420 56 423 60 q 412 49 416 53 q 405 41 408 45 q 400 35 401 37 q 390 35 397 35 q 375 34 383 35 q 361 32 368 33 q 352 29 354 31 q 339 24 345 28 q 329 17 334 20 q 319 10 324 13 q 305 7 313 7 q 278 9 290 7 q 255 16 267 12 q 233 25 244 20 q 209 35 222 30 q 202 37 208 35 q 190 39 197 38 q 178 42 184 41 q 172 43 173 43 q 155 52 164 45 q 137 68 146 59 q 120 86 128 77 q 108 100 113 95 q 103 111 106 100 q 97 133 100 121 q 90 157 94 146 q 85 172 87 169 q 84 181 85 175 q 80 194 82 187 q 76 205 78 200 q 72 212 74 211 q 69 221 71 220 q 68 229 68 222 m 146 228 l 151 211 q 155 198 152 208 q 162 176 157 189 q 172 148 166 163 q 186 119 178 133 q 208 90 194 103 q 237 69 221 77 q 240 68 238 68 q 245 68 243 68 l 289 68 q 304 72 296 69 q 316 79 311 75 q 323 85 317 80 q 336 98 330 91 q 349 111 343 104 q 355 119 355 117 q 380 146 371 132 q 395 176 390 160 q 402 211 400 192 q 404 251 404 229 q 401 271 404 262 q 396 288 399 279 q 389 304 393 296 q 381 323 385 313 l 381 346 q 365 369 374 363 q 342 381 355 376 q 329 389 336 383 q 312 402 321 395 q 294 415 303 409 q 276 422 285 420 q 260 421 271 422 q 239 417 250 420 q 220 411 229 415 q 209 400 211 406 l 164 313 l 165 302 q 165 287 165 296 q 164 271 165 279 q 163 257 164 263 q 161 249 162 251 q 158 244 161 248 q 154 237 156 241 q 149 231 151 234 q 146 228 146 228 z "},"7":{"ha":643,"x_min":53,"x_max":572,"o":"m 331 -317 l 326 -311 l 331 -289 q 328 -269 328 -281 q 331 -254 328 -262 l 326 -233 q 342 -201 335 -218 q 355 -168 350 -184 l 366 -129 q 379 -98 370 -113 q 391 -68 388 -83 q 400 -27 393 -45 q 413 14 407 -9 q 417 26 416 22 q 418 35 418 30 q 416 41 418 39 q 415 50 415 44 l 418 66 l 419 70 q 421 75 420 75 q 427 80 423 77 q 434 88 430 84 q 440 96 437 92 q 444 101 443 100 l 450 122 q 463 167 456 143 q 484 209 470 191 l 484 227 q 486 259 484 243 q 492 290 489 275 q 499 323 496 306 q 505 360 503 340 q 498 388 505 377 q 480 405 491 399 q 456 412 470 410 q 429 414 443 414 l 379 414 q 324 420 351 417 q 267 422 297 422 l 256 422 l 248 428 l 138 428 q 123 413 130 428 q 109 381 117 399 q 89 349 101 363 q 56 334 77 334 q 53 340 53 334 l 54 357 q 56 380 54 370 q 61 399 58 391 q 65 416 63 408 q 68 432 68 424 q 71 462 70 441 q 75 503 71 482 q 87 539 79 524 q 114 555 96 555 q 125 551 122 553 q 130 546 129 549 q 133 540 132 543 q 138 532 134 536 q 151 529 139 532 q 177 523 163 526 q 204 517 192 519 q 220 515 217 515 q 227 515 224 515 q 233 517 230 516 q 240 519 237 519 q 248 519 243 519 q 276 516 262 519 q 304 511 290 513 q 352 508 329 511 q 398 505 375 505 q 426 509 411 505 q 452 511 438 511 q 463 510 459 511 q 475 501 466 509 l 549 501 q 555 499 551 501 q 563 493 559 496 q 569 486 566 490 q 572 481 572 483 q 569 457 572 469 q 564 436 567 446 q 558 415 561 425 q 556 395 556 405 l 562 350 q 556 315 559 334 q 549 276 553 296 q 537 239 545 257 q 519 209 530 222 l 519 153 q 506 132 511 143 q 492 109 501 120 q 485 98 489 104 q 480 89 480 92 l 488 66 q 485 61 488 64 q 480 53 483 57 q 474 45 477 49 q 469 40 471 41 q 463 21 464 31 q 461 2 463 12 q 457 -15 460 -7 q 444 -28 454 -23 l 444 -40 q 442 -63 444 -50 q 439 -89 441 -76 q 435 -113 437 -101 q 431 -134 433 -125 q 427 -142 431 -138 q 417 -168 420 -155 q 413 -193 414 -180 q 412 -220 412 -206 q 410 -248 412 -233 q 399 -269 407 -260 q 387 -290 391 -279 l 384 -302 q 372 -321 378 -315 q 344 -326 366 -326 q 331 -317 334 -326 z "},"8":{"ha":545,"x_min":77,"x_max":470,"o":"m 326 437 q 346 412 336 422 q 366 393 355 402 q 386 375 376 384 q 408 353 397 366 l 421 332 l 437 318 q 449 292 443 310 q 459 254 454 274 q 467 215 464 233 q 470 188 470 197 q 469 163 470 177 q 466 134 469 149 q 459 105 464 119 q 447 83 455 92 q 408 44 427 61 q 368 17 389 28 q 322 0 347 5 q 266 -6 298 -6 q 176 13 218 -6 q 103 69 134 31 q 87 110 97 90 q 77 153 77 131 q 82 183 77 168 q 94 212 87 198 q 109 240 100 227 q 124 267 117 254 q 133 291 130 279 q 146 313 136 302 q 163 330 153 321 q 182 349 173 339 q 197 369 191 358 q 203 393 203 380 q 195 415 203 404 q 177 437 188 427 q 154 458 166 448 q 131 475 141 468 q 119 497 127 478 q 101 537 111 515 q 84 578 92 559 q 77 604 77 598 q 87 687 77 648 q 118 756 97 726 q 173 804 140 786 q 254 821 207 821 q 317 816 287 821 q 378 797 347 810 q 405 771 392 788 q 429 735 418 755 q 447 694 439 715 q 456 654 454 673 q 448 611 456 636 q 427 561 439 586 q 400 514 414 536 q 373 480 385 492 q 362 471 370 476 q 347 460 355 466 q 332 449 338 455 q 326 437 326 443 m 203 87 q 238 59 217 71 q 281 47 258 47 q 312 55 298 47 q 337 77 326 64 q 354 105 348 90 q 360 136 360 121 q 356 154 360 146 q 352 174 352 163 q 353 179 352 175 q 357 189 353 182 q 361 199 359 193 q 365 208 363 205 q 354 242 365 220 q 329 283 344 263 q 296 318 313 303 q 266 332 279 332 q 223 317 239 332 q 200 281 208 302 q 189 235 192 259 q 182 191 185 210 q 179 181 180 189 q 178 170 178 173 q 182 159 178 168 q 186 148 185 151 q 190 136 187 144 q 195 118 193 128 q 200 100 198 109 q 203 87 203 91 m 182 650 q 189 606 182 633 q 208 552 195 578 q 238 508 220 526 q 275 489 255 489 q 286 490 279 489 q 301 494 294 490 q 301 499 301 495 q 302 508 302 504 q 304 517 303 513 q 304 522 304 521 q 307 527 304 524 q 311 533 309 530 q 317 540 314 537 q 321 545 319 543 q 327 557 322 547 q 333 572 332 567 q 338 582 334 575 q 346 596 342 589 q 352 608 349 603 q 355 615 355 614 q 351 639 355 627 q 344 663 347 651 q 339 690 341 677 q 334 715 337 703 q 325 739 330 728 q 309 759 319 749 q 298 766 304 762 q 286 775 292 771 q 275 782 279 779 q 269 786 270 785 l 253 786 q 213 772 227 786 q 191 738 198 759 q 183 694 184 718 q 182 650 182 670 z "},"9":{"ha":605,"x_min":-17,"x_max":538,"o":"m -17 -151 l -7 -138 q -7 -132 -7 -136 q -5 -122 -6 -127 q -4 -113 -5 -117 q -4 -108 -4 -109 q 2 -97 -1 -100 q 9 -92 5 -94 q 16 -87 12 -90 q 25 -79 20 -84 q 30 -71 28 -75 q 31 -63 31 -66 q 34 -56 32 -59 q 39 -50 35 -52 q 71 -31 58 -43 q 102 -8 84 -19 l 184 29 q 209 53 192 40 q 244 81 227 66 q 275 110 262 95 q 289 138 289 124 q 273 144 289 140 q 238 155 258 149 q 199 168 218 161 q 174 180 180 174 q 123 225 144 204 q 90 270 102 246 q 71 323 77 294 q 65 394 65 353 q 74 441 65 418 q 98 487 83 465 q 131 526 113 508 q 168 558 149 545 q 182 568 175 564 q 198 575 190 572 q 213 583 205 578 q 227 593 220 587 q 258 598 243 597 q 292 600 274 600 q 320 598 306 600 q 350 593 335 597 q 356 590 353 593 q 362 585 359 587 l 402 577 q 429 565 415 573 q 454 547 442 557 q 476 525 467 537 q 491 498 486 512 q 492 485 491 494 q 494 475 493 476 l 511 458 q 524 433 518 448 q 532 402 529 418 q 536 371 535 386 q 538 346 538 356 q 535 331 538 342 q 531 308 533 320 q 526 286 528 296 q 524 275 524 276 l 515 267 l 515 244 q 513 241 515 243 q 507 236 510 239 q 501 230 504 233 q 498 228 498 228 l 498 209 q 495 202 498 205 q 488 195 492 199 q 481 189 484 192 q 476 184 477 186 q 475 175 476 183 q 472 165 473 167 q 459 153 467 158 q 444 142 452 147 q 428 132 436 137 q 415 119 420 126 q 354 49 387 80 q 289 -13 321 18 q 282 -21 288 -14 q 274 -28 277 -27 q 267 -31 273 -28 q 258 -35 261 -33 q 226 -52 242 -41 q 195 -74 210 -62 l 180 -89 l 152 -95 l 137 -111 q 113 -128 127 -119 q 84 -145 99 -137 q 54 -159 69 -153 q 25 -164 38 -164 l -14 -157 l -17 -151 m 189 304 l 189 291 q 194 282 190 289 q 203 267 198 275 q 212 253 208 260 q 220 244 217 246 q 241 220 229 227 q 267 208 253 213 l 293 195 q 300 189 298 193 q 304 179 303 184 q 308 169 306 174 q 314 162 310 164 q 339 176 328 168 q 358 194 349 184 q 375 215 367 203 q 393 241 383 227 q 398 267 394 254 q 405 292 401 279 q 412 318 409 305 q 415 345 415 332 q 415 358 415 354 q 414 365 415 361 q 412 374 412 370 q 411 386 411 378 l 415 413 q 393 467 401 443 q 374 507 385 490 q 343 532 362 524 q 289 541 324 541 l 267 541 q 261 525 267 533 q 248 510 256 517 q 232 496 240 503 q 220 484 224 489 q 207 464 212 475 q 196 440 201 452 q 188 416 191 428 q 180 393 184 404 q 182 360 180 376 q 187 330 184 345 q 189 323 189 327 q 189 315 189 319 l 189 304 z "}," ":{"ha":298,"x_min":0,"x_max":0,"o":""},"!":{"ha":378,"x_min":114,"x_max":259,"o":"m 127 66 q 132 104 127 85 q 153 136 137 123 q 159 136 155 136 q 168 137 163 136 q 177 137 173 137 q 183 137 181 137 q 211 134 197 137 q 236 124 225 132 q 253 106 246 117 q 259 77 259 94 q 243 23 259 41 q 188 5 227 5 l 175 5 q 158 6 167 5 q 146 13 150 7 q 142 20 145 15 q 136 32 139 26 q 130 44 133 38 q 127 52 127 50 l 127 66 m 134 338 l 134 352 q 134 378 134 359 q 136 417 135 397 q 138 456 137 438 q 140 482 139 475 q 145 487 144 484 q 146 494 146 490 l 146 500 q 144 518 146 509 q 137 537 141 528 q 131 555 134 546 q 127 574 127 564 l 127 659 q 126 663 127 660 q 124 669 125 666 q 122 675 123 672 q 121 678 121 677 q 119 688 120 682 q 116 701 117 694 q 115 712 115 707 q 114 718 114 717 l 114 773 l 114 828 q 120 841 116 834 q 130 854 124 848 q 141 865 135 861 q 153 869 147 869 q 158 868 154 869 q 166 865 162 867 q 175 863 171 864 q 181 861 180 861 q 186 864 182 861 q 193 869 191 867 l 198 869 l 205 869 q 219 859 212 865 q 235 846 227 853 q 248 832 242 840 q 257 815 254 824 q 258 807 258 813 q 259 795 258 802 q 259 782 259 788 q 259 773 259 776 q 259 762 259 769 q 259 749 259 755 q 258 737 258 742 q 257 731 258 732 q 255 715 257 728 q 251 689 254 703 q 247 661 249 674 q 244 645 245 648 q 245 627 244 642 q 245 598 245 612 q 244 581 245 583 q 243 574 244 578 q 242 564 243 569 q 241 554 241 559 q 239 548 240 550 l 239 307 q 238 291 239 301 q 236 271 237 281 q 233 252 235 260 q 231 241 232 243 q 221 223 229 231 q 202 215 212 215 l 198 215 q 149 266 164 238 q 134 338 134 294 z "},"\"":{"ha":690,"x_min":36,"x_max":648,"o":"m 75 511 q 80 533 75 522 q 92 553 85 543 q 106 573 99 563 q 119 593 114 583 q 122 599 120 594 q 127 610 125 604 q 133 621 130 616 q 137 628 136 627 q 156 649 144 638 q 179 670 168 659 q 200 693 191 681 q 209 720 209 706 q 209 738 209 726 q 211 754 210 749 q 214 772 212 766 q 216 793 216 779 q 211 805 216 799 q 198 817 205 812 q 183 827 191 823 q 170 834 176 831 q 169 835 169 834 l 169 836 q 157 834 164 835 q 143 831 150 833 q 130 829 136 830 q 121 828 123 828 q 91 836 106 828 q 63 857 75 844 q 43 884 51 869 q 36 913 36 899 q 42 944 36 927 q 59 975 48 960 q 84 998 70 989 q 115 1008 98 1008 q 132 1012 123 1010 q 149 1014 140 1014 q 167 1012 158 1014 q 185 1008 176 1010 q 189 1005 186 1008 q 193 1002 192 1003 q 249 974 222 991 q 296 931 276 956 q 327 878 315 907 q 339 813 339 848 q 331 729 339 767 q 304 657 322 690 q 260 593 287 623 q 197 535 233 564 q 177 519 186 527 q 159 506 168 511 q 137 496 149 500 q 110 493 125 493 q 100 493 106 493 q 89 495 94 494 q 79 501 83 497 q 75 511 75 505 m 370 511 q 375 531 370 521 q 388 551 380 542 q 405 569 396 561 q 422 585 414 578 q 470 658 448 624 q 513 728 492 692 q 516 735 515 730 q 519 743 517 741 q 518 788 519 770 q 513 817 517 806 q 502 833 509 828 q 483 838 495 838 q 464 832 474 834 q 444 831 454 831 q 396 838 418 831 q 378 849 388 840 q 359 868 368 857 q 345 890 351 879 q 339 910 339 901 q 348 953 339 933 q 372 987 357 972 q 408 1010 387 1002 q 452 1019 429 1019 q 483 1014 464 1019 q 523 1001 503 1009 q 559 984 543 994 q 584 966 576 975 q 588 958 586 962 q 591 953 591 954 l 597 937 q 604 930 599 935 q 614 919 608 925 q 624 907 619 913 q 631 897 629 901 q 641 868 633 882 q 648 838 648 853 q 648 824 648 830 q 645 810 647 818 q 640 792 642 800 q 639 776 639 785 q 640 767 639 771 q 642 759 640 764 q 644 750 643 753 q 645 743 645 746 q 642 720 645 730 q 635 700 640 709 q 625 682 630 691 q 613 663 619 673 q 593 625 601 643 q 570 585 585 608 q 534 550 555 566 q 491 520 514 533 q 443 501 468 508 q 395 494 418 494 l 378 494 q 373 500 376 496 q 370 511 370 505 z "},"#":{"ha":1115,"x_min":51,"x_max":1073,"o":"m 520 111 q 524 131 520 121 q 533 148 528 140 q 543 166 538 157 q 549 185 547 175 q 550 202 549 196 q 553 212 551 208 q 556 219 554 216 q 559 227 557 222 q 563 234 561 229 q 568 245 566 238 q 570 255 569 252 q 572 262 570 259 q 576 270 573 266 q 586 283 579 275 q 585 291 585 288 q 585 298 585 294 q 585 307 585 302 q 586 319 585 312 q 588 326 586 322 q 591 332 591 329 l 589 332 q 588 333 589 332 q 585 333 587 333 q 553 331 575 333 q 497 323 530 328 l 433 332 q 416 326 416 332 l 372 326 q 363 309 372 314 q 357 303 360 307 q 351 299 354 299 q 351 290 351 294 q 351 283 351 286 q 349 262 351 269 q 342 254 347 256 q 341 217 342 232 q 337 193 340 201 q 329 185 336 191 q 319 178 321 180 q 312 163 313 170 q 311 148 311 157 q 311 136 311 138 q 306 123 309 127 q 300 117 302 119 q 295 111 297 114 q 290 98 292 107 l 254 85 q 244 92 250 85 q 232 106 238 98 q 222 122 226 115 q 218 130 218 129 q 220 150 218 141 q 227 166 223 158 q 234 182 231 174 q 240 201 238 191 q 242 211 241 203 q 246 222 243 218 q 252 240 247 231 q 260 260 257 248 q 260 266 260 262 q 261 276 260 271 q 262 285 262 281 q 263 291 263 290 q 273 301 264 294 q 282 313 281 309 q 282 320 282 316 q 279 325 281 325 q 257 316 267 319 q 246 313 247 313 q 240 315 243 315 q 235 315 238 315 q 222 313 228 315 q 211 309 216 311 q 200 306 205 307 q 187 304 194 304 l 142 310 q 124 306 129 307 q 117 305 120 305 q 97 307 108 305 q 75 312 85 308 q 58 322 65 315 q 51 340 51 329 q 54 354 51 346 q 63 370 58 362 q 74 384 68 378 q 84 393 79 391 q 139 400 117 398 q 181 401 161 401 q 211 401 197 401 q 241 400 226 401 q 263 394 258 395 q 271 393 269 393 q 314 417 301 402 q 332 451 327 432 q 340 493 337 471 q 355 540 343 515 q 360 548 357 545 q 367 552 364 550 q 373 558 370 555 q 375 568 375 561 q 374 570 374 568 q 374 572 374 571 q 367 573 369 572 q 362 574 364 573 q 356 576 359 575 q 347 578 353 577 q 339 576 342 577 q 330 576 336 576 l 304 581 q 292 578 298 581 q 280 571 286 575 q 268 565 274 568 q 254 562 261 562 l 212 572 q 194 567 198 569 q 186 566 189 566 q 166 567 177 566 q 145 573 155 569 q 128 584 135 577 q 121 603 121 591 q 124 616 121 608 q 132 632 127 624 q 142 647 136 640 q 153 656 148 653 l 172 656 l 311 663 l 337 654 q 357 660 347 654 q 380 667 368 665 q 390 665 383 667 q 398 663 397 663 q 400 664 399 663 q 402 667 402 666 q 430 726 418 693 q 448 789 441 758 l 448 806 q 451 813 448 809 q 456 821 454 818 q 464 831 462 827 q 467 844 467 836 q 472 872 467 859 q 486 897 477 885 q 507 918 495 908 q 531 935 518 928 q 547 929 541 935 q 557 915 553 923 q 562 898 561 906 q 564 886 564 890 q 558 873 564 877 q 552 865 552 869 q 556 850 555 859 q 559 838 558 841 q 557 827 559 831 q 552 819 555 823 q 545 813 549 816 q 539 806 542 810 q 536 798 538 804 q 532 782 534 791 q 528 766 530 774 q 526 754 526 758 q 523 726 526 737 q 513 706 519 715 q 503 688 508 696 q 494 667 497 680 l 586 663 l 637 663 q 661 663 648 663 q 685 665 673 663 q 707 670 697 667 q 724 678 718 673 q 729 691 724 679 q 738 718 733 703 q 748 746 743 732 q 751 762 752 759 l 751 783 q 756 790 753 787 q 764 797 760 793 q 772 804 768 800 q 775 813 775 808 q 779 843 775 829 q 788 869 783 857 q 801 893 794 882 q 812 915 807 904 q 821 917 817 916 q 829 918 825 918 q 845 916 838 918 q 851 911 851 913 q 863 893 857 900 q 872 882 869 886 q 870 873 872 879 q 865 861 868 867 q 861 849 863 854 q 859 844 859 844 q 859 830 859 836 q 859 821 859 825 q 858 810 859 814 q 856 804 857 807 q 851 799 854 802 q 844 791 848 796 q 840 783 841 787 q 838 773 839 779 q 835 762 837 768 q 829 746 833 755 l 833 724 q 832 711 833 718 q 829 698 831 705 q 824 686 827 691 q 816 678 821 680 l 862 682 q 875 676 869 682 q 890 671 880 671 q 906 676 897 671 q 925 682 914 682 l 994 678 l 1046 682 q 1064 670 1059 682 q 1073 649 1070 659 q 1033 615 1055 627 q 984 603 1011 603 q 974 603 976 603 q 972 604 972 603 q 946 599 958 602 q 931 595 934 596 q 923 591 928 593 q 911 589 918 589 q 897 595 903 589 q 883 593 886 593 q 876 593 879 593 q 852 593 859 593 q 844 595 846 593 q 822 584 830 587 q 803 581 814 581 q 785 584 791 584 q 777 585 780 585 q 760 563 766 574 q 751 541 754 552 q 747 517 748 529 q 743 490 746 505 q 734 474 741 484 q 721 455 728 465 q 710 438 715 446 q 705 427 705 430 q 708 418 706 422 q 711 412 709 413 q 728 415 718 414 q 751 418 739 417 q 774 419 763 419 q 793 420 785 420 l 820 412 q 836 416 827 412 q 856 420 845 420 l 925 415 l 977 420 q 996 409 989 420 q 1005 389 1002 398 q 915 340 971 340 q 907 342 911 340 q 902 344 903 344 q 893 340 901 344 q 883 337 886 337 q 872 335 878 337 q 861 332 866 334 q 844 328 851 328 q 833 330 838 329 q 825 332 829 331 q 820 332 821 332 q 813 331 817 331 q 806 331 810 331 q 781 331 785 331 q 775 332 776 331 q 754 320 763 321 q 735 318 745 318 l 682 328 q 677 318 677 325 q 676 305 676 311 l 654 254 q 652 245 653 251 q 650 235 650 240 q 649 224 649 229 q 648 217 648 219 q 646 195 648 203 q 640 180 644 187 q 630 166 636 174 q 616 148 625 159 q 613 137 613 140 q 614 126 613 130 q 614 119 614 123 q 614 115 614 117 q 613 111 613 113 q 607 102 612 109 q 599 95 602 96 q 596 85 598 92 q 594 76 594 79 q 577 68 585 71 q 558 66 568 66 q 548 72 554 66 q 535 85 541 77 q 525 100 529 92 q 520 111 520 107 m 503 595 q 473 592 484 595 q 456 582 462 589 q 448 563 450 574 q 444 535 446 552 q 436 508 443 517 q 429 498 429 498 q 428 494 429 497 q 427 486 427 490 q 426 479 426 482 q 425 475 425 475 q 415 463 420 467 q 407 456 410 458 q 400 450 403 454 q 398 439 398 447 q 396 420 396 437 l 396 400 l 511 407 q 528 406 515 407 q 573 400 541 405 q 603 401 589 400 q 629 407 618 401 q 634 421 630 407 q 643 454 638 435 q 653 489 648 472 q 660 513 658 507 q 663 518 662 517 q 666 519 665 519 q 670 520 668 519 q 674 524 672 521 q 686 583 686 548 q 668 598 675 595 q 650 601 660 601 l 566 585 l 503 595 z "},"$":{"ha":769,"x_min":88,"x_max":677,"o":"m 385 -73 q 385 -38 385 -47 q 385 -23 385 -28 q 383 -9 384 -17 q 380 19 382 -2 l 268 24 q 230 33 250 30 q 191 39 210 36 q 152 47 171 42 q 119 61 134 52 q 97 88 105 71 q 88 132 88 104 l 88 149 l 101 278 q 106 287 104 283 q 115 290 108 290 q 136 277 130 290 q 182 206 163 241 q 223 132 201 172 q 245 115 227 124 q 287 99 263 106 q 334 85 310 92 q 374 77 359 79 q 372 121 372 98 l 384 151 q 382 161 384 157 q 378 170 380 165 q 374 180 376 175 q 372 193 372 185 q 376 251 375 225 q 377 302 377 277 q 376 339 377 319 q 373 379 375 359 l 373 425 q 361 437 366 431 q 347 448 356 444 q 339 449 345 448 q 329 452 334 450 q 318 454 323 453 q 311 455 313 455 l 276 492 q 259 502 267 498 q 244 508 251 505 q 231 513 237 510 q 216 524 224 517 q 207 535 210 530 q 201 546 203 541 q 198 557 199 551 q 193 568 196 562 q 187 581 191 573 q 180 593 182 588 q 155 624 164 611 q 140 650 145 637 q 133 678 135 663 q 132 717 132 693 q 138 776 132 745 q 158 836 145 807 q 190 891 171 865 q 233 935 209 917 q 248 945 239 942 q 265 949 256 948 q 283 951 274 951 q 302 954 293 952 q 317 959 310 955 q 330 966 323 962 q 345 974 337 970 q 360 979 352 977 l 357 1058 q 357 1066 357 1061 q 359 1074 357 1070 q 364 1081 361 1078 q 372 1085 367 1084 q 389 1088 382 1087 q 403 1088 396 1088 q 424 1085 416 1088 q 439 1080 431 1082 q 440 1065 439 1076 q 442 1049 442 1055 q 446 1042 444 1049 q 448 1027 447 1035 l 448 1014 l 455 982 l 453 971 q 465 969 459 970 q 475 967 470 968 q 508 956 493 962 q 541 949 522 949 q 565 957 554 949 q 585 973 575 964 q 606 989 595 982 q 631 997 617 997 q 642 994 638 997 q 649 985 646 990 q 652 973 651 979 q 652 962 652 967 l 640 918 l 646 838 l 646 820 q 644 789 646 802 q 638 758 643 777 q 634 752 637 755 q 629 749 631 749 q 625 747 629 747 q 614 756 621 747 q 597 779 606 765 q 576 808 587 792 q 554 840 565 825 q 533 867 543 855 q 516 884 524 880 q 481 900 500 894 q 441 909 461 907 l 437 888 l 448 805 l 442 774 q 447 759 446 764 q 450 750 449 753 q 451 745 451 747 q 451 743 451 744 q 449 728 451 732 q 442 717 448 724 q 451 694 447 711 q 457 657 454 677 q 461 618 460 637 q 463 593 463 600 l 459 568 q 485 556 471 562 q 516 542 498 550 l 595 492 q 598 489 596 491 q 602 486 600 488 q 607 482 605 484 l 618 448 q 624 438 621 444 q 629 429 626 432 q 635 422 631 428 q 645 411 640 417 q 654 398 650 404 q 659 391 659 393 q 664 379 661 387 q 670 363 667 371 q 675 348 673 355 q 677 337 677 340 l 677 237 q 674 228 677 236 q 668 215 671 220 q 664 211 665 214 q 663 208 663 209 q 660 199 662 205 q 654 184 657 192 q 649 169 652 176 q 646 161 647 162 q 638 148 644 155 q 627 135 633 141 q 615 124 621 129 q 607 117 610 119 q 600 100 601 109 q 591 85 600 90 q 554 67 569 77 q 525 48 538 58 q 499 31 512 39 q 469 19 486 23 l 467 9 l 467 19 q 459 18 465 18 q 455 -11 457 7 q 459 -43 455 -28 q 465 -80 464 -58 q 458 -92 458 -81 l 458 -94 q 457 -107 458 -100 q 452 -122 456 -115 q 440 -133 448 -128 q 416 -137 431 -137 q 398 -134 405 -137 q 385 -115 391 -131 l 385 -73 m 363 913 q 333 905 346 911 q 311 891 321 900 q 293 870 301 882 q 278 841 285 857 q 267 818 271 826 q 259 802 262 809 q 255 786 256 794 q 254 762 254 777 q 262 708 254 732 q 287 667 271 685 q 322 636 302 649 q 366 614 342 623 q 372 645 368 627 q 368 657 371 648 q 363 672 364 666 l 372 706 q 368 725 372 714 q 363 747 363 735 l 368 826 l 363 913 m 454 164 q 460 145 456 161 q 468 111 464 129 l 469 111 l 498 117 q 510 132 500 117 q 529 164 519 146 q 555 211 541 184 q 555 218 555 212 q 557 232 556 224 q 558 245 557 239 q 559 254 559 252 l 559 265 q 558 278 559 273 q 556 290 557 284 q 554 302 555 296 q 549 319 552 309 l 548 323 q 534 337 543 330 q 519 351 526 343 q 508 368 511 362 q 501 378 505 374 q 492 386 498 382 q 472 395 486 389 q 467 396 471 395 q 460 399 463 397 q 452 364 456 381 q 448 333 448 347 q 454 292 448 313 q 459 250 459 271 l 455 224 q 455 192 455 203 q 455 176 455 181 q 454 168 454 170 q 454 164 454 166 z "},"%":{"ha":1037,"x_min":88,"x_max":949,"o":"m 167 -124 q 173 -104 169 -113 q 182 -89 177 -96 q 193 -75 187 -82 q 203 -58 198 -68 l 214 -40 q 221 -23 216 -29 q 230 -8 226 -17 l 244 24 q 247 27 244 25 q 254 31 250 29 q 261 35 258 33 q 265 38 264 37 l 271 67 q 278 81 273 75 q 288 92 283 87 q 299 103 294 98 q 307 114 304 108 q 315 123 310 117 q 324 137 319 130 q 332 151 328 144 q 336 160 335 157 q 343 176 336 162 q 359 206 350 190 q 378 235 368 222 q 395 248 388 248 q 428 300 414 270 q 453 355 441 330 l 494 413 q 515 459 507 442 q 528 485 523 476 q 536 496 533 493 q 541 500 539 498 q 561 541 549 518 q 588 587 574 563 q 618 634 603 610 q 647 679 633 658 q 670 716 660 699 q 683 743 680 733 q 698 770 690 758 q 726 782 707 782 q 745 780 735 782 q 762 773 754 779 q 781 758 770 767 l 774 722 q 768 715 772 721 q 762 708 763 709 q 753 682 755 696 q 744 654 751 668 q 733 643 740 646 q 716 633 726 640 q 712 624 713 629 q 709 608 711 620 q 675 555 688 574 q 654 528 662 536 q 644 517 646 519 q 640 516 641 516 q 641 516 640 517 q 642 508 642 515 q 636 491 640 497 q 630 480 633 484 q 624 474 627 477 q 618 469 621 472 q 612 460 616 466 q 605 448 608 454 q 598 434 601 441 q 595 422 595 427 q 585 394 591 405 q 571 376 578 382 q 559 365 565 369 q 553 358 554 361 q 549 351 553 355 q 543 345 545 347 q 534 322 539 332 q 521 304 528 312 q 506 289 514 296 q 488 273 497 281 q 479 259 482 267 q 473 245 476 252 q 468 215 470 224 q 464 202 467 207 q 446 182 451 193 q 439 170 440 172 q 434 165 438 168 q 425 160 430 163 q 416 156 420 158 q 411 154 412 154 q 402 138 406 149 q 394 113 398 126 q 386 88 390 100 q 377 72 382 77 q 372 68 376 70 q 366 63 369 66 q 360 59 362 61 q 358 56 357 57 q 359 48 359 51 q 359 43 359 45 q 358 37 359 39 q 345 13 355 21 q 330 3 335 5 q 322 -18 323 -10 q 312 -28 320 -25 q 311 -37 311 -31 q 307 -50 311 -43 q 303 -67 306 -60 q 297 -80 301 -75 q 288 -91 294 -86 q 273 -100 281 -96 q 266 -107 268 -103 q 262 -117 263 -112 q 260 -127 261 -122 q 257 -138 259 -133 q 248 -148 252 -146 q 241 -152 244 -151 q 235 -157 238 -154 q 230 -170 233 -161 l 190 -174 q 181 -165 186 -173 q 174 -149 177 -158 q 168 -133 170 -140 q 167 -124 166 -125 m 652 67 q 635 106 641 91 q 629 134 629 121 q 631 188 629 163 q 648 233 634 213 l 675 277 q 691 292 680 283 q 714 307 702 300 q 739 320 727 315 q 759 326 751 326 q 770 323 766 323 q 777 322 774 322 q 783 323 781 322 q 786 326 785 324 l 806 326 q 833 322 822 326 q 857 308 844 319 l 884 282 l 899 275 q 910 262 907 269 q 915 247 913 255 q 918 231 916 239 q 925 217 920 223 q 932 208 929 211 q 939 203 936 205 q 943 197 941 201 q 947 186 945 193 q 948 163 947 179 q 949 136 949 148 q 947 126 949 132 q 942 112 945 119 q 938 100 940 105 q 935 94 936 94 q 930 82 934 90 q 922 65 926 74 q 914 50 918 57 q 907 39 909 42 q 892 30 898 35 q 882 20 886 25 q 874 12 878 16 q 864 5 871 7 q 840 -3 853 -1 q 814 -9 827 -5 l 794 -9 q 747 -4 766 -9 q 714 11 728 1 q 685 35 699 20 q 652 67 671 49 m 663 163 q 667 139 663 154 q 679 110 671 125 q 694 81 686 94 q 711 62 703 68 q 734 50 720 55 q 763 40 748 44 q 793 34 779 36 q 818 31 808 31 q 826 36 823 31 q 834 41 829 40 q 844 45 840 44 q 850 48 848 46 q 856 52 853 50 q 862 60 859 54 q 871 70 866 66 q 880 78 876 74 q 889 86 885 81 q 894 98 892 91 q 895 108 895 101 q 897 115 896 115 q 902 132 899 125 q 905 150 905 138 q 902 174 905 163 q 888 193 900 184 q 887 201 887 199 q 886 205 886 203 q 880 225 886 218 q 864 243 873 232 q 847 262 854 256 q 832 270 840 268 q 816 275 824 273 q 797 284 808 277 l 758 284 q 747 280 758 284 q 731 271 737 275 q 707 252 720 265 q 685 224 695 239 q 669 192 675 208 q 663 163 663 176 m 112 460 q 94 499 100 484 q 88 527 88 515 q 91 581 88 556 q 107 626 94 606 l 135 671 q 151 685 140 677 q 174 701 161 693 q 199 713 186 708 q 218 719 211 719 q 230 716 225 717 q 237 715 234 715 q 242 716 240 715 q 245 719 244 718 l 266 719 q 292 715 281 719 q 317 701 303 712 l 343 675 l 358 668 q 370 655 366 663 q 374 640 373 648 q 377 624 376 632 q 385 610 379 616 q 392 602 389 604 q 398 596 395 599 q 403 590 401 594 q 406 579 405 587 q 408 557 407 572 q 408 529 408 541 q 406 519 408 526 q 402 506 404 513 q 397 493 399 498 q 395 488 395 488 q 390 475 393 483 q 382 459 386 467 q 373 443 378 450 q 367 433 369 435 q 352 424 357 429 q 342 414 346 418 q 334 405 338 409 q 323 399 330 401 q 299 390 313 392 q 274 384 286 389 l 254 384 q 207 389 225 384 q 173 404 188 394 q 145 428 159 414 q 112 460 131 442 m 122 556 q 126 533 122 547 q 138 503 131 518 q 154 474 145 488 q 170 455 162 461 q 194 443 180 448 q 223 433 208 437 q 253 427 238 429 q 277 425 267 425 q 286 429 283 425 q 294 435 288 433 q 303 438 300 437 q 310 441 307 439 q 315 445 313 443 q 321 453 318 448 q 330 463 326 459 q 340 471 335 467 q 348 479 345 475 q 353 492 352 484 q 355 501 354 494 q 356 509 355 508 q 361 525 359 519 q 364 543 364 531 q 362 567 364 557 q 348 587 359 578 q 346 594 347 592 q 346 598 346 597 q 339 618 346 612 q 323 636 333 625 q 307 655 314 650 q 291 664 299 661 q 275 668 283 666 q 256 677 267 671 l 218 677 q 207 673 217 677 q 191 665 197 669 q 167 646 179 659 q 145 617 155 633 q 129 585 135 602 q 122 556 122 569 z "},"&":{"ha":1042,"x_min":59,"x_max":993,"o":"m 59 264 q 65 312 59 286 q 81 355 71 338 q 108 390 93 372 q 140 423 123 407 q 174 453 157 439 q 210 477 192 467 q 219 480 216 479 q 225 483 222 481 q 232 487 229 485 q 243 493 236 490 q 266 499 252 496 q 292 507 279 502 q 313 519 304 511 q 322 542 322 528 q 313 552 322 543 q 293 573 304 562 q 272 595 282 585 q 260 609 262 606 q 244 630 256 616 q 221 661 233 645 q 200 691 209 677 q 191 709 191 705 l 194 724 q 196 739 195 727 q 199 759 197 751 q 205 791 200 777 q 219 816 210 804 q 239 838 227 827 q 264 863 250 849 q 291 880 275 874 q 323 889 306 886 q 357 892 340 892 q 389 893 374 893 q 482 871 441 893 q 548 802 522 848 q 550 798 548 801 q 555 791 552 795 q 560 785 557 788 q 562 780 562 781 q 554 721 562 743 q 533 683 547 699 q 502 653 519 667 q 465 618 484 640 q 474 596 465 612 q 495 564 484 581 q 519 533 507 547 q 535 517 530 519 q 545 513 538 515 q 557 508 551 511 q 569 502 564 505 q 578 493 575 498 q 596 462 588 479 q 614 429 604 444 q 638 402 625 413 q 673 392 652 392 q 696 404 688 392 q 708 432 704 416 q 714 465 712 448 q 720 493 716 482 q 729 517 722 505 q 735 542 735 528 q 724 568 735 554 q 698 594 712 581 q 673 620 684 608 q 661 641 661 632 l 661 654 q 708 665 683 661 q 755 670 733 670 q 770 670 761 670 q 790 669 780 670 q 809 668 800 669 q 824 665 819 667 q 829 663 825 665 q 836 657 832 661 q 844 652 840 654 q 848 649 847 649 q 852 648 850 648 q 858 648 854 648 q 872 649 865 648 q 887 651 880 650 q 900 656 892 654 q 913 659 908 659 l 932 654 q 946 647 939 650 q 959 641 954 644 q 968 633 964 638 q 972 618 972 628 q 967 605 972 608 q 956 596 963 602 q 943 591 951 595 q 926 584 935 588 q 909 576 917 580 q 897 572 901 573 q 889 572 894 572 q 879 572 885 572 q 838 556 854 572 q 809 518 821 541 q 789 471 798 495 q 771 431 780 447 q 757 408 765 419 q 741 385 749 397 q 728 359 733 372 q 723 332 723 347 q 728 316 723 324 q 740 299 733 307 q 754 283 747 291 q 766 270 762 276 q 813 213 789 241 q 867 164 836 186 q 898 151 877 157 q 940 136 919 144 q 977 117 961 128 q 993 88 993 105 q 971 40 993 56 q 920 24 949 24 q 900 24 909 24 q 883 25 891 24 q 864 28 874 26 q 840 34 854 31 q 821 53 828 41 q 800 74 813 65 q 787 80 795 78 q 773 85 780 83 q 759 91 766 87 q 750 100 753 94 q 739 122 744 108 q 726 150 733 136 q 710 173 720 163 q 688 183 701 183 q 662 165 677 183 q 628 124 646 148 q 593 78 610 101 q 562 43 576 55 q 516 13 537 25 q 472 -8 494 0 q 427 -23 450 -17 q 374 -37 403 -30 l 337 -43 q 301 -40 317 -43 q 272 -31 286 -37 q 243 -18 258 -26 q 210 -3 229 -11 q 195 -1 200 -1 q 182 2 190 -1 q 168 11 173 9 q 160 14 163 14 q 153 15 157 14 q 142 21 149 16 q 139 24 139 21 q 125 44 133 33 q 111 66 118 55 q 98 88 104 77 q 91 108 93 99 q 90 116 91 109 q 87 132 88 123 q 83 147 84 140 q 81 157 83 154 l 68 180 q 65 190 66 182 q 62 206 63 197 q 60 225 60 215 q 59 244 59 235 l 59 264 m 239 150 q 249 130 244 138 q 261 113 254 121 q 277 100 268 106 q 300 89 286 94 q 307 87 304 88 q 313 87 310 87 q 327 81 319 87 q 346 65 339 71 q 368 60 353 60 q 416 66 393 60 q 461 81 438 72 q 467 83 463 82 q 478 85 472 84 q 489 87 484 86 q 496 89 494 87 l 514 108 q 518 111 515 109 q 527 115 522 113 q 536 120 532 118 q 544 124 541 123 q 568 137 555 130 q 583 157 580 143 l 636 208 q 643 221 641 212 q 644 237 644 231 q 625 256 632 245 q 611 276 617 266 q 599 295 605 286 q 583 312 593 304 q 565 330 573 319 q 548 352 556 341 q 531 373 539 363 q 514 389 523 383 q 477 409 493 396 q 444 435 462 421 q 421 460 429 448 q 405 481 412 471 q 386 500 397 492 q 357 514 376 508 q 337 507 349 514 q 312 487 326 499 q 284 460 298 475 q 256 432 269 446 q 231 406 242 418 q 213 389 220 395 q 199 357 204 374 q 191 323 195 340 q 185 289 188 306 q 176 256 182 271 q 178 239 176 248 q 183 221 180 231 q 189 205 186 212 q 194 193 192 197 l 239 150 m 313 751 q 321 716 313 734 q 342 683 329 698 q 372 657 355 667 q 404 648 388 648 q 412 648 407 648 q 418 654 417 649 q 418 679 418 672 q 417 688 418 685 q 415 701 416 695 q 414 711 414 707 q 415 721 414 718 q 419 728 416 724 q 427 745 427 736 q 424 778 427 761 q 415 810 422 795 q 395 833 408 824 q 361 842 382 842 q 339 831 348 842 q 324 805 330 820 q 315 774 318 790 q 313 751 313 759 z "},"'":{"ha":378,"x_min":55,"x_max":339,"o":"m 55 513 q 61 529 56 521 q 72 544 66 536 q 84 558 78 551 q 94 572 90 566 q 126 619 111 594 q 159 665 141 644 l 180 688 q 188 705 183 690 q 197 736 193 720 q 205 768 202 753 q 209 787 209 783 q 198 822 209 812 q 171 836 187 832 q 135 840 154 839 q 99 846 116 840 q 72 867 83 852 q 61 915 61 882 l 61 921 l 73 937 q 80 951 80 943 q 83 968 80 959 q 96 986 86 978 q 119 1001 106 995 q 145 1011 132 1008 q 170 1015 159 1015 l 186 1011 q 230 992 208 1004 q 270 972 251 980 q 284 957 275 964 q 299 945 294 950 q 313 906 309 926 q 317 867 317 887 q 321 857 317 859 q 332 850 325 855 q 338 833 336 843 q 339 814 339 824 l 339 797 q 333 757 339 774 q 320 720 326 740 q 320 714 320 719 q 319 704 319 709 q 318 694 318 699 q 317 688 317 689 q 299 649 311 666 q 273 616 288 631 q 243 587 259 601 q 214 558 228 573 l 174 519 q 152 505 164 510 q 127 497 140 500 q 99 494 113 494 q 73 493 85 493 q 66 494 68 493 q 61 500 64 495 l 56 505 l 55 513 z "},"(":{"ha":361,"x_min":77,"x_max":387,"o":"m 231 -201 q 224 -173 230 -186 q 211 -146 218 -159 q 195 -121 203 -134 q 183 -96 187 -109 l 165 -42 q 148 -13 159 -27 q 133 13 138 1 l 112 109 q 94 156 98 133 q 90 206 90 179 l 90 223 q 77 269 77 243 q 78 276 77 268 q 81 295 79 285 q 84 315 83 306 q 86 323 85 323 q 84 352 86 336 q 81 382 83 368 q 78 414 79 398 q 77 448 77 430 l 90 475 q 95 532 92 505 q 102 586 98 559 q 112 639 106 612 q 123 696 117 666 q 141 742 129 720 q 165 789 154 764 q 168 800 167 791 q 170 812 170 809 l 183 836 q 193 852 189 846 q 198 861 196 857 q 200 866 199 864 q 201 871 201 867 q 205 881 204 873 q 209 897 205 888 q 215 904 210 901 q 224 911 219 907 q 233 918 229 914 q 239 924 237 921 q 244 934 241 927 q 251 949 248 941 q 256 965 254 958 q 261 974 259 972 q 269 975 262 974 q 278 977 275 976 q 296 989 288 983 q 312 1002 304 996 q 331 1012 321 1008 q 353 1016 340 1016 q 364 1015 358 1016 q 375 1012 370 1015 q 383 1005 380 1009 q 387 994 387 1000 q 374 967 387 979 q 346 945 362 955 q 315 926 330 935 q 292 908 299 917 q 263 865 276 890 q 240 810 251 839 q 221 753 229 782 q 205 703 212 725 q 195 677 200 689 q 186 653 191 665 q 178 629 182 642 q 173 602 175 616 l 173 581 q 173 572 173 577 q 172 561 172 566 q 170 551 171 555 q 170 545 170 546 q 166 538 170 543 q 159 532 162 534 q 155 518 155 525 q 154 500 154 511 l 154 479 q 153 464 154 471 q 148 453 151 457 l 148 400 l 144 374 q 151 342 149 358 q 155 310 153 326 q 158 277 156 294 q 165 244 160 261 q 170 236 167 243 q 173 228 173 229 q 176 178 176 202 q 183 129 176 155 l 221 0 q 228 -13 224 -7 q 237 -23 233 -18 q 245 -34 241 -28 q 248 -50 248 -40 l 288 -140 q 302 -153 296 -144 q 311 -171 307 -161 q 317 -191 314 -181 q 326 -208 321 -200 l 343 -227 q 350 -236 347 -230 q 357 -250 354 -242 q 362 -267 360 -258 q 364 -283 364 -275 q 363 -296 364 -286 q 361 -309 361 -306 q 323 -296 342 -309 q 288 -265 304 -283 q 256 -229 271 -248 q 231 -201 241 -211 z "},")":{"ha":357,"x_min":-21,"x_max":283,"o":"m -21 -288 q -4 -261 -14 -270 q 9 -245 6 -252 q 11 -238 9 -244 q 13 -231 12 -233 l 33 -210 q 37 -191 33 -199 q 43 -178 41 -183 q 61 -157 54 -165 q 72 -145 68 -149 q 77 -138 75 -140 q 79 -136 79 -136 q 102 -88 87 -114 q 131 -36 117 -62 q 156 17 145 -9 q 169 64 167 43 l 169 100 l 189 137 q 203 225 200 180 q 207 315 207 270 q 207 341 207 329 q 206 366 207 354 q 205 390 205 377 q 202 416 204 402 q 196 440 200 429 q 189 463 193 452 q 182 487 185 475 q 180 511 180 498 l 189 548 q 186 559 189 554 q 180 570 184 565 q 174 582 177 576 q 169 595 170 587 q 168 601 169 597 q 167 609 168 605 q 166 618 166 614 q 165 623 165 622 l 165 641 l 151 657 l 151 682 q 140 704 148 696 q 130 723 133 711 l 117 766 q 113 773 115 768 q 107 784 110 778 q 100 796 104 790 q 95 805 97 802 q 87 824 89 814 q 79 846 85 834 q 51 885 67 865 q 21 926 35 905 q -3 969 7 947 q -13 1015 -13 991 q 0 1021 -13 1021 q 25 1015 15 1021 q 44 1001 36 1010 q 59 983 52 993 q 73 962 66 972 q 85 950 79 956 q 99 939 92 945 q 113 927 106 934 q 125 911 120 920 q 136 884 132 900 q 147 857 139 869 l 186 783 q 188 770 186 775 q 192 761 189 765 q 197 752 194 756 q 202 741 199 747 q 228 673 216 707 q 250 606 239 639 q 253 593 252 602 q 255 581 255 584 l 255 547 q 265 517 258 531 q 273 484 272 503 q 280 406 278 446 q 283 330 283 366 q 279 298 283 315 q 275 270 275 281 l 265 167 q 262 160 264 165 q 258 151 260 154 l 258 128 l 237 61 l 237 33 q 219 -14 233 7 q 197 -59 206 -35 q 193 -77 195 -66 q 188 -97 191 -87 q 183 -116 186 -107 q 176 -130 180 -125 l 155 -151 l 151 -168 q 140 -186 149 -174 q 118 -215 131 -199 q 88 -248 104 -231 q 56 -279 72 -265 q 26 -302 40 -293 q 3 -311 12 -311 q -16 -306 -12 -311 q -21 -288 -21 -302 z "},"*":{"ha":685,"x_min":45,"x_max":640,"o":"m 233 509 q 237 536 233 523 q 244 562 240 549 q 251 587 248 574 q 254 614 254 600 l 249 614 q 240 608 248 614 q 221 593 232 602 q 200 576 211 585 q 183 561 190 567 q 176 555 181 561 q 170 548 171 549 q 160 543 167 547 q 145 535 153 539 q 131 527 138 531 q 123 522 125 524 l 116 522 q 105 526 110 522 q 97 535 100 530 q 92 548 94 541 q 90 561 90 555 q 95 584 90 576 q 106 594 99 591 q 123 599 113 597 q 142 606 132 601 q 146 610 143 607 q 153 616 149 613 q 159 623 156 620 q 162 627 161 626 q 172 634 164 629 q 189 647 180 640 q 205 659 197 653 q 216 665 214 664 q 218 671 216 667 q 220 680 220 676 l 220 683 l 220 685 q 219 689 220 687 q 216 692 217 691 q 195 689 203 690 q 178 687 186 688 q 161 685 170 686 q 142 685 153 685 q 117 687 134 685 q 85 695 101 690 q 57 708 68 700 q 45 726 45 715 q 57 743 45 735 q 84 758 68 751 q 114 768 99 764 q 136 772 130 772 q 183 768 159 772 q 231 764 208 764 l 262 764 q 245 788 256 778 q 223 808 235 799 q 198 826 211 817 q 175 844 185 834 q 164 853 172 846 q 149 869 157 861 q 133 884 140 877 q 123 894 126 891 q 117 906 119 900 q 116 918 116 911 l 116 930 l 116 954 q 127 966 121 964 q 142 968 134 968 q 168 962 155 968 q 188 948 180 956 l 313 823 q 319 828 317 823 q 320 838 320 833 l 320 846 q 317 872 320 860 q 313 900 313 884 q 314 943 313 922 q 320 987 315 964 q 326 999 321 992 q 338 1013 331 1006 q 352 1023 345 1019 q 366 1027 360 1027 q 371 1023 368 1025 q 379 1019 375 1020 q 394 1011 387 1015 q 407 1003 401 1007 q 415 992 412 998 q 418 976 418 986 q 413 941 418 958 q 402 906 408 924 q 389 871 395 889 q 379 836 382 854 l 379 810 q 374 801 378 804 q 368 793 371 797 q 361 786 364 790 q 359 777 359 783 q 360 765 359 773 q 368 757 362 757 l 372 757 q 375 768 373 760 q 379 777 377 776 q 397 805 385 788 q 424 842 409 823 q 457 880 439 861 q 492 914 475 899 q 527 939 510 929 q 557 948 544 948 q 572 946 564 948 q 586 941 580 945 q 597 932 593 938 q 601 918 601 926 l 601 915 q 582 870 593 891 q 555 831 570 848 q 548 823 553 828 q 542 815 543 819 q 523 801 538 812 q 492 777 509 790 q 461 753 475 764 q 444 739 447 742 q 437 732 437 733 q 438 729 437 731 q 439 723 439 727 q 466 721 454 723 q 492 718 477 718 q 515 722 506 718 q 537 726 524 726 q 569 726 551 726 q 603 720 587 725 q 630 704 619 715 q 640 675 640 694 q 621 633 640 647 q 574 619 601 619 q 548 625 561 619 q 522 633 536 631 q 487 640 500 638 q 453 642 473 642 q 444 640 450 642 q 437 640 441 640 l 431 627 l 503 555 q 517 529 512 545 q 523 500 523 512 q 520 480 523 490 q 512 462 517 470 q 499 449 507 454 q 479 444 490 444 q 445 456 461 444 q 415 486 429 468 q 390 526 401 505 q 370 565 379 547 q 354 595 361 583 q 342 608 347 608 q 340 607 341 608 q 338 606 339 606 q 335 604 336 606 q 333 601 333 602 l 333 496 q 330 473 332 486 q 323 447 328 459 q 310 426 318 435 q 288 418 301 418 q 257 425 267 418 q 242 444 246 432 q 236 471 237 456 q 233 502 235 486 l 233 509 z "},"+":{"ha":782,"x_min":77,"x_max":703,"o":"m 82 474 q 104 485 90 481 q 138 489 119 489 q 157 488 152 489 q 165 486 161 488 l 267 486 q 307 488 290 486 q 330 496 323 490 q 341 545 341 508 l 328 704 q 331 736 328 722 q 341 759 334 751 q 375 768 352 768 q 405 764 391 768 q 427 752 419 760 l 446 711 q 447 709 446 711 q 449 703 448 708 q 451 689 450 699 q 454 662 452 679 q 443 654 448 660 q 435 640 437 647 q 433 624 433 633 q 435 590 433 608 q 441 557 437 571 q 443 545 442 548 q 443 540 443 543 q 442 518 443 529 q 441 500 441 507 q 441 498 441 498 q 442 498 441 498 q 448 493 446 493 q 496 499 471 493 q 543 505 522 505 q 562 503 553 505 q 577 498 570 500 l 682 498 q 690 496 684 498 q 696 493 695 494 q 703 473 703 486 l 703 421 l 690 408 q 630 386 668 386 q 568 393 600 386 q 511 401 537 400 l 496 395 l 454 392 q 448 374 450 386 q 443 347 445 362 q 440 316 441 332 q 439 284 439 299 q 440 256 439 269 q 444 233 441 244 q 447 222 446 227 q 448 214 448 216 q 446 202 448 211 q 444 191 444 193 l 447 159 q 445 146 447 151 q 441 138 444 141 q 410 132 431 132 q 377 136 393 132 q 356 143 361 140 q 344 179 347 159 q 339 220 340 199 q 336 263 338 241 q 330 307 334 286 l 343 359 q 342 366 343 362 q 338 373 342 370 q 325 382 332 379 q 308 386 317 386 q 285 383 296 386 q 260 380 274 380 q 247 380 251 380 q 240 381 243 380 q 224 386 237 386 l 208 385 q 185 381 197 382 q 163 380 174 380 q 140 381 151 380 q 118 385 130 382 q 100 387 107 385 q 85 399 93 389 q 79 417 81 407 q 77 440 77 427 q 80 467 79 461 q 82 474 82 473 z "},",":{"ha":367,"x_min":57,"x_max":328,"o":"m 64 -320 q 75 -290 64 -309 q 99 -251 85 -271 q 127 -213 113 -231 q 147 -188 141 -196 l 161 -180 q 175 -160 170 -171 q 185 -138 180 -149 q 196 -117 191 -127 q 210 -98 202 -106 q 214 -88 213 -92 q 214 -80 214 -83 l 214 -63 q 203 -24 214 -37 q 174 -6 191 -12 q 136 3 156 0 q 98 11 115 5 q 68 27 80 16 q 57 62 57 39 q 62 94 57 75 q 78 130 68 113 q 102 160 88 147 q 134 172 117 172 q 149 172 140 172 q 168 170 159 171 q 191 169 179 170 q 201 165 195 169 q 215 156 208 161 q 228 147 222 151 q 236 142 234 142 q 260 127 252 132 q 273 119 268 123 q 281 109 277 115 q 290 90 284 103 l 296 82 q 317 50 306 64 q 328 18 328 36 l 328 0 q 326 -18 328 -9 q 323 -38 324 -28 q 322 -58 322 -47 l 322 -75 q 308 -111 311 -93 q 301 -148 305 -130 q 287 -177 297 -164 q 265 -200 277 -189 q 243 -223 254 -212 q 229 -249 233 -235 l 147 -332 q 135 -337 144 -336 q 123 -339 127 -339 l 106 -339 q 92 -339 99 -339 q 78 -337 84 -338 q 68 -331 72 -335 q 64 -320 64 -328 z "},"-":{"ha":645,"x_min":100,"x_max":543,"o":"m 424 252 l 416 254 l 362 244 q 333 249 347 244 q 303 254 319 254 q 279 250 290 254 q 252 244 267 244 q 199 250 225 244 q 147 256 174 256 q 111 283 121 270 q 100 313 100 296 q 106 346 100 330 q 121 372 111 361 q 146 390 132 383 q 179 397 161 397 l 215 393 l 232 393 q 240 393 236 393 q 250 394 245 393 q 268 396 258 395 q 284 397 277 397 l 307 397 q 322 396 315 397 q 337 393 330 396 q 349 391 343 392 q 361 391 355 391 l 408 391 q 419 391 414 391 q 431 393 425 392 q 446 399 440 397 q 458 400 451 400 q 485 398 470 400 q 512 392 499 397 q 534 379 525 387 q 543 357 543 370 q 538 316 543 336 q 522 278 533 295 q 494 251 511 262 q 452 241 477 241 l 450 241 q 445 243 448 241 q 437 247 441 245 q 429 251 433 249 q 424 252 425 252 z "},".":{"ha":299,"x_min":67,"x_max":232,"o":"m 67 96 q 85 158 67 137 q 145 180 102 180 q 170 175 159 180 q 193 165 181 170 q 215 151 208 158 q 227 136 223 144 q 231 117 231 127 q 232 90 232 106 l 232 50 q 224 36 231 45 q 209 20 218 28 q 192 6 201 12 q 177 0 183 0 q 133 11 153 5 q 99 27 113 17 q 76 54 84 37 q 67 96 67 71 z "},"/":{"ha":472,"x_min":15,"x_max":680,"o":"m 16 5 q 22 24 18 16 q 31 40 26 33 q 41 54 36 47 q 52 71 47 61 l 62 89 q 70 106 65 100 q 79 121 75 112 l 93 153 q 96 156 93 154 q 103 160 99 158 q 110 164 106 162 q 114 167 113 165 l 120 196 q 127 210 122 204 q 137 221 132 216 q 148 232 142 227 q 156 243 153 237 q 163 252 159 245 q 173 266 168 259 q 180 280 177 273 q 184 289 184 286 q 192 305 185 291 q 208 335 199 319 q 227 363 217 351 q 243 376 237 376 q 277 429 263 399 q 302 484 290 458 l 343 542 q 364 588 356 571 q 377 613 372 605 q 385 625 382 622 q 390 629 388 627 l 404 652 q 412 669 408 663 q 420 681 416 675 q 430 692 425 686 q 441 707 435 698 q 478 768 463 736 q 511 829 494 799 q 525 852 517 842 q 543 876 534 862 q 550 887 545 878 q 562 907 555 897 q 573 930 568 918 q 582 949 578 941 q 597 977 589 965 q 625 989 606 989 q 644 987 634 989 q 664 980 653 985 q 680 964 675 974 l 673 929 q 667 922 671 928 q 661 915 662 916 q 652 889 654 903 q 643 861 650 875 q 632 849 639 852 q 615 840 625 846 q 611 831 612 836 q 608 814 610 827 q 598 798 605 806 q 583 782 591 790 q 567 767 574 774 q 553 754 559 760 q 538 733 538 740 l 538 732 l 532 712 q 514 680 524 694 q 493 656 504 665 q 492 645 492 650 q 491 637 492 640 q 485 620 488 626 q 479 609 482 613 q 473 603 476 606 q 467 598 470 601 q 461 589 465 595 q 453 576 457 583 q 447 563 450 570 q 444 551 444 556 q 433 523 440 534 q 420 505 427 511 q 408 494 414 498 q 401 487 403 490 q 397 480 401 484 q 392 474 393 475 q 382 451 388 460 q 370 433 377 441 q 354 418 363 425 q 337 401 346 410 q 328 388 331 395 q 321 374 325 380 q 317 344 319 353 q 313 331 315 336 q 294 311 300 322 q 288 299 289 300 q 283 294 287 297 q 274 289 279 292 q 265 285 269 287 q 260 283 261 283 q 251 267 255 278 q 243 242 247 255 q 235 217 239 229 q 226 201 231 205 q 221 197 224 199 q 214 192 218 195 q 209 188 211 190 q 207 184 206 186 q 208 177 208 180 q 208 172 208 174 q 207 165 208 168 q 194 142 203 150 q 178 132 184 134 q 171 111 172 119 q 161 101 169 104 q 160 92 160 98 q 156 79 159 86 q 152 61 155 68 q 146 48 150 54 q 136 38 142 43 q 121 28 130 33 q 114 21 117 26 q 111 12 112 17 q 109 1 110 7 q 106 -9 108 -4 q 97 -19 100 -17 q 90 -23 93 -22 q 84 -28 87 -25 q 79 -41 81 -32 l 39 -45 q 30 -37 35 -44 q 22 -20 26 -29 q 17 -4 19 -12 q 16 5 15 3 z "},":":{"ha":362,"x_min":74,"x_max":278,"o":"m 74 79 q 77 105 74 94 q 84 123 79 115 q 98 136 90 130 q 117 150 106 142 q 139 170 131 159 q 158 180 147 180 q 169 178 161 180 q 184 175 176 177 q 199 172 192 174 q 208 169 205 170 q 217 163 210 168 q 226 159 223 159 l 251 159 q 261 148 256 157 q 268 129 265 140 q 272 107 271 118 q 273 92 273 97 q 268 61 273 78 q 260 29 263 43 q 248 19 256 24 q 228 11 239 14 q 207 5 218 7 q 189 3 196 3 l 169 3 q 148 5 159 3 q 127 14 136 7 q 123 19 126 16 q 115 26 119 22 q 108 34 111 30 q 103 40 104 38 q 95 47 100 43 q 85 57 90 52 q 77 68 81 62 q 74 79 74 73 m 96 434 l 95 441 q 100 476 95 456 q 114 514 104 496 q 138 545 124 532 q 171 557 153 557 q 194 554 181 557 q 221 545 208 550 q 246 532 235 539 q 265 517 258 524 q 270 507 267 514 q 274 492 272 500 q 277 475 275 484 q 278 463 278 467 q 273 436 278 447 q 259 418 268 425 q 238 405 250 410 q 211 395 225 399 q 210 395 211 395 q 209 394 209 394 q 199 391 205 393 q 185 387 192 389 q 171 383 178 385 q 161 381 164 381 q 142 387 153 381 q 121 401 131 393 q 103 418 111 409 q 96 434 96 427 z "},";":{"ha":384,"x_min":45,"x_max":336,"o":"m 45 -313 q 58 -281 45 -298 q 89 -248 71 -264 q 125 -215 106 -231 q 155 -185 144 -199 q 160 -173 158 -180 q 164 -159 162 -166 q 170 -147 166 -153 q 180 -138 174 -142 q 192 -115 186 -127 q 204 -89 199 -102 q 214 -59 210 -75 q 218 -24 218 -43 q 211 -15 215 -18 q 203 -12 208 -13 q 195 -9 199 -11 q 188 -2 191 -7 q 184 4 186 -1 q 178 15 182 9 q 171 25 175 20 q 161 29 166 29 q 150 27 155 29 q 140 22 145 24 q 131 17 136 19 q 119 14 126 14 q 72 28 90 14 q 53 74 53 43 l 53 83 l 62 96 q 79 130 70 113 q 100 159 88 146 q 128 180 112 172 q 164 188 144 188 q 238 169 205 188 q 292 119 270 149 q 325 50 313 88 q 336 -24 336 12 q 332 -61 336 -46 q 320 -95 328 -77 l 302 -161 q 285 -192 295 -178 q 263 -219 275 -206 q 238 -246 251 -233 q 215 -273 226 -259 q 212 -279 214 -273 q 210 -286 210 -285 q 196 -298 208 -293 q 171 -309 185 -304 q 142 -320 157 -314 q 119 -333 128 -326 q 106 -335 113 -334 q 93 -336 100 -336 q 79 -335 85 -336 q 67 -333 73 -334 q 52 -326 59 -330 q 45 -313 45 -322 m 119 494 l 119 517 q 131 532 121 524 q 153 547 141 540 q 177 558 165 553 q 193 562 189 562 q 235 557 220 562 q 260 542 251 553 q 275 514 270 531 q 285 474 279 498 q 274 434 285 452 q 247 404 263 416 q 212 385 231 391 q 178 378 193 378 q 150 392 161 378 q 132 424 139 406 q 122 463 125 443 q 119 494 119 482 z "},"<":{"ha":757,"x_min":70,"x_max":694,"o":"m 345 245 l 328 265 q 303 281 313 275 q 288 290 294 287 q 280 295 282 294 q 277 296 278 296 q 263 302 270 296 q 252 316 257 308 q 243 332 247 324 q 237 344 239 340 q 225 349 230 347 q 215 354 220 351 q 206 361 210 357 q 195 374 201 366 l 152 419 q 127 429 141 422 q 100 446 113 436 q 79 469 87 456 q 70 495 70 481 q 80 522 70 511 q 106 543 91 534 q 136 560 121 552 q 161 575 152 568 q 170 582 165 576 q 177 592 174 587 q 185 603 181 598 q 193 608 189 608 q 208 621 201 616 q 219 629 214 626 q 229 636 224 633 q 240 646 233 640 q 244 654 243 650 q 246 661 246 658 q 256 675 246 667 l 300 690 l 345 734 q 361 736 355 734 q 368 739 365 738 q 374 747 372 742 q 383 754 376 751 q 406 771 397 765 q 419 781 414 777 q 427 786 425 784 q 446 797 436 787 q 464 819 455 807 q 480 841 472 831 q 496 854 488 852 q 513 863 507 858 q 522 872 518 867 q 529 883 525 878 q 541 893 532 888 q 562 905 551 900 q 584 915 573 910 q 607 925 595 920 q 627 937 618 930 q 643 920 635 931 q 652 894 652 908 q 646 868 652 878 q 630 853 640 859 q 609 839 621 846 q 589 820 598 832 q 570 813 582 820 q 546 796 559 806 q 523 778 534 787 q 507 765 512 768 q 500 760 505 764 q 489 750 495 755 q 478 741 484 745 q 472 734 473 736 l 427 704 q 416 691 422 699 q 402 676 410 684 q 388 664 395 669 q 372 659 380 659 q 367 661 368 659 q 365 655 366 659 q 362 647 363 651 q 358 640 360 643 q 354 635 356 636 q 349 632 352 633 q 343 630 345 630 q 331 625 336 628 q 321 617 326 621 q 314 609 317 613 q 304 602 310 605 q 276 581 288 588 q 253 567 264 573 q 231 552 242 560 q 203 532 219 545 q 211 510 203 520 q 226 500 218 500 q 278 463 255 481 q 327 424 301 444 q 334 419 328 422 q 342 415 339 416 q 352 409 344 415 q 371 396 361 404 q 390 383 381 389 q 402 376 399 377 q 413 359 409 362 q 421 355 417 355 q 430 354 425 355 q 444 344 435 353 q 456 329 447 339 q 475 308 465 318 q 496 289 486 297 q 512 281 506 281 q 544 259 528 270 q 574 236 560 248 q 586 226 581 231 q 595 217 591 221 q 604 209 599 212 q 616 201 608 205 q 639 188 626 195 q 665 171 652 180 q 685 151 677 162 q 694 124 694 139 q 688 102 694 115 q 673 77 683 89 q 651 57 664 65 q 624 48 638 48 q 602 58 612 48 q 579 75 591 67 q 562 81 573 79 q 541 88 551 82 l 507 130 l 491 137 q 477 150 484 142 q 464 168 471 159 q 448 186 457 177 q 427 201 439 195 q 410 211 420 203 q 392 227 401 218 q 376 241 383 235 q 368 248 369 248 l 345 245 z "},"=":{"ha":631,"x_min":81,"x_max":551,"o":"m 93 210 q 90 223 90 212 l 90 237 q 90 260 90 246 q 93 287 90 273 q 103 310 96 300 q 122 323 110 320 l 155 323 q 168 325 162 323 q 180 329 174 327 q 193 333 186 331 q 207 334 199 334 l 245 326 q 261 328 256 326 q 273 330 267 330 q 297 328 285 330 q 321 323 309 326 q 340 316 331 318 q 359 315 350 315 q 396 320 378 315 q 433 326 414 326 l 460 323 q 470 325 465 323 q 478 329 474 326 q 487 333 482 331 q 496 334 491 334 q 527 328 512 334 q 551 307 541 321 l 551 290 q 550 271 551 279 q 548 254 549 262 q 546 237 547 246 q 545 215 545 228 q 532 199 540 205 q 516 189 525 193 q 498 184 507 185 q 481 183 490 183 l 411 188 q 317 187 364 188 q 223 184 271 186 q 183 178 203 183 q 141 172 162 172 q 126 176 134 172 q 111 184 118 179 q 99 196 104 189 q 93 210 94 203 m 81 450 l 81 477 q 82 500 81 487 q 85 527 82 514 q 95 549 88 540 q 114 559 102 558 l 146 559 q 159 563 153 560 q 172 568 165 565 q 185 573 178 570 q 199 575 191 575 q 218 569 210 575 q 239 563 226 563 l 265 568 q 288 566 277 568 q 310 561 299 564 q 331 556 321 558 q 350 555 341 555 l 425 563 l 452 559 q 461 562 457 559 q 470 567 466 564 q 478 573 474 570 q 488 575 483 575 q 517 567 503 575 q 541 545 532 558 l 541 532 l 536 461 l 536 444 q 508 425 526 430 q 472 420 490 420 l 401 427 q 308 426 354 427 q 215 421 261 425 q 174 416 195 420 q 132 413 152 413 q 118 416 126 413 q 103 424 111 419 q 89 436 95 429 q 81 450 83 442 z "},">":{"ha":755,"x_min":63,"x_max":686,"o":"m 412 251 l 389 251 q 380 244 387 251 q 364 230 374 238 q 343 214 354 222 q 323 204 332 207 q 307 189 314 198 q 292 171 299 180 q 279 154 286 162 q 264 141 273 146 l 250 136 l 216 92 q 195 86 206 87 q 176 79 183 85 q 154 62 165 71 q 132 54 144 54 q 104 62 117 54 q 82 82 92 71 q 68 106 73 94 q 63 129 63 119 q 71 155 63 144 q 92 175 79 166 q 117 191 104 184 q 140 204 130 197 q 153 212 149 208 q 162 221 158 216 q 171 231 166 226 q 182 241 175 236 q 213 263 197 252 q 243 285 229 275 q 261 293 250 285 q 281 311 271 300 q 300 332 292 321 q 311 347 308 342 q 326 357 321 356 q 336 359 332 359 q 344 363 340 360 q 355 379 348 366 q 366 388 356 382 q 386 401 375 395 q 406 414 397 408 q 415 419 414 419 q 423 424 418 420 q 429 429 428 428 q 478 467 454 448 q 531 505 502 486 q 547 514 538 505 q 555 535 555 524 q 527 557 538 549 q 504 572 515 565 q 481 586 493 578 q 451 606 469 593 q 434 622 441 613 q 414 636 428 631 q 411 636 413 636 q 408 637 410 636 l 402 638 q 394 653 397 644 q 383 663 391 663 q 367 668 375 663 q 353 682 359 674 q 340 696 346 689 q 330 707 334 704 l 285 741 q 278 745 283 741 q 267 753 273 749 q 257 763 262 758 q 250 768 252 767 q 233 780 244 771 q 210 799 222 789 q 186 816 198 808 q 166 823 174 823 q 146 843 157 836 q 126 856 136 850 q 110 871 117 863 q 104 897 104 880 q 113 923 104 911 q 131 941 122 935 q 151 928 140 933 q 173 918 161 923 q 195 908 184 913 q 216 897 206 903 q 227 886 223 892 q 235 876 231 881 q 245 866 239 871 q 261 858 251 862 q 275 845 267 856 q 293 823 283 835 q 311 801 302 810 q 330 789 321 791 l 333 788 q 336 786 336 786 q 362 766 353 774 q 376 753 371 758 q 383 746 380 749 q 389 743 386 744 q 396 742 393 742 q 403 741 399 741 q 412 741 407 741 q 422 732 416 738 q 433 719 427 726 q 444 706 438 712 q 456 696 450 700 q 488 679 477 686 q 505 666 499 671 q 512 657 511 661 q 517 650 514 654 q 528 641 523 644 q 539 635 534 638 q 551 627 545 631 q 565 614 557 623 q 571 609 568 614 q 579 597 575 604 q 588 586 584 591 q 594 578 591 580 q 621 564 605 571 q 651 547 636 556 q 675 526 665 538 q 686 498 686 514 q 677 472 686 485 q 656 450 669 460 q 630 432 644 439 q 606 422 616 425 q 594 414 601 421 q 582 399 588 407 q 570 384 575 391 q 562 378 564 378 q 551 365 555 370 q 542 357 546 360 q 532 353 537 355 q 519 347 526 351 q 513 336 517 344 q 504 320 509 328 q 492 306 498 312 q 478 299 486 299 q 473 298 477 299 q 470 297 471 297 q 449 289 458 294 q 431 276 440 285 l 412 251 z "},"?":{"ha":502,"x_min":63,"x_max":456,"o":"m 63 66 q 68 86 63 75 q 82 107 73 97 q 101 123 90 117 q 121 130 111 130 q 185 102 168 127 q 203 37 203 78 q 197 19 203 26 q 182 7 191 12 q 163 0 173 2 q 145 -2 153 -2 q 112 1 127 -2 q 86 12 97 4 q 69 33 75 20 q 63 66 63 46 m 368 596 l 368 598 q 354 638 360 621 q 339 670 347 656 q 318 696 330 684 q 286 720 305 709 q 277 730 281 724 q 272 739 273 736 l 242 776 q 224 779 233 776 q 209 785 216 781 q 193 792 201 788 q 176 797 184 795 q 153 827 160 815 q 146 858 146 839 q 150 880 146 868 q 163 897 153 891 l 180 897 q 210 889 198 897 q 232 870 222 881 q 252 848 242 859 q 275 831 262 837 l 307 821 q 330 806 319 815 q 349 786 340 797 q 367 765 359 776 q 385 746 376 755 q 391 743 387 745 q 398 739 395 741 q 418 720 408 733 q 437 692 429 707 q 450 662 445 677 q 456 636 456 646 q 450 598 456 616 q 437 562 444 580 l 429 484 q 423 470 427 476 q 413 459 418 465 q 403 449 408 454 q 394 440 398 444 q 392 437 393 439 q 389 432 389 435 q 355 393 373 406 q 317 374 338 380 q 273 366 297 368 q 220 360 250 364 q 210 355 213 358 q 205 348 207 352 q 202 339 203 344 q 197 328 200 334 q 192 318 197 326 q 184 310 186 311 q 176 281 178 297 q 170 250 174 264 q 157 225 165 235 q 130 216 149 216 l 113 220 q 109 224 111 220 q 106 231 106 229 q 104 280 105 256 q 104 330 104 304 q 104 361 104 345 q 106 393 104 376 q 117 429 106 416 q 144 448 127 441 q 181 458 161 455 q 223 462 202 460 q 262 466 243 464 q 294 475 281 469 q 302 487 301 479 q 307 501 304 495 q 315 510 311 509 q 327 511 319 511 q 338 511 335 511 q 351 524 345 513 q 360 550 356 536 q 366 578 363 564 q 368 596 368 591 z "},"@":{"ha":1044,"x_min":56,"x_max":1014,"o":"m 557 283 q 559 289 557 285 q 564 298 562 293 q 568 308 566 303 q 572 315 570 313 q 576 334 576 321 q 576 338 576 336 q 575 341 575 339 q 575 344 575 342 q 572 352 575 347 q 564 357 568 357 q 561 356 562 357 q 559 354 560 355 q 556 353 557 354 q 553 352 554 352 q 551 350 551 351 q 549 349 551 349 q 547 347 548 348 q 544 344 547 347 q 538 338 541 341 q 531 332 534 335 q 527 328 528 329 l 487 302 q 482 297 486 300 q 475 290 479 294 q 468 283 471 286 q 463 278 465 279 q 423 251 447 261 q 377 237 399 240 l 357 237 q 337 237 347 237 q 317 241 327 237 q 314 242 316 241 q 311 245 313 243 q 287 267 297 253 q 273 298 277 281 q 270 314 270 307 q 269 331 269 321 l 269 346 q 272 365 269 355 q 279 385 275 375 q 300 430 289 408 q 323 473 311 452 q 331 484 328 478 q 338 495 335 490 q 340 500 338 496 q 342 503 340 501 q 350 512 345 506 q 360 525 355 519 q 370 537 366 532 q 377 545 375 543 q 386 553 380 551 q 396 559 393 555 l 453 608 q 454 610 453 608 q 456 612 455 611 q 463 620 457 614 q 474 632 468 625 q 486 646 480 640 q 493 654 491 652 q 497 657 494 656 q 500 661 499 659 l 501 662 l 505 662 q 509 663 507 662 q 518 667 514 664 q 525 675 522 670 q 578 708 551 696 q 639 726 604 720 q 660 729 649 729 q 683 730 671 730 l 689 730 q 701 725 696 728 q 710 720 705 722 q 718 718 714 718 l 734 718 l 735 719 q 745 728 741 724 q 752 739 748 733 q 771 756 762 748 q 793 764 780 764 l 802 764 q 815 742 811 754 q 819 718 819 730 q 812 680 819 696 q 795 645 804 663 q 792 634 793 639 q 790 623 791 629 q 787 616 790 618 l 713 463 q 711 457 711 459 q 711 453 711 456 q 711 448 711 450 q 710 442 711 446 q 699 418 705 431 q 688 394 694 406 l 688 392 q 685 383 686 387 q 683 377 684 380 q 681 373 682 374 q 677 367 680 370 q 675 358 675 363 q 676 346 675 352 q 686 339 677 339 q 699 343 693 339 q 711 352 705 347 l 787 395 q 792 398 789 397 q 797 401 794 400 q 837 436 817 418 q 874 474 857 454 q 902 516 890 494 q 917 564 913 538 q 921 589 920 576 q 922 615 922 602 q 919 635 922 624 q 916 657 917 646 q 888 725 900 695 q 861 777 876 755 l 859 777 l 811 842 q 774 862 789 850 q 739 884 758 874 q 698 908 716 899 q 661 921 680 918 q 646 919 651 920 q 637 918 641 918 l 626 918 q 617 918 621 918 q 608 916 614 918 l 583 928 q 543 925 564 928 q 507 906 522 922 q 436 893 465 902 q 385 870 407 885 q 345 834 363 856 q 305 783 326 813 l 287 764 l 261 725 q 254 713 256 720 q 252 699 252 705 l 218 615 q 213 597 215 608 q 209 577 210 587 q 206 557 207 567 q 203 540 205 547 q 200 530 203 536 q 195 516 198 524 q 190 500 193 508 q 188 488 188 493 q 205 386 191 431 q 237 302 219 340 q 245 285 243 294 q 250 265 247 275 q 259 245 253 255 q 277 227 264 235 q 295 194 285 211 q 319 167 305 177 q 335 152 328 159 q 349 136 342 144 q 364 118 356 127 q 383 100 372 109 q 401 95 391 98 q 421 89 412 92 q 439 82 431 85 q 451 79 447 79 l 493 66 l 557 67 q 586 71 573 70 q 610 72 600 72 q 642 70 631 72 q 659 68 653 68 q 667 66 663 68 q 681 64 670 64 q 696 66 690 64 q 707 71 702 68 q 718 76 712 73 q 734 80 724 79 q 748 89 735 81 q 777 105 761 97 q 805 121 792 114 q 819 128 818 128 q 849 122 841 128 q 857 108 857 117 q 847 83 857 96 q 830 62 837 70 q 814 40 821 48 q 802 28 807 32 q 792 23 796 24 q 783 22 787 22 q 767 20 774 22 q 752 15 760 18 q 713 1 734 7 q 665 -5 692 -5 l 667 -3 q 655 -5 663 -5 q 640 -5 648 -5 l 547 -5 q 529 -5 538 -5 q 517 -3 521 -5 q 476 0 496 -3 q 434 7 455 3 q 393 17 413 12 q 353 26 372 22 q 348 27 351 26 q 343 31 344 29 q 303 59 324 45 q 261 85 283 73 l 237 89 q 222 99 234 90 q 198 120 211 109 q 174 143 184 132 q 161 159 163 154 l 107 254 q 93 293 102 267 q 76 349 84 319 q 62 404 68 378 q 56 442 56 430 q 58 453 56 450 q 60 465 60 457 l 56 505 q 59 543 56 519 q 67 590 63 566 q 77 636 72 614 q 83 671 81 658 q 89 685 84 675 q 98 698 94 694 q 108 714 104 706 q 114 731 111 722 q 119 747 116 739 q 127 764 121 755 q 135 773 130 770 q 143 779 139 776 q 149 785 146 781 q 152 797 152 789 l 233 879 l 290 908 q 294 912 292 909 q 300 919 296 916 l 334 930 l 425 975 l 604 1010 l 642 1010 l 677 994 l 695 996 l 743 980 q 762 973 749 978 q 789 962 774 968 q 815 950 803 956 q 833 941 828 945 q 849 925 842 932 q 864 914 857 919 q 879 904 871 909 q 896 893 886 899 q 913 876 902 890 q 936 847 924 863 q 956 816 947 831 q 966 797 964 802 q 968 780 968 788 q 968 765 968 772 q 972 752 969 758 q 983 741 975 746 q 994 693 989 718 q 1004 645 1000 667 q 1011 607 1008 623 q 1014 588 1014 591 q 1011 564 1014 572 q 1004 543 1008 556 q 987 519 995 528 q 980 502 980 509 q 966 480 970 490 q 957 462 962 471 q 947 445 953 453 q 928 426 941 436 q 888 394 904 406 q 858 372 872 381 q 827 353 843 362 q 787 330 811 343 l 743 292 l 737 288 q 730 281 736 286 q 723 276 725 277 q 710 269 717 271 q 696 264 703 267 q 677 248 686 256 q 657 233 668 239 l 634 227 l 631 227 l 587 233 q 584 235 586 234 q 581 236 583 235 q 578 237 580 237 q 571 243 576 240 q 565 250 566 247 q 558 262 560 256 q 557 276 557 269 l 557 283 m 393 340 q 396 324 393 331 q 406 313 399 317 q 412 309 409 311 q 419 307 416 307 q 449 314 437 307 q 474 333 462 321 q 497 355 484 341 q 525 381 511 368 q 557 413 541 396 l 613 488 l 642 519 l 674 585 l 688 638 q 688 642 688 640 q 689 645 689 644 q 688 657 689 650 q 682 667 686 664 q 681 670 682 669 q 680 673 680 671 l 677 675 l 675 675 q 671 675 672 675 q 667 675 670 675 q 663 677 663 675 l 652 677 l 650 675 q 643 673 648 675 q 632 668 638 671 q 620 663 626 665 q 612 659 614 660 q 607 657 608 659 q 604 652 605 655 q 595 646 602 651 q 582 634 589 640 q 568 622 574 627 q 560 615 562 616 l 554 608 l 546 608 l 494 553 q 484 532 486 544 q 481 525 482 529 q 479 517 481 521 q 467 503 473 509 q 454 489 460 496 q 451 483 453 487 q 446 475 448 479 q 441 468 444 471 q 439 465 439 465 l 396 387 l 396 381 q 394 361 395 372 q 393 340 393 351 z "},"A":{"ha":936,"x_min":-22,"x_max":966,"o":"m -22 26 q -14 45 -22 39 q 6 56 -5 52 q 30 62 18 60 q 49 69 41 64 q 54 74 51 71 q 62 80 58 77 q 70 87 66 84 q 76 92 74 90 l 109 108 q 124 123 115 111 q 142 152 133 136 q 159 183 151 168 q 171 206 168 199 q 173 214 172 208 q 174 223 174 220 q 176 230 174 226 q 178 236 178 235 q 183 242 180 237 q 191 253 186 248 q 198 263 195 258 q 201 270 201 269 q 203 275 202 271 q 204 284 203 279 q 205 294 205 290 q 206 300 206 299 q 218 344 210 322 q 234 388 226 366 q 248 432 241 410 q 256 477 254 454 l 302 606 q 314 664 312 633 q 323 723 315 694 q 351 775 335 749 q 381 829 368 800 q 387 861 386 844 q 397 892 388 878 q 414 910 401 897 q 444 938 428 924 q 474 963 459 952 q 496 974 489 974 q 513 964 509 974 q 520 956 517 962 q 524 948 524 949 q 534 924 528 936 q 544 897 540 911 l 543 882 q 548 862 543 873 q 555 845 552 852 q 568 799 562 821 q 577 754 574 777 q 586 729 580 741 q 592 704 592 718 l 591 693 q 610 673 604 682 q 620 655 616 665 q 627 636 623 646 q 639 610 631 625 q 649 585 646 597 q 655 561 652 573 q 660 535 657 549 q 669 506 663 522 q 673 494 669 503 q 677 484 677 486 l 677 458 q 680 452 677 456 q 686 441 682 447 q 692 430 689 435 q 694 422 694 425 q 695 419 694 422 q 695 412 695 416 q 696 405 696 408 q 698 401 697 401 l 717 382 q 723 373 722 378 q 725 361 724 368 q 726 348 726 355 q 730 336 727 342 q 745 297 739 317 q 761 257 751 277 q 771 227 767 243 q 775 196 775 211 l 775 188 q 795 160 784 172 q 812 136 806 148 q 825 113 819 121 q 839 98 832 104 q 851 90 845 93 q 863 83 857 87 q 894 71 878 75 q 935 62 910 66 l 954 58 q 964 42 962 52 q 966 24 966 31 q 955 3 966 9 q 932 -3 944 -3 l 875 0 l 861 0 q 851 4 857 3 q 840 7 846 6 q 828 7 833 7 q 822 8 823 7 l 741 8 q 731 17 736 16 q 719 18 727 18 q 661 11 691 18 q 597 3 631 3 l 582 3 q 561 4 571 3 q 544 9 551 5 q 541 21 541 12 l 542 32 q 543 38 543 35 q 543 42 543 41 q 547 48 543 47 q 575 56 559 54 q 605 62 591 59 q 629 72 619 66 q 639 90 639 78 l 639 92 q 636 127 638 107 q 635 167 635 147 q 630 181 635 174 q 625 195 626 189 l 625 236 q 617 264 624 245 q 599 302 610 283 q 576 336 589 321 q 552 351 564 351 q 516 343 534 351 q 478 336 497 336 q 447 342 462 336 q 413 349 433 349 l 370 349 q 341 347 355 349 q 314 338 326 345 q 275 305 293 326 q 250 254 258 284 l 245 206 q 243 199 245 205 q 241 188 242 194 q 238 177 239 182 q 237 170 237 172 q 236 166 237 169 q 235 161 235 163 q 239 143 235 149 q 250 127 243 138 q 259 111 253 121 q 271 93 264 100 q 296 80 280 85 q 328 70 312 75 q 354 56 343 64 q 366 34 366 48 l 366 29 q 346 -6 362 3 q 304 -14 330 -14 l 245 1 l 220 1 q 195 1 208 1 q 171 -1 182 0 q 150 -5 159 -3 q 136 -11 140 -7 q 102 -12 119 -11 q 72 -13 85 -12 q 51 -14 59 -14 q 41 -14 42 -14 q 21 -12 32 -14 q 0 -3 10 -9 q -16 9 -9 2 q -22 26 -22 16 m 327 486 q 326 471 326 478 q 325 458 325 464 q 334 432 325 439 q 361 426 342 426 q 364 427 363 426 q 366 429 365 428 q 375 431 367 429 q 386 433 382 432 q 398 431 392 432 q 407 429 404 429 l 513 429 q 559 471 559 429 q 555 487 559 477 q 545 508 551 496 q 533 531 538 519 q 524 555 527 543 q 521 563 524 559 l 489 610 q 487 617 489 614 q 483 624 484 621 l 479 638 q 471 673 476 652 q 460 711 467 693 q 445 743 453 730 q 426 755 436 755 q 410 738 420 755 q 390 693 401 720 q 367 633 378 666 q 347 570 356 600 q 333 517 338 541 q 327 486 327 494 z "},"B":{"ha":916,"x_min":55,"x_max":862,"o":"m 58 22 l 58 26 q 69 32 60 28 q 90 39 78 35 q 116 47 102 43 q 142 55 130 52 q 162 61 154 58 q 172 64 171 64 q 191 99 184 81 q 199 136 197 117 q 203 174 202 155 q 206 214 204 193 q 214 243 211 229 q 217 273 217 258 q 212 294 217 285 q 206 313 206 302 q 212 349 206 331 q 217 382 217 367 q 216 392 217 388 q 215 399 216 395 q 213 406 214 402 q 212 414 212 409 q 214 426 212 421 q 218 436 216 431 q 222 445 220 440 q 224 454 224 449 l 206 524 q 212 541 206 534 q 217 559 217 548 l 212 580 l 212 623 q 211 629 212 625 q 208 637 210 633 q 204 644 205 641 q 203 649 203 648 q 206 680 203 667 q 210 707 210 694 l 206 815 q 199 826 203 822 q 190 833 195 830 q 179 839 185 836 q 168 847 174 842 q 137 870 156 864 q 100 880 118 876 q 68 890 81 884 q 55 913 55 896 q 65 931 55 925 q 88 941 75 938 q 115 945 102 944 q 137 945 129 945 l 161 945 q 188 945 174 945 q 215 944 202 945 q 236 941 227 943 q 246 937 245 939 l 465 945 l 521 942 l 549 945 q 597 929 573 935 q 643 915 621 923 q 685 894 665 907 q 721 859 705 882 q 746 821 736 837 q 764 789 757 805 q 773 755 770 773 q 777 711 777 736 q 772 667 777 691 q 758 623 767 643 q 742 604 750 612 q 726 591 734 597 q 707 579 717 585 q 686 567 697 574 l 679 553 q 662 544 674 547 q 636 538 649 541 q 613 528 623 534 q 603 509 603 522 q 615 498 603 503 q 643 490 627 494 q 674 482 659 486 q 696 476 690 479 q 731 455 716 466 q 764 434 747 445 l 787 419 q 809 382 796 401 q 834 343 822 363 q 854 301 846 323 q 862 257 862 280 q 860 210 862 232 q 849 170 859 187 q 836 153 846 164 q 814 128 827 142 q 787 99 802 114 q 759 72 772 84 q 733 50 745 59 q 714 39 722 41 q 682 36 690 39 q 669 33 673 33 q 604 14 633 21 q 539 3 575 6 l 509 -7 q 471 0 490 0 q 430 -7 448 0 q 353 -1 391 -3 q 273 2 315 2 q 207 -4 241 2 q 137 -11 174 -11 q 121 -9 134 -11 q 95 -3 109 -7 q 70 7 81 1 q 58 22 58 14 m 342 205 l 352 174 q 355 133 354 147 q 358 110 355 118 q 370 95 361 101 q 395 81 378 90 q 406 75 402 77 q 415 69 410 72 q 443 55 429 63 q 473 47 456 47 q 494 51 486 47 q 513 55 502 55 l 544 52 q 562 56 552 52 q 581 66 572 60 q 599 79 591 72 q 613 92 608 85 q 623 99 616 93 q 636 111 629 104 q 649 124 643 118 q 658 134 654 131 q 666 152 661 143 q 677 170 672 161 q 686 189 682 179 q 690 210 690 199 q 688 270 690 240 q 678 329 686 300 q 657 382 671 357 q 619 427 643 408 q 577 453 597 443 q 530 466 556 463 l 495 466 q 445 474 467 469 q 399 480 422 480 l 360 476 q 356 468 359 473 q 352 457 354 463 q 347 447 349 452 q 342 440 345 442 q 345 423 342 429 q 347 408 347 416 l 338 313 q 342 274 338 295 q 347 230 347 253 l 342 205 m 356 516 l 365 505 l 404 517 q 453 522 427 520 q 504 524 479 524 q 522 524 517 524 q 530 524 526 524 q 565 561 549 540 q 594 604 581 581 q 616 650 606 626 q 635 696 627 673 l 635 707 l 626 725 q 609 774 619 749 q 584 819 599 798 q 548 853 568 839 q 499 869 527 867 q 493 870 498 869 q 484 871 489 871 q 475 872 479 871 q 470 873 471 873 q 453 878 461 874 q 438 887 446 882 q 422 895 431 892 q 404 899 414 899 q 390 894 399 899 q 372 882 381 889 q 356 867 363 875 q 347 854 349 860 l 347 826 l 352 772 q 350 749 352 761 q 345 725 347 737 q 340 702 342 713 q 338 682 338 691 q 345 596 338 637 q 356 516 353 555 z "},"C":{"ha":994,"x_min":64,"x_max":943,"o":"m 73 359 q 72 365 73 361 q 70 373 71 369 q 68 381 69 378 q 67 387 67 385 q 66 395 66 392 q 66 400 66 397 q 67 409 66 406 q 72 419 68 412 l 64 555 l 67 593 q 70 597 68 595 q 72 601 71 600 q 73 604 73 603 q 83 631 79 618 q 91 659 86 644 q 94 684 94 672 q 100 709 94 699 q 120 748 109 729 q 147 791 131 766 q 150 796 149 793 q 153 800 151 798 q 166 820 159 809 q 174 832 173 831 q 190 850 182 844 q 208 867 197 857 q 249 899 231 884 q 291 929 267 914 l 308 937 q 321 942 314 939 q 337 950 329 946 q 353 958 345 954 q 366 963 360 961 l 435 972 q 444 975 438 972 q 453 980 450 977 q 500 981 482 981 q 533 982 517 982 q 574 981 554 982 q 615 980 595 981 q 636 975 628 977 q 649 972 644 973 q 656 971 654 971 q 660 971 658 971 q 673 972 668 972 q 683 972 678 972 q 692 972 687 972 q 707 972 698 972 q 723 961 714 968 q 739 954 732 954 q 745 956 742 954 q 749 958 747 958 l 789 958 q 805 963 798 959 q 821 973 813 968 q 836 982 829 978 q 853 985 844 985 q 873 978 865 985 q 882 958 882 971 l 882 845 q 884 834 882 842 q 885 823 885 827 q 899 756 891 791 q 907 690 907 722 q 904 681 907 686 q 898 672 901 676 q 890 665 894 668 q 885 662 887 662 q 880 661 885 661 q 857 667 867 661 q 840 682 847 673 q 830 703 833 692 q 825 723 827 713 l 825 745 q 822 761 824 755 q 816 771 819 766 q 808 780 812 775 q 798 792 804 785 q 789 809 791 800 q 782 827 788 818 q 776 833 781 830 q 770 836 771 836 l 726 867 q 723 870 726 867 q 717 877 720 873 q 710 884 713 881 q 707 889 707 888 q 699 893 699 893 q 689 892 697 892 q 684 893 684 892 q 657 902 670 896 q 633 914 644 908 l 551 918 q 541 924 546 923 q 530 926 536 926 q 490 922 507 926 q 460 910 474 918 q 459 908 460 909 q 456 907 458 907 q 436 895 447 899 q 413 887 425 891 q 390 879 401 884 q 370 867 379 875 l 344 845 q 337 839 343 844 q 330 832 331 835 q 319 818 327 825 q 308 810 311 812 q 300 794 302 803 q 295 785 298 786 l 279 762 l 260 719 l 252 680 q 249 675 251 678 q 243 668 246 671 q 237 661 240 664 q 233 659 234 659 q 232 653 233 658 q 231 642 231 648 q 230 629 231 635 q 229 619 229 623 l 229 601 l 233 532 l 241 498 l 233 461 q 241 396 233 429 q 260 333 250 363 q 273 317 262 332 l 279 298 q 286 287 281 292 q 295 277 290 282 q 304 269 300 273 q 313 260 309 264 q 317 243 316 248 q 320 237 319 239 q 323 234 321 235 q 330 229 326 233 q 338 222 335 227 q 344 212 341 218 q 349 201 347 207 q 357 193 352 196 q 379 190 370 191 q 395 182 388 190 q 426 158 412 168 q 455 141 440 149 q 486 129 469 134 q 522 121 502 124 l 557 111 q 586 116 575 111 q 608 121 597 121 q 627 114 618 121 q 647 106 636 106 q 662 112 656 106 q 676 121 667 118 q 685 122 677 121 q 694 124 692 123 q 703 127 696 124 q 711 134 709 131 q 741 139 734 137 q 749 142 747 142 q 752 145 749 142 q 758 150 755 147 q 764 156 761 153 q 768 161 766 159 q 777 164 770 161 q 790 172 783 168 q 804 182 797 177 q 816 189 811 186 q 821 194 819 191 q 825 201 822 197 q 846 222 836 215 q 867 243 856 229 q 875 251 870 245 q 882 260 880 257 q 885 269 882 262 q 890 277 887 276 q 907 287 899 284 q 924 290 915 290 q 932 286 928 290 q 938 276 936 281 q 942 264 941 271 q 943 254 943 258 q 937 230 943 240 q 924 210 931 219 q 909 190 916 200 q 899 168 902 180 q 890 160 897 165 q 878 149 884 155 q 867 137 872 143 q 860 129 861 132 q 833 101 845 109 q 810 85 821 94 q 803 73 805 79 q 792 63 800 66 q 771 53 783 58 q 745 45 759 49 q 707 27 724 32 q 671 16 690 22 l 644 1 q 595 -4 608 -1 q 578 -8 581 -8 q 549 -4 557 -7 q 538 -1 541 -1 l 496 -15 q 480 -14 489 -14 q 464 -12 472 -13 q 449 -9 456 -11 q 439 -5 442 -7 q 401 2 420 0 q 363 13 381 4 l 313 33 q 304 36 311 34 q 295 37 298 37 q 273 63 275 63 l 256 63 q 244 76 251 66 q 229 98 237 86 q 220 109 229 106 q 204 111 211 111 q 199 116 200 113 q 196 124 197 120 q 194 134 195 129 q 189 142 193 138 q 182 152 188 145 q 174 161 177 158 q 166 165 169 163 q 161 167 163 166 q 157 171 159 168 q 152 178 155 173 l 135 204 l 120 220 q 117 254 120 244 q 112 264 113 263 q 110 276 112 267 q 107 286 109 285 q 90 295 94 292 q 86 298 87 297 l 73 359 z "},"D":{"ha":1114,"x_min":63,"x_max":1058,"o":"m 71 41 q 81 56 71 52 q 105 64 90 61 q 136 71 119 67 q 168 81 153 74 q 192 102 182 89 q 201 140 201 116 l 197 162 q 199 170 197 167 q 205 176 202 173 q 212 182 209 178 q 214 191 214 185 l 209 238 l 212 265 q 214 279 214 269 q 207 317 214 301 q 201 349 201 333 q 201 360 201 358 q 214 413 210 386 q 219 466 219 441 q 214 481 219 477 l 209 604 q 201 629 206 616 q 197 657 197 643 q 197 661 197 659 q 201 672 198 663 q 199 736 201 705 q 193 802 196 768 l 195 823 q 191 827 195 823 q 183 834 188 830 q 176 842 179 838 q 172 848 172 846 q 174 854 174 852 q 175 860 175 857 q 174 867 175 863 q 172 874 174 871 q 163 882 172 878 q 142 890 155 886 q 116 899 130 895 q 91 907 102 903 q 71 915 79 911 q 63 921 63 918 q 68 937 63 930 q 82 947 74 943 q 100 952 90 951 q 119 954 110 954 q 152 946 135 947 q 184 945 168 945 q 259 949 225 945 q 315 956 286 952 q 368 963 344 959 q 390 970 382 968 q 399 972 397 972 q 411 972 407 972 q 418 970 416 971 l 488 970 q 496 969 491 969 q 505 969 501 969 q 514 969 510 969 q 523 970 519 969 q 600 960 563 970 q 675 939 636 950 q 685 937 676 939 q 703 933 693 935 q 722 929 713 931 q 733 928 731 928 q 738 925 734 928 q 747 919 742 922 q 755 913 751 916 q 760 910 759 910 l 792 906 q 794 904 792 906 q 800 899 797 902 q 805 895 802 897 q 809 892 808 892 q 850 870 828 878 q 894 848 872 862 q 942 797 916 823 q 992 744 968 771 q 994 741 993 743 q 996 734 995 739 q 1000 720 998 729 q 1006 697 1003 711 q 1009 686 1006 689 q 1013 680 1009 684 q 1020 671 1016 676 q 1029 663 1025 667 q 1035 657 1033 659 q 1038 633 1035 644 q 1044 613 1040 623 q 1050 595 1047 604 q 1053 577 1053 586 l 1050 538 l 1058 486 q 1055 446 1058 465 q 1046 409 1051 427 q 1036 372 1042 391 q 1027 333 1031 353 l 1027 307 q 1022 301 1027 307 q 1018 292 1018 295 q 1004 263 1012 277 q 988 234 996 249 q 972 205 980 220 q 958 174 964 190 l 901 123 l 862 101 q 857 98 857 101 q 820 61 842 77 q 772 45 798 45 l 736 48 q 722 44 730 48 q 706 37 713 39 q 698 36 704 37 q 685 34 692 35 q 673 32 679 33 q 666 31 667 31 q 655 28 664 31 q 635 24 646 26 q 612 19 623 22 q 593 15 600 16 q 572 8 585 8 q 560 10 568 8 q 538 15 553 12 q 534 14 538 15 q 526 12 530 13 q 517 9 522 10 q 509 8 512 8 q 497 12 505 9 q 487 15 490 15 q 428 9 456 11 q 370 8 399 8 q 313 9 340 8 q 256 15 285 11 q 226 19 238 18 q 196 20 214 20 l 119 5 q 102 7 111 5 q 87 13 94 9 q 76 24 80 18 q 71 41 71 31 m 346 217 q 366 156 346 185 q 417 105 387 127 q 481 71 447 83 q 544 58 516 58 q 610 66 581 58 q 670 92 640 74 q 686 100 679 97 q 700 106 693 103 q 714 113 707 109 q 730 123 721 117 q 778 161 754 141 q 821 208 801 182 l 825 225 q 831 245 827 237 q 840 262 836 254 q 849 278 845 270 q 857 298 854 287 q 858 302 857 298 q 859 311 859 307 q 861 320 860 316 q 862 325 862 324 q 873 350 867 337 q 884 375 879 362 q 893 401 890 388 q 897 429 897 415 q 893 443 894 439 q 892 450 892 446 q 893 458 892 453 q 894 463 894 463 q 890 484 892 469 q 887 515 888 498 q 884 547 885 532 q 882 568 882 562 q 874 587 876 576 q 873 608 873 598 q 873 623 873 616 q 874 635 874 629 q 858 655 863 643 q 850 680 853 667 q 845 706 848 692 q 834 730 842 719 q 831 734 833 731 q 825 741 828 737 q 819 747 821 745 q 815 751 816 750 l 804 766 l 766 805 q 737 837 750 820 q 706 866 724 854 q 681 879 693 875 q 657 886 669 882 q 632 895 645 889 q 605 914 619 901 q 579 925 597 921 q 541 931 561 929 q 502 935 520 934 q 474 935 483 935 q 407 931 443 935 q 341 914 370 926 q 332 901 336 911 q 326 878 328 891 q 322 849 323 864 q 321 823 321 834 l 321 802 q 328 756 321 778 q 334 707 334 734 q 333 698 334 704 q 330 691 331 692 q 327 663 328 677 q 326 635 326 648 q 327 611 326 623 q 330 589 328 600 q 335 566 334 575 q 336 548 336 557 q 336 532 336 539 q 334 513 336 524 l 336 496 l 334 484 q 330 474 331 478 q 330 463 330 469 l 330 452 q 332 389 330 421 q 338 325 334 356 q 346 288 340 307 q 352 252 352 270 l 346 217 z "},"E":{"ha":962,"x_min":35,"x_max":922,"o":"m 35 40 q 45 61 35 53 q 69 74 55 69 q 97 81 83 79 q 121 83 111 83 l 176 83 q 191 91 182 85 q 210 105 201 97 q 226 124 219 114 q 235 144 233 135 q 237 175 237 159 q 235 202 237 188 l 244 217 q 231 286 235 252 q 228 354 228 321 q 229 371 228 361 q 232 392 230 381 q 235 412 233 402 q 239 429 237 422 q 241 434 240 431 q 244 441 244 439 q 249 450 246 446 q 252 457 250 453 q 254 463 254 460 q 248 472 254 468 q 239 476 243 476 q 242 521 241 498 q 243 566 243 544 q 242 611 243 589 q 239 656 241 633 q 235 670 236 665 q 235 682 235 674 l 239 722 l 235 794 q 228 812 235 802 q 211 832 220 823 q 192 847 201 841 q 176 855 182 854 l 127 855 l 121 858 q 117 860 119 859 q 114 861 115 861 q 93 866 104 864 q 71 871 81 867 q 54 883 60 876 q 47 906 47 891 q 50 925 47 918 q 60 934 54 931 q 76 938 66 937 q 96 939 85 939 q 132 937 115 939 q 161 927 149 936 q 168 928 164 928 q 174 929 171 929 l 186 929 q 254 924 219 929 q 318 916 289 919 l 357 909 q 375 912 366 909 q 394 919 384 916 q 413 926 404 923 q 432 929 422 929 q 444 926 439 929 q 458 922 448 922 q 465 926 462 922 q 475 929 468 929 q 486 928 482 929 q 493 922 490 928 l 519 922 q 549 927 534 922 q 581 932 565 932 q 595 931 590 932 q 611 922 601 930 l 733 916 q 749 914 742 916 q 764 912 756 913 q 777 909 771 911 q 785 909 780 909 q 793 906 789 908 q 801 901 798 904 q 804 892 804 897 q 808 872 806 886 q 811 842 810 858 q 814 813 813 827 q 815 794 815 800 q 821 747 819 771 q 823 701 823 724 l 812 701 q 787 724 797 701 q 779 735 781 732 q 774 741 776 738 q 755 769 765 754 q 737 798 745 785 q 723 823 729 812 q 715 839 717 834 q 698 844 707 842 q 681 847 689 846 q 666 852 673 849 q 654 863 659 855 q 633 873 649 873 q 627 871 627 873 q 618 870 623 871 q 608 869 613 869 q 585 870 596 869 q 566 871 573 871 q 559 873 561 871 q 555 874 558 874 q 552 875 553 874 q 550 876 551 876 q 520 879 535 878 q 490 880 505 880 q 461 879 475 880 q 432 876 447 878 q 421 871 427 875 q 409 861 415 867 q 399 849 404 855 q 393 838 394 843 q 386 786 387 814 q 385 726 385 757 l 385 656 q 377 641 378 648 q 376 622 376 633 l 376 598 q 377 566 376 582 q 382 536 378 551 q 394 507 386 521 q 415 480 401 493 l 524 476 q 549 481 537 476 q 557 483 553 482 q 567 484 562 484 l 593 484 q 614 490 605 484 q 627 495 620 492 q 641 504 634 499 q 654 514 648 509 q 664 524 661 519 q 673 550 668 532 q 685 587 678 568 q 699 619 691 605 q 717 633 707 633 q 733 621 726 633 l 733 558 q 731 543 733 549 q 725 524 730 536 l 717 513 l 720 490 q 722 474 720 488 q 724 444 723 461 q 727 409 726 427 q 728 379 728 391 l 725 354 q 729 334 725 342 q 733 319 733 326 q 727 289 733 302 q 703 276 720 276 q 689 279 694 276 q 682 287 684 282 q 679 297 680 291 q 678 309 678 302 q 678 317 678 313 q 677 325 678 321 l 658 358 l 658 379 q 642 396 657 388 q 605 411 627 404 q 556 423 583 418 q 504 433 529 429 q 457 439 478 437 q 427 441 437 441 q 406 433 415 441 q 390 414 397 425 q 380 390 384 403 q 376 368 377 378 l 376 315 l 385 210 l 385 151 q 397 120 386 136 q 424 92 408 104 q 457 71 439 79 q 489 61 475 62 l 537 58 l 550 53 l 593 53 q 623 53 610 53 q 650 54 637 53 q 678 55 664 54 q 711 58 692 56 l 765 79 q 791 100 776 86 q 822 131 807 115 q 850 162 838 146 q 869 188 863 178 q 876 198 873 190 q 884 217 880 207 q 894 234 888 227 q 908 241 900 241 q 919 235 916 241 q 922 223 922 229 l 910 180 q 890 109 900 145 q 878 35 881 73 q 842 9 863 14 q 797 5 820 5 q 782 5 789 5 q 768 3 774 5 l 754 0 q 743 1 747 0 q 736 4 739 3 q 729 7 732 5 q 720 8 726 8 l 677 3 l 654 8 l 550 0 q 451 4 500 0 q 349 8 401 8 l 262 0 l 201 3 q 177 1 189 3 q 155 -5 165 -2 q 134 -12 144 -9 q 114 -14 123 -14 q 89 -11 102 -14 q 63 -1 75 -7 q 43 16 52 6 q 35 40 35 26 z "},"F":{"ha":882,"x_min":28,"x_max":853,"o":"m 764 819 l 731 854 q 700 878 714 869 q 671 893 685 888 q 642 901 656 899 q 610 903 627 903 q 602 902 604 903 q 573 902 584 902 q 557 902 563 902 q 550 902 552 902 q 549 901 549 901 l 496 901 q 473 897 485 898 q 449 897 460 897 q 410 896 423 897 q 389 890 397 895 q 380 883 381 888 q 378 876 378 879 q 375 855 378 861 q 359 841 371 848 q 356 834 357 840 q 354 822 355 829 q 353 808 353 815 q 353 798 353 802 q 357 768 353 782 q 362 736 362 753 l 356 693 q 363 662 356 677 q 370 628 370 646 l 359 527 q 365 513 359 521 q 374 501 370 505 q 416 493 395 498 q 459 488 438 488 q 468 489 464 488 q 475 498 471 490 q 493 499 482 498 q 517 500 503 500 q 556 500 535 500 q 597 502 577 500 q 635 508 618 504 q 661 519 652 511 q 676 536 671 525 q 684 561 681 548 q 688 588 686 574 q 694 613 690 602 q 705 631 698 624 q 726 638 712 638 q 733 637 730 638 q 741 628 737 635 l 741 600 q 734 537 741 567 q 727 494 730 513 q 724 455 724 475 q 729 422 724 438 q 740 391 734 406 q 751 360 746 376 q 756 328 756 345 q 756 313 756 318 q 753 307 755 308 q 748 298 749 301 q 741 296 747 296 q 725 303 730 296 q 713 318 720 311 l 703 339 q 689 370 696 355 q 673 398 682 385 q 652 424 664 412 q 623 445 640 435 l 593 445 q 544 446 569 445 q 500 450 519 447 l 459 458 q 421 452 441 458 q 382 445 400 446 q 368 426 376 437 q 359 402 359 415 q 378 303 370 352 q 385 206 385 255 q 384 175 385 183 q 382 163 383 168 q 397 134 387 146 q 420 112 407 121 q 447 94 433 102 q 475 79 461 85 q 479 75 475 79 q 483 69 483 71 q 495 67 486 68 q 507 66 505 66 q 516 66 513 66 q 525 67 520 66 q 534 68 530 68 q 543 68 538 68 q 553 68 547 68 q 562 67 558 68 q 571 66 567 66 q 580 66 576 66 q 588 59 583 62 q 598 51 593 56 q 605 41 602 46 q 608 28 608 35 q 605 13 608 21 q 596 -2 602 5 q 583 -13 590 -9 q 570 -18 576 -18 l 568 -18 q 552 -19 561 -19 q 536 -20 543 -20 q 518 -19 526 -20 q 496 -18 509 -19 l 483 -14 q 457 -3 471 -8 q 428 5 443 1 q 397 10 412 8 q 369 12 382 12 q 345 11 355 12 q 317 5 334 9 q 285 1 302 2 q 253 0 269 0 q 220 1 235 0 q 187 5 205 2 q 172 -4 179 2 q 153 -13 165 -10 q 145 -11 149 -12 q 136 -9 141 -9 q 126 -11 133 -11 l 100 -11 q 75 0 85 -5 q 60 21 65 5 q 83 58 60 43 q 125 66 99 59 q 176 86 151 74 q 218 115 200 98 q 236 153 236 132 q 234 215 236 189 q 230 265 233 241 q 226 316 228 290 q 224 381 224 343 q 227 404 224 393 q 232 426 229 415 q 236 449 234 437 q 239 471 239 460 q 238 477 239 473 q 238 484 238 480 q 238 491 238 488 q 237 494 237 494 l 229 524 l 229 576 q 227 599 229 587 q 221 622 224 610 q 215 645 218 633 q 213 667 213 656 q 214 676 213 669 q 216 685 215 682 q 221 712 219 699 q 222 741 222 726 q 221 767 222 754 q 216 794 220 781 q 211 818 216 806 q 196 841 205 830 q 176 860 186 852 q 155 873 165 869 q 122 879 143 878 q 80 884 101 880 q 44 897 59 888 q 28 927 28 906 l 28 937 q 55 950 39 943 q 83 956 71 956 l 99 956 q 118 954 109 956 q 133 945 127 952 q 156 941 144 943 q 179 940 168 940 q 201 941 189 940 q 226 945 214 943 q 231 951 229 950 q 237 951 233 951 q 265 946 252 951 q 296 941 279 941 l 311 941 q 327 941 319 941 q 345 945 335 941 q 398 941 369 941 q 453 945 425 941 q 506 954 478 954 q 565 956 534 954 q 594 959 581 958 q 623 960 608 960 q 644 959 633 960 q 666 956 654 958 q 673 952 669 955 q 682 945 677 949 q 690 940 686 942 q 696 937 694 937 q 707 939 703 937 q 718 945 711 941 q 741 948 729 947 q 764 949 752 949 q 806 945 785 949 q 813 940 808 945 q 824 931 818 936 q 834 921 829 926 q 840 916 839 917 l 840 819 q 853 752 853 786 q 853 735 853 744 q 850 720 852 727 q 842 707 848 712 q 827 703 837 703 q 818 714 823 707 q 807 728 812 721 q 796 742 801 735 q 787 754 791 749 q 785 762 787 755 q 779 775 782 768 q 772 789 775 783 q 768 798 769 795 q 765 808 766 799 q 764 819 764 818 z "},"G":{"ha":1105,"x_min":61,"x_max":1093,"o":"m 74 345 q 76 355 74 351 q 79 367 79 358 q 75 376 79 374 q 64 385 72 379 q 62 410 62 397 l 62 460 q 63 473 62 467 q 64 486 63 478 q 70 495 69 492 q 71 501 71 498 l 61 532 l 71 572 q 67 588 71 581 q 64 602 64 595 q 67 611 64 607 q 74 619 71 615 q 82 627 78 623 q 87 637 85 631 l 93 659 q 124 722 102 694 q 176 777 146 750 q 188 805 176 791 q 215 834 199 820 q 253 862 232 848 q 294 887 273 876 q 333 908 315 899 q 363 922 351 917 q 395 931 379 928 q 429 942 412 935 q 453 945 435 943 q 491 950 471 947 q 529 955 511 953 q 555 958 547 957 q 572 957 564 958 q 588 956 580 956 l 654 956 q 672 956 663 956 q 689 955 681 956 q 712 944 697 950 q 744 934 727 939 q 777 926 761 929 q 804 922 793 922 q 826 929 818 922 q 841 943 834 935 q 854 958 847 951 q 873 964 861 964 q 888 960 882 964 q 898 949 894 956 q 903 935 901 942 q 905 922 905 928 l 908 850 q 912 841 911 845 q 914 833 914 836 q 916 817 914 821 q 918 803 916 812 q 922 784 920 793 q 925 768 924 775 q 927 760 927 761 q 931 742 928 749 q 937 727 934 734 q 942 713 940 720 q 945 694 945 705 q 942 689 945 692 q 936 684 939 686 q 928 679 932 681 q 922 677 924 677 q 891 687 906 677 q 864 713 876 698 q 842 746 852 729 q 826 777 832 763 l 821 785 l 818 802 l 795 823 q 790 830 793 825 q 782 840 786 834 q 774 851 778 846 q 767 860 770 857 q 747 877 760 871 q 721 886 735 882 q 693 892 707 889 q 667 900 679 895 q 651 909 658 905 q 637 916 644 913 q 622 921 630 919 q 602 922 614 922 q 571 914 586 922 q 541 903 557 906 l 493 900 q 434 879 462 895 q 381 842 406 863 q 334 796 357 821 q 292 749 312 772 q 285 729 286 741 q 280 705 283 717 q 265 675 275 690 q 247 644 256 660 q 230 612 237 628 q 223 580 223 596 q 224 567 223 576 q 226 546 225 558 q 227 520 227 534 q 228 494 228 507 l 227 471 l 237 454 l 237 416 q 245 346 240 380 q 269 279 251 312 q 286 256 276 266 q 304 235 295 245 q 323 214 314 225 q 341 190 333 203 q 352 183 345 184 q 367 176 360 182 q 444 103 399 128 q 541 64 488 79 q 564 57 555 62 q 585 53 573 53 q 597 55 590 53 l 606 58 q 619 58 610 58 q 638 60 628 59 q 659 62 649 61 q 673 64 669 64 q 683 70 674 64 q 704 83 691 75 q 730 101 716 92 q 757 120 745 111 q 779 135 770 128 q 789 143 787 142 l 789 164 l 786 204 q 788 231 786 218 q 789 252 789 243 l 789 267 l 783 279 l 783 313 q 775 333 781 326 q 763 348 770 341 q 750 361 755 355 q 743 378 744 368 l 743 399 l 739 418 q 748 427 741 424 q 765 433 755 431 q 786 435 774 435 q 807 435 798 435 l 829 435 l 879 427 q 909 429 895 427 q 934 434 923 431 l 937 435 l 1061 435 q 1068 434 1063 435 q 1079 430 1074 433 q 1088 423 1084 427 q 1093 414 1093 419 q 1079 392 1093 400 q 1049 379 1066 384 q 1015 371 1031 374 q 991 363 998 368 l 951 313 q 958 298 954 307 q 961 279 961 289 l 951 204 q 956 188 951 193 q 961 176 961 182 q 959 142 961 160 q 950 109 956 125 q 933 81 944 93 q 905 64 922 68 l 868 61 q 846 53 859 60 q 820 38 833 47 q 795 21 807 30 q 774 8 783 13 q 758 3 766 3 q 743 2 749 2 l 718 2 q 693 1 704 2 q 667 -7 682 -1 l 555 -7 q 492 0 525 0 q 460 1 476 0 q 429 2 445 1 q 417 5 422 2 q 409 12 413 8 q 402 19 406 16 q 393 24 398 23 q 384 30 391 26 q 367 35 376 33 q 350 40 358 38 q 341 42 342 42 l 298 64 q 284 67 294 64 q 270 71 275 71 q 244 87 260 73 q 211 119 229 101 q 179 154 194 136 q 159 180 165 172 q 153 190 159 182 q 143 201 146 198 l 136 218 q 130 224 135 220 q 120 231 125 227 q 112 239 115 235 q 108 244 108 242 l 101 288 q 95 301 99 294 q 86 315 90 308 q 78 329 81 321 q 74 345 74 336 z "},"H":{"ha":1191,"x_min":50,"x_max":1144,"o":"m 71 5 l 62 5 q 50 18 50 7 q 52 38 50 30 q 68 52 54 45 q 95 60 80 57 q 125 67 110 64 q 153 75 140 71 q 175 87 166 79 q 187 100 182 92 q 196 118 192 109 q 202 136 199 127 q 208 153 205 145 l 215 315 l 208 354 q 210 364 208 357 q 213 376 212 371 q 209 429 210 401 q 208 484 208 456 q 209 534 208 509 q 213 585 210 559 l 212 600 q 209 618 212 602 q 204 653 207 633 q 200 692 202 672 q 197 723 197 711 l 194 744 l 197 781 q 197 811 197 795 q 194 836 197 826 q 179 859 190 850 q 154 872 168 867 q 124 879 140 877 q 96 885 109 882 q 75 892 83 888 q 67 905 67 897 q 70 913 67 912 q 79 919 73 914 l 85 921 q 146 926 115 924 q 208 928 178 928 q 228 926 218 928 q 247 924 237 925 q 267 921 256 922 q 290 920 277 920 l 430 928 l 484 928 q 496 918 496 922 q 492 907 496 911 q 482 901 488 903 q 470 897 476 898 q 459 895 463 895 l 429 895 q 415 895 421 895 q 403 889 408 894 q 364 864 381 878 q 326 836 347 850 q 319 833 319 836 q 331 805 328 819 q 334 777 334 791 q 330 755 334 766 q 322 734 326 745 l 319 724 q 321 701 319 711 q 325 682 323 691 q 331 662 328 672 q 337 640 334 652 l 337 572 l 339 549 q 339 542 339 548 q 337 530 338 535 q 345 513 337 523 q 359 498 352 503 l 377 498 q 401 500 391 498 q 425 506 412 503 l 458 506 l 583 498 l 631 502 q 652 496 644 502 q 670 490 661 490 q 697 494 684 490 q 721 498 709 498 l 787 490 l 817 493 q 828 498 821 494 q 839 506 836 503 q 842 507 839 506 l 844 509 q 848 533 846 519 q 852 561 850 547 q 855 590 854 576 q 856 615 856 604 q 852 636 856 625 q 848 659 848 648 q 852 687 848 673 q 861 714 856 701 q 869 740 865 727 q 873 765 873 752 q 856 822 873 800 q 811 863 838 844 q 795 869 806 867 q 768 872 783 871 q 738 874 753 873 q 708 878 722 875 q 686 885 695 880 q 677 900 677 890 q 682 916 677 910 q 693 925 687 921 q 707 931 700 928 q 721 939 715 934 l 760 939 l 1025 920 l 1038 920 q 1046 921 1046 920 l 1065 928 l 1126 928 q 1139 922 1134 928 q 1144 908 1144 916 q 1135 891 1144 897 q 1114 883 1126 886 q 1088 879 1101 880 q 1068 876 1076 878 q 1036 859 1049 873 q 1008 827 1022 846 q 1001 764 1006 795 q 988 701 996 733 q 983 690 987 698 q 980 680 980 682 l 983 625 l 980 568 q 982 557 980 565 q 983 549 983 550 l 980 529 q 982 521 980 525 q 983 509 983 517 l 974 444 l 988 397 l 972 338 l 980 309 q 976 290 980 299 q 972 267 972 280 l 983 223 q 978 202 983 212 q 972 178 972 193 q 1021 71 972 97 q 1056 61 1035 62 q 1094 60 1077 60 q 1105 59 1100 60 q 1115 58 1109 58 q 1132 44 1129 55 q 1135 24 1135 34 q 1127 12 1134 17 q 1116 5 1120 7 q 1052 -5 1085 -3 q 983 -7 1019 -7 l 958 -7 q 946 -7 951 -7 q 935 -6 940 -7 l 851 5 l 774 -2 l 750 -6 l 702 -6 q 683 2 691 -6 q 675 14 675 9 q 679 34 675 26 q 690 45 683 41 q 706 50 698 49 q 722 52 714 52 l 739 52 q 749 57 747 53 q 756 66 751 61 q 780 79 766 73 q 806 92 793 85 q 826 109 818 99 q 835 134 835 118 l 830 176 q 833 226 830 201 q 839 275 836 251 q 844 288 840 282 q 848 300 848 294 q 847 309 848 305 q 844 318 847 313 l 844 413 q 834 432 844 423 q 812 446 825 440 q 786 455 800 452 q 763 458 772 458 q 752 456 758 458 q 742 451 747 454 q 731 446 736 448 q 718 444 725 444 l 667 453 q 653 450 659 453 q 640 442 647 446 q 625 434 633 437 q 604 431 616 431 q 582 437 591 434 q 562 441 572 439 q 543 444 553 443 q 519 445 532 445 l 496 445 q 484 444 489 445 q 478 444 479 444 q 459 439 469 441 q 437 437 449 437 q 426 439 433 438 q 412 441 419 440 q 400 443 406 442 q 395 444 395 444 l 376 458 q 362 452 370 458 q 353 444 355 446 q 338 433 344 437 q 330 422 333 428 q 327 409 328 416 q 326 391 326 401 q 327 353 326 373 q 334 315 329 332 q 335 309 334 313 q 337 300 336 305 q 338 292 338 296 q 339 286 339 288 q 340 280 340 286 q 339 267 340 273 q 337 251 337 260 l 340 212 q 339 209 340 210 l 334 193 q 335 186 334 189 q 337 178 336 180 q 340 164 340 172 q 340 150 340 157 l 340 134 q 343 105 340 119 q 359 81 345 92 q 369 77 362 79 q 383 72 376 75 q 398 68 391 70 q 408 66 405 66 l 422 66 l 487 69 q 527 34 524 69 l 527 33 q 524 20 527 26 q 515 7 522 13 q 497 -2 508 1 q 470 -6 486 -6 q 450 -1 456 -5 q 435 5 444 2 q 398 9 421 9 l 384 9 q 378 9 381 9 q 371 7 374 8 q 365 5 368 6 q 359 5 362 5 l 294 8 l 242 8 q 232 8 239 8 q 218 7 225 7 q 205 6 211 6 q 197 5 199 5 l 183 -6 q 125 -2 153 -6 q 98 3 111 1 q 71 5 85 5 z "},"I":{"ha":597,"x_min":46,"x_max":557,"o":"m 290 18 q 270 15 280 18 q 250 10 260 13 q 230 4 240 7 q 208 2 219 2 l 177 6 q 158 4 167 6 q 141 2 150 2 l 92 2 q 81 3 85 2 q 72 5 76 3 q 46 37 46 10 q 48 51 46 45 q 61 62 50 56 q 90 69 73 67 q 125 73 107 71 q 160 77 144 75 q 186 85 177 79 q 196 96 191 87 q 207 116 202 105 q 216 136 212 126 q 220 149 220 145 l 212 204 l 227 237 l 212 265 l 227 421 l 222 492 q 218 507 218 495 q 220 525 218 517 q 224 537 222 532 q 228 547 227 543 q 230 558 230 552 q 224 592 230 576 q 218 627 218 608 l 227 675 q 226 691 227 682 q 224 711 226 701 q 220 730 223 721 q 212 745 217 739 q 213 753 212 748 q 215 770 215 759 q 213 786 215 779 q 212 795 212 793 q 210 804 212 799 q 208 808 209 808 l 164 848 q 137 852 156 848 q 97 863 117 857 q 62 879 77 870 q 46 899 46 888 q 58 924 46 918 q 85 930 71 930 q 95 930 90 930 q 104 928 100 929 q 161 923 133 926 q 217 920 189 920 q 260 923 239 920 q 304 928 282 926 q 330 933 313 931 q 366 936 347 935 q 402 938 385 937 q 431 940 420 939 q 474 948 452 943 q 517 954 496 954 q 545 947 532 954 q 557 921 557 941 q 553 913 557 917 q 543 907 549 910 q 532 902 537 904 q 527 897 528 899 q 519 889 525 895 q 507 879 513 884 q 494 869 500 873 q 485 863 488 864 q 455 859 475 863 q 417 849 436 856 q 384 831 398 842 q 370 808 370 821 l 370 709 q 371 704 370 708 q 373 694 372 700 q 375 683 374 689 q 377 675 376 677 q 384 662 384 670 q 368 622 373 642 q 363 581 363 601 l 370 530 l 366 489 q 369 470 366 479 q 374 451 371 460 q 379 431 376 441 q 381 410 381 421 q 379 392 381 401 q 374 374 376 382 q 369 357 371 366 q 366 339 366 348 q 368 323 366 330 q 373 305 369 316 l 373 222 q 370 211 370 214 q 370 201 370 207 q 375 155 370 175 q 391 111 380 134 q 397 104 391 109 q 413 94 404 99 q 429 85 421 89 q 437 81 436 81 q 460 84 452 81 q 479 87 469 87 q 502 85 487 87 q 529 76 517 83 q 541 64 536 71 q 547 50 547 58 q 544 30 547 40 q 535 16 541 20 q 514 8 527 8 q 500 7 508 8 q 487 6 493 7 l 460 0 q 429 0 446 0 q 396 1 412 1 q 363 3 379 2 q 334 6 347 5 q 327 8 332 6 q 315 12 321 9 q 302 15 308 14 q 294 16 296 16 q 292 17 293 16 q 291 17 292 17 q 290 18 290 18 z "},"J":{"ha":564,"x_min":-130,"x_max":539,"o":"m 50 -391 l 38 -391 q 20 -393 28 -392 q 3 -393 11 -393 q -28 -392 -8 -391 q -68 -382 -47 -392 q -98 -356 -85 -373 q -130 -320 -110 -339 q -127 -294 -130 -311 q -118 -260 -124 -277 q -103 -231 -112 -243 q -81 -216 -94 -218 q -51 -212 -65 -212 q -28 -216 -39 -212 q -15 -221 -22 -216 q -2 -235 -8 -227 q 7 -253 3 -243 q 11 -269 11 -262 q 10 -272 11 -269 q 8 -277 9 -274 q 6 -285 7 -281 q 8 -295 7 -288 q 12 -304 9 -301 q 20 -316 18 -310 q 22 -328 22 -323 q 19 -347 20 -343 q 16 -352 18 -351 l 65 -354 q 102 -347 88 -354 q 131 -328 117 -339 q 158 -304 145 -317 q 181 -276 171 -291 q 197 -246 191 -262 l 197 -199 q 202 -191 197 -198 q 208 -182 207 -183 l 200 -146 l 212 -93 l 207 -64 l 215 15 q 215 27 215 22 q 212 43 214 33 q 210 73 210 58 l 210 135 q 210 150 210 143 q 212 167 210 157 q 215 177 214 171 q 217 190 216 183 q 219 203 218 197 q 219 214 219 210 q 213 233 219 225 q 207 252 207 241 q 211 268 207 261 q 215 285 215 275 l 207 331 l 215 376 q 210 400 210 396 l 221 444 l 212 578 q 212 588 212 581 q 213 602 212 595 q 214 615 214 609 q 215 622 215 621 l 221 638 q 214 661 216 654 q 212 669 212 667 l 212 722 l 200 747 q 202 760 200 754 q 206 771 203 766 q 210 781 208 776 q 212 791 212 785 q 208 803 212 799 q 200 811 204 807 q 192 824 196 816 q 189 850 189 832 l 189 866 q 177 871 182 867 q 168 880 172 875 q 158 889 163 884 q 146 895 153 893 q 121 901 138 897 q 86 910 104 905 q 55 923 68 916 q 41 939 41 930 q 44 949 41 943 q 52 963 47 956 q 62 974 57 969 q 71 979 67 979 l 168 970 q 173 972 170 970 q 180 975 176 974 l 248 960 q 259 962 256 960 q 271 964 263 964 l 332 960 l 477 969 l 522 969 q 533 956 528 962 q 539 942 539 951 q 535 936 539 940 q 525 928 530 932 q 514 921 519 924 q 506 915 508 917 l 433 915 q 424 906 428 909 q 416 901 420 903 q 407 898 412 899 q 395 892 401 896 q 374 870 381 883 q 363 844 367 858 q 359 815 359 830 q 358 787 358 801 l 358 768 l 372 753 q 370 739 372 746 q 363 726 367 732 q 357 712 360 720 q 355 696 355 705 l 359 659 l 345 566 q 347 549 345 558 q 350 531 348 541 q 353 514 351 522 q 355 502 355 507 q 357 489 357 495 q 358 479 358 483 q 357 469 358 473 q 355 463 356 465 l 345 412 q 354 398 353 403 q 356 384 356 393 q 354 375 356 381 q 340 351 351 370 q 346 342 340 350 q 351 332 351 335 q 352 327 352 331 q 353 317 353 322 q 354 308 354 313 q 355 302 355 304 q 353 287 355 298 q 349 264 352 276 q 346 239 347 250 q 345 225 345 227 q 348 211 345 214 q 351 203 351 208 q 346 189 351 194 q 340 172 340 183 q 346 151 340 161 q 351 127 351 141 l 340 90 l 345 64 q 342 44 345 53 q 337 24 338 35 q 334 4 336 18 q 330 -25 332 -10 q 326 -54 328 -40 q 322 -73 323 -67 q 316 -83 317 -79 q 315 -94 315 -87 q 315 -114 315 -110 q 314 -119 315 -118 l 298 -167 q 295 -210 296 -189 q 283 -250 294 -232 q 264 -277 275 -265 q 243 -307 252 -290 l 193 -360 q 177 -368 189 -363 q 153 -377 166 -372 q 130 -385 140 -381 q 118 -391 120 -389 l 62 -394 q 50 -391 53 -394 z "},"K":{"ha":1003,"x_min":58,"x_max":1016,"o":"m 918 -7 q 912 -7 917 -7 q 900 -9 907 -8 q 888 -10 894 -9 q 878 -11 882 -11 q 859 -7 871 -11 q 831 1 846 -4 q 803 11 816 5 q 783 19 789 16 l 759 47 q 756 53 758 49 q 748 60 755 56 q 731 75 741 68 q 720 87 722 82 q 710 100 713 94 q 704 111 707 106 q 699 122 702 117 q 690 134 696 127 l 651 174 l 635 199 q 624 218 632 209 q 605 234 615 227 q 583 250 594 242 q 563 264 572 257 q 541 288 549 273 q 528 315 534 302 q 512 329 522 323 q 493 342 503 336 q 477 358 484 349 q 468 379 470 366 l 404 440 q 394 446 401 444 q 379 450 387 448 q 362 452 370 452 q 348 453 353 453 q 336 449 342 453 q 327 440 331 446 q 320 428 322 435 q 317 416 317 422 q 321 395 317 406 q 327 374 326 384 q 330 328 328 353 q 332 280 332 304 l 323 254 l 327 235 l 332 196 l 340 174 l 332 136 q 337 108 332 118 q 351 92 342 98 q 371 85 359 87 q 395 81 382 83 l 409 81 q 419 78 412 81 q 433 72 426 75 q 446 64 441 68 q 452 58 452 60 q 461 48 456 51 q 468 43 465 45 q 473 40 471 41 q 475 34 475 38 q 433 -7 475 -7 q 401 -3 417 -7 q 370 6 386 1 q 338 15 354 11 q 306 19 322 19 q 260 14 283 19 q 212 8 238 8 l 177 12 l 125 8 q 119 9 123 8 q 111 12 115 10 q 104 15 107 14 q 100 19 100 17 q 117 48 104 41 q 149 56 131 55 q 168 72 158 64 q 184 87 177 79 q 196 105 191 96 q 200 128 200 115 q 200 150 200 144 q 198 159 199 155 l 201 203 l 212 224 q 207 246 209 235 q 205 267 205 257 l 205 267 q 205 274 205 270 q 207 282 206 278 q 208 289 208 286 q 210 292 209 292 q 210 294 210 293 q 211 296 210 295 q 212 299 212 297 l 210 315 l 210 382 q 199 410 203 397 q 195 437 195 424 q 197 444 195 444 l 200 458 q 197 480 198 472 q 196 494 197 489 q 195 502 195 499 q 195 508 195 505 l 205 541 q 203 546 205 544 q 200 549 201 548 l 199 576 l 205 625 q 202 643 205 635 q 199 659 199 652 l 205 677 q 198 727 199 707 q 197 765 197 747 q 192 785 197 772 q 181 810 188 798 q 165 833 174 823 q 149 842 157 842 q 134 842 140 842 q 121 844 128 842 q 102 851 113 848 q 82 859 92 854 q 65 870 72 863 q 58 889 58 878 q 60 902 58 897 q 69 909 61 907 l 84 909 l 146 906 l 204 908 q 217 907 210 908 q 231 902 224 907 q 246 899 238 899 q 261 899 254 899 q 291 902 275 899 l 322 913 q 329 914 326 914 q 336 914 333 914 l 353 914 q 371 913 362 914 q 388 909 379 913 l 415 902 q 419 893 418 901 q 420 882 420 885 q 411 866 420 873 q 389 852 401 859 q 365 841 377 846 q 348 833 353 836 q 340 815 344 827 q 332 787 336 802 q 326 759 328 772 q 323 738 323 745 q 325 732 323 734 q 327 722 327 729 l 313 691 q 314 684 313 686 q 318 682 316 682 q 322 680 320 681 q 327 675 325 679 l 327 659 q 322 638 327 648 q 317 618 317 627 q 320 609 317 616 q 323 602 323 603 l 323 549 q 320 546 322 548 q 317 541 317 544 q 321 536 317 538 q 332 534 326 534 q 341 537 338 534 q 348 544 345 540 q 354 554 351 549 q 362 562 357 559 q 386 576 373 570 q 411 588 398 582 q 436 602 424 594 q 457 618 448 609 q 478 651 471 632 q 491 685 484 669 q 499 692 494 690 q 510 696 505 694 q 522 701 516 699 q 532 707 528 703 q 550 727 537 712 q 575 760 562 742 q 598 794 588 778 q 608 819 608 811 q 604 825 608 819 q 597 837 601 830 q 589 849 593 843 q 584 855 585 854 l 572 854 q 555 856 564 854 q 539 861 546 857 q 527 871 532 865 q 523 886 523 877 q 526 899 523 892 q 535 911 530 905 q 548 921 541 917 q 560 924 554 924 l 574 920 l 635 915 q 664 921 642 918 q 713 925 686 923 q 764 927 739 926 q 798 928 788 928 q 813 926 802 928 q 837 922 825 925 q 858 912 848 918 q 867 897 867 907 q 859 885 865 887 q 842 876 852 882 q 820 864 832 871 q 796 852 808 858 q 774 844 784 847 q 759 840 764 840 q 747 833 750 834 q 743 832 743 832 l 722 823 q 704 814 714 823 q 684 794 694 806 q 667 772 675 783 q 654 754 659 760 l 644 744 q 594 695 614 721 q 549 640 574 669 l 539 631 l 519 628 q 504 615 511 623 q 492 601 498 608 q 481 586 486 593 q 468 574 475 579 q 465 570 465 574 q 466 563 465 568 q 468 556 467 557 l 468 527 q 484 520 473 527 q 508 503 495 513 q 535 480 522 492 q 562 455 549 467 q 583 433 574 443 q 595 418 592 422 q 602 410 597 416 q 606 400 606 403 q 621 380 612 389 q 640 365 630 372 q 660 348 650 357 q 677 325 669 338 q 682 321 678 321 q 689 321 684 321 q 699 319 694 321 q 710 312 705 317 q 720 299 715 307 q 727 283 723 292 q 735 269 730 275 q 746 257 740 262 q 762 252 753 252 q 779 235 769 244 q 799 217 789 227 q 820 199 810 208 q 838 180 830 189 q 842 176 838 180 q 846 170 846 172 q 868 146 855 157 q 894 127 881 136 q 919 106 907 117 q 939 81 931 96 q 955 71 943 73 q 981 65 968 68 q 1005 55 995 62 q 1016 28 1016 47 q 1011 7 1016 16 q 999 -7 1006 -2 q 981 -15 991 -13 q 960 -18 970 -18 q 947 -16 952 -18 q 937 -12 941 -14 q 928 -8 932 -10 q 918 -7 924 -7 z "},"L":{"ha":988,"x_min":26,"x_max":986,"o":"m 26 34 q 32 57 26 45 q 47 69 37 69 l 104 74 q 137 80 121 77 q 169 87 153 83 q 197 99 184 92 q 222 121 211 106 q 227 130 225 125 q 229 140 229 134 q 234 159 229 151 q 234 190 234 176 q 231 222 233 204 q 229 235 229 230 q 229 244 229 241 q 230 259 229 255 q 234 275 231 264 q 233 308 234 294 q 233 333 233 321 q 240 380 233 356 l 234 481 q 232 492 233 484 q 231 503 231 500 q 237 521 234 511 q 240 542 240 530 q 238 580 238 562 q 234 618 237 598 q 229 627 233 624 q 226 637 226 631 q 229 647 226 644 q 234 654 233 650 l 234 686 q 234 719 234 701 q 232 755 233 736 q 226 794 230 774 q 214 831 222 813 q 205 838 211 833 q 193 847 199 842 q 183 855 187 852 q 178 859 178 859 q 160 867 172 863 q 136 874 149 871 q 108 882 122 878 q 83 892 94 886 q 64 906 71 898 q 57 924 57 913 q 62 931 57 928 q 73 936 66 934 q 86 938 80 937 q 96 939 92 939 q 108 937 104 937 q 115 937 112 937 q 121 939 120 937 q 169 941 144 940 q 218 942 193 942 q 262 941 241 942 q 309 939 283 940 q 316 934 312 935 q 322 932 319 932 q 375 939 353 935 q 415 946 397 942 q 450 954 433 949 q 488 961 467 958 l 504 961 q 535 960 517 961 q 571 956 554 960 q 599 946 587 953 q 611 928 611 940 q 610 913 611 922 q 606 899 610 905 q 586 890 603 893 q 550 884 570 886 q 511 882 530 882 q 484 881 492 881 q 477 879 481 880 q 471 878 474 878 q 465 878 468 878 l 454 874 q 416 869 429 871 q 397 863 404 867 q 388 853 390 859 q 385 834 387 846 q 383 811 383 823 q 380 784 382 799 l 370 762 q 374 743 370 753 q 381 723 377 733 q 389 701 386 712 q 393 680 393 690 l 388 628 l 397 585 q 394 557 397 569 q 388 532 391 545 q 384 488 385 512 q 383 446 383 465 l 382 425 q 388 402 382 408 l 388 265 q 384 256 385 259 q 383 250 383 253 q 388 231 383 239 q 393 215 393 222 q 390 184 393 201 q 383 156 387 168 q 382 152 383 155 q 381 146 382 149 q 380 138 380 142 q 393 117 382 127 q 418 97 404 106 q 447 83 432 88 q 472 77 462 77 l 502 83 q 509 80 505 83 q 524 77 513 77 q 540 82 533 77 q 558 87 547 87 l 579 77 l 623 74 l 642 69 l 653 69 q 691 74 672 72 q 727 80 709 77 q 762 91 745 84 q 793 109 779 97 l 795 111 q 798 117 798 114 q 807 135 802 128 q 819 148 812 142 q 832 159 825 154 q 846 172 840 164 q 863 193 856 179 q 880 218 871 207 q 897 233 887 225 q 916 247 906 241 q 936 258 926 254 q 954 262 946 262 q 963 261 958 262 q 974 259 968 260 q 982 255 979 258 q 986 250 986 253 q 983 225 986 235 q 976 207 981 215 q 964 191 970 199 q 951 175 958 184 q 947 165 948 172 q 945 155 945 159 q 946 144 945 151 q 947 135 947 138 q 941 119 945 126 q 931 105 937 111 q 920 94 925 99 q 911 83 914 88 l 907 62 q 877 11 900 28 q 821 -6 854 -6 l 767 5 l 745 -6 l 671 -6 q 647 3 658 2 q 623 5 637 5 q 593 -1 607 5 q 568 -6 580 -6 l 558 -6 l 454 8 l 441 13 l 380 13 q 367 21 372 20 q 353 22 362 22 q 341 22 345 22 q 332 16 338 21 l 222 16 q 191 3 212 8 q 145 -5 169 -2 q 98 -8 121 -7 q 64 -9 76 -9 q 48 -5 55 -9 q 37 5 41 -1 q 29 19 32 12 q 26 34 26 26 z "},"M":{"ha":1306,"x_min":48,"x_max":1267,"o":"m 57 21 q 59 35 57 32 q 67 43 61 39 q 94 59 78 51 q 127 75 111 67 q 160 91 144 83 q 186 104 176 98 q 207 161 201 131 q 213 222 213 191 l 213 241 q 213 252 213 247 q 214 263 213 258 q 215 268 214 264 q 216 275 216 271 q 217 283 217 279 q 218 289 218 287 l 226 302 l 227 328 q 225 335 227 331 q 218 349 224 340 l 229 386 q 228 395 229 391 q 226 401 227 398 q 223 407 224 403 q 222 415 222 411 l 222 428 l 229 481 l 222 527 q 229 558 222 543 q 236 589 236 574 l 233 615 q 235 638 233 626 q 240 663 237 650 q 246 689 243 675 q 249 715 249 702 q 241 726 246 719 q 233 738 235 732 q 231 760 233 747 q 224 786 229 774 q 211 808 219 799 q 189 817 202 817 l 133 812 l 119 812 q 92 816 104 814 q 70 822 79 818 q 54 835 60 827 q 48 858 48 843 q 50 876 48 870 q 55 885 51 882 q 66 889 59 888 q 85 892 73 890 l 101 899 l 123 899 q 212 893 170 899 q 298 887 254 887 q 317 889 309 887 q 334 892 325 892 q 389 854 370 878 q 417 794 408 831 l 418 786 q 422 764 420 772 q 428 750 424 756 q 441 738 433 744 q 464 725 449 732 l 463 711 q 465 691 463 701 q 471 671 467 681 q 478 651 475 661 q 484 629 481 641 q 484 622 484 627 q 486 611 485 616 q 488 601 487 606 q 488 595 488 596 q 500 572 492 585 q 516 547 508 559 q 532 521 524 534 q 546 498 541 508 q 580 422 564 460 q 612 346 596 385 l 631 313 q 637 297 635 306 q 643 282 640 289 q 650 271 646 275 q 665 267 655 267 q 679 269 675 267 q 684 275 683 271 q 686 287 686 280 q 690 302 687 293 q 697 308 690 304 q 705 313 703 312 q 726 350 718 330 q 742 390 735 369 q 755 431 749 410 q 769 473 762 452 q 772 480 769 473 q 779 495 775 487 q 786 512 783 504 q 791 524 790 520 q 808 571 802 549 q 825 616 814 593 l 830 629 q 859 683 844 654 q 892 728 874 711 q 890 744 892 739 q 888 752 888 749 q 890 763 888 755 q 893 778 891 770 q 897 792 895 785 q 898 800 898 798 q 901 811 899 803 q 903 823 903 819 l 917 838 q 918 845 917 840 q 919 855 918 850 q 920 864 919 860 q 920 869 920 868 q 934 885 924 878 q 956 897 944 892 q 979 904 968 901 q 999 906 991 906 q 1026 899 1013 906 q 1055 894 1040 894 l 1116 906 q 1159 905 1141 906 q 1204 899 1178 904 q 1224 876 1224 895 q 1212 849 1224 859 q 1181 832 1200 839 q 1142 822 1163 826 q 1103 811 1121 817 q 1072 797 1084 806 q 1060 772 1060 787 q 1065 744 1060 758 q 1075 718 1069 731 q 1086 690 1081 704 q 1090 662 1090 676 l 1080 598 l 1080 463 q 1083 448 1083 457 l 1086 376 l 1101 350 l 1101 307 q 1101 300 1101 305 q 1102 289 1101 295 q 1103 277 1103 283 q 1104 270 1104 272 q 1107 238 1105 259 q 1113 195 1109 218 q 1120 151 1116 172 q 1131 119 1124 130 q 1152 99 1139 106 q 1180 89 1164 93 q 1211 82 1195 85 q 1239 74 1226 79 q 1259 60 1251 69 q 1267 35 1267 52 q 1261 14 1267 22 q 1244 3 1254 7 q 1222 -2 1234 -1 q 1202 -3 1211 -3 l 1166 -3 q 1136 -3 1152 -3 q 1106 -1 1120 -2 q 1081 2 1092 1 q 1065 7 1070 4 q 1052 8 1063 8 l 1039 8 l 966 -3 l 903 3 q 895 1 900 3 q 888 -3 890 -2 q 864 -1 876 -3 q 842 5 852 1 q 826 18 832 10 q 819 37 819 26 q 839 58 819 52 q 854 59 847 58 q 871 60 862 60 q 919 64 896 60 q 956 88 941 68 q 958 94 957 92 q 960 98 959 96 q 960 101 960 100 q 961 104 960 102 q 964 109 962 106 l 968 125 q 974 157 972 141 q 975 188 975 172 q 974 226 975 208 q 968 265 972 245 l 967 271 q 966 282 966 275 q 966 296 966 288 q 966 318 966 306 q 965 340 966 330 q 962 359 964 351 q 956 372 960 368 q 958 377 958 375 q 958 381 958 378 l 958 392 l 943 503 l 946 585 q 945 601 946 591 q 944 621 945 611 q 943 638 944 631 q 943 645 943 645 q 942 663 943 651 q 940 686 942 674 q 933 706 938 697 q 920 715 928 715 q 915 713 918 715 q 913 711 913 712 l 903 664 q 891 650 893 660 q 890 630 890 641 q 890 620 890 625 q 888 610 890 614 q 864 575 878 591 q 839 541 850 559 q 833 529 836 538 q 827 511 830 521 q 823 493 825 501 q 819 480 821 484 q 799 433 810 456 q 774 386 787 409 l 769 376 q 767 365 768 374 q 765 353 766 356 q 759 349 763 352 q 751 341 755 345 q 744 333 747 337 q 739 328 741 330 l 729 279 q 722 262 727 270 q 712 246 718 254 q 703 230 707 238 q 695 214 698 222 q 694 207 695 212 q 693 195 694 201 q 691 182 692 188 q 690 174 690 176 q 688 160 690 172 q 682 136 686 149 q 676 113 679 123 q 671 101 673 102 l 655 82 q 654 69 654 80 q 653 57 654 64 q 650 43 652 50 q 643 33 647 37 q 631 29 638 29 q 619 34 625 29 q 606 46 612 39 q 594 62 600 54 q 583 77 588 70 q 581 82 583 79 q 578 88 578 86 q 561 134 565 110 q 549 184 557 159 q 541 204 548 191 q 525 233 534 218 q 508 262 516 248 q 496 285 500 277 q 464 346 480 315 q 432 407 448 376 l 417 454 q 376 537 397 498 q 332 616 354 575 q 328 623 331 618 q 323 629 324 628 l 308 645 q 306 654 306 649 q 304 663 305 659 q 301 669 304 667 q 292 672 298 672 q 287 671 288 672 q 284 667 286 671 l 276 589 l 276 556 q 276 511 276 533 q 277 466 276 489 q 279 376 279 422 q 281 370 280 374 q 284 360 283 366 q 288 346 286 355 l 282 332 q 279 312 282 321 q 276 286 276 304 l 276 275 l 289 250 q 290 243 290 247 q 290 236 290 240 l 290 214 q 292 179 290 196 q 302 151 293 162 l 355 92 q 361 71 355 78 q 378 60 368 64 q 400 54 389 56 q 422 48 412 52 q 439 38 433 45 q 446 19 446 31 q 446 13 446 17 q 445 6 446 9 q 441 -1 444 2 q 437 -3 439 -3 l 372 -3 l 355 3 l 338 3 q 310 5 323 3 q 284 9 297 7 q 257 13 271 11 q 227 14 243 14 q 213 8 220 14 q 199 0 206 3 q 163 -5 181 -1 q 126 -8 144 -8 q 113 -10 121 -8 q 96 -12 106 -12 q 85 -11 91 -12 q 74 -6 79 -10 q 57 21 57 1 z "},"N":{"ha":1198,"x_min":12,"x_max":1160,"o":"m 147 69 l 157 72 q 167 80 163 75 q 175 93 171 86 q 183 107 178 100 q 193 119 187 114 q 190 130 193 127 q 188 137 188 134 l 209 163 l 228 325 q 238 349 237 336 q 239 373 239 362 l 236 453 q 238 470 236 464 q 242 487 239 476 q 246 502 245 493 q 248 519 247 511 l 248 582 q 250 590 248 585 q 254 596 252 595 l 254 678 l 256 718 q 258 726 257 719 q 260 733 260 732 q 251 776 254 755 q 236 815 248 798 q 234 817 235 815 q 233 819 233 818 l 205 831 l 170 866 q 155 872 164 871 q 135 875 145 874 q 116 878 125 876 q 100 884 106 880 l 78 902 q 70 906 75 905 q 57 907 64 907 l 40 906 q 23 918 31 909 q 12 937 16 926 q 22 957 12 949 q 45 967 32 964 q 73 970 59 970 q 94 971 87 971 q 122 965 109 966 q 149 963 135 963 q 177 962 163 962 q 205 960 191 962 q 212 958 206 960 q 223 955 217 956 q 236 951 230 953 q 243 949 242 949 l 252 949 l 302 964 q 314 961 307 964 q 329 954 321 958 q 342 945 336 949 q 353 937 349 940 l 357 932 q 375 903 363 920 q 398 870 386 886 q 424 838 411 853 q 448 815 437 823 l 480 797 q 487 790 483 795 q 491 784 491 785 l 496 766 q 504 755 500 759 q 510 749 507 751 q 517 744 513 746 q 527 736 521 741 q 549 715 540 724 q 565 697 558 706 q 576 677 571 688 q 588 649 582 667 q 598 641 589 649 q 617 624 607 633 q 636 607 628 615 q 644 600 645 600 l 652 582 q 654 576 652 580 q 658 568 656 572 q 663 561 661 564 q 668 556 666 557 l 683 549 q 713 521 697 536 q 742 489 728 506 q 767 456 756 473 q 784 422 779 439 l 852 358 q 886 309 862 329 q 940 290 911 290 l 940 317 q 941 330 940 323 q 943 344 941 338 q 944 348 943 345 q 948 356 946 351 q 951 365 949 361 q 953 372 953 370 q 949 382 953 379 q 946 389 946 385 l 953 427 q 950 469 953 446 q 946 509 947 492 q 946 515 946 511 q 945 524 945 519 q 943 532 944 528 q 943 538 943 536 l 943 540 q 944 550 943 546 q 946 553 945 552 l 952 566 l 964 628 q 958 643 959 635 q 956 656 956 650 l 960 720 l 956 787 q 958 801 956 795 q 967 810 959 806 l 967 827 q 963 846 967 836 q 952 866 959 856 q 937 883 945 876 q 920 893 929 891 q 915 894 919 893 q 906 896 911 895 q 897 897 901 897 q 891 899 892 898 l 876 909 q 866 911 874 910 q 856 913 859 913 q 832 923 842 918 q 814 935 822 928 q 799 949 806 941 q 784 968 792 957 q 777 973 781 972 q 770 981 773 973 q 778 987 771 985 q 794 991 785 989 q 810 993 802 993 q 819 994 817 994 q 823 993 823 994 q 832 991 825 993 q 843 989 840 990 q 923 980 886 985 q 1001 975 960 975 l 1104 985 q 1123 985 1113 985 q 1141 981 1133 984 q 1154 971 1149 978 q 1160 954 1160 965 q 1147 926 1160 935 q 1117 912 1135 917 q 1081 904 1099 907 q 1050 893 1063 901 l 1043 871 l 1010 840 q 1008 834 1009 839 q 1007 827 1007 830 q 1010 819 1008 824 q 1015 808 1012 813 q 1020 797 1017 802 q 1025 787 1023 791 l 1025 784 q 1023 770 1025 779 q 1020 750 1022 760 q 1017 732 1018 740 q 1015 722 1015 724 q 1014 713 1014 720 q 1014 707 1014 710 q 1015 702 1014 703 l 1015 661 q 1013 632 1015 646 q 1004 609 1010 618 l 1004 526 q 1003 506 1004 517 q 1002 485 1003 495 q 998 464 1000 474 q 989 447 995 454 l 989 428 q 987 375 989 401 q 981 321 984 349 q 976 295 980 307 q 972 269 972 283 q 972 237 972 254 q 973 202 972 220 q 976 168 974 184 q 981 137 978 151 q 988 113 985 123 q 992 92 991 102 q 995 69 994 81 q 996 42 996 58 l 996 8 q 978 -3 989 -3 q 951 6 966 -3 q 921 29 937 15 q 891 61 906 43 q 861 97 876 79 q 832 130 846 115 q 808 156 819 146 q 804 168 806 159 q 798 180 802 178 q 775 208 787 192 q 751 235 763 224 q 726 257 737 245 q 704 281 714 269 q 684 307 694 294 q 663 333 674 319 q 654 342 659 338 q 643 349 648 346 q 632 356 637 352 q 626 365 628 359 q 578 424 602 397 q 524 469 555 450 q 515 476 518 472 q 509 485 512 481 q 502 494 506 490 q 491 502 498 498 q 485 511 490 504 q 475 527 481 518 q 465 543 470 535 q 459 553 460 551 l 451 559 q 443 584 448 574 q 430 602 437 593 q 414 618 423 610 q 393 640 405 627 l 387 649 q 377 666 384 659 q 362 679 370 673 q 346 691 354 685 q 331 704 337 696 q 324 714 326 709 q 320 724 322 720 q 314 732 318 729 q 300 736 310 735 q 288 731 296 736 q 279 720 279 725 l 283 701 q 279 682 283 693 q 276 661 276 671 l 283 640 l 276 621 q 279 597 276 611 q 288 575 281 583 q 292 553 291 564 q 294 528 294 541 q 292 499 294 513 q 288 474 291 486 q 292 463 292 468 q 290 442 292 452 q 286 424 288 433 q 281 408 283 416 q 279 391 279 399 l 279 368 q 280 349 279 359 q 281 329 280 339 q 284 311 282 319 q 288 299 286 303 q 282 284 284 290 q 279 273 280 278 q 277 262 277 267 q 276 249 276 256 q 280 207 276 229 q 293 166 284 186 q 314 128 301 146 q 345 98 327 111 q 357 93 351 94 q 370 90 363 92 q 382 86 376 89 q 393 77 389 83 q 416 76 404 77 q 440 73 429 75 q 460 67 451 71 q 475 58 470 64 q 485 36 481 46 q 488 8 488 26 q 465 -15 477 -7 q 433 -24 453 -24 l 420 -24 l 393 -9 q 343 -4 373 -6 q 287 -2 314 -2 l 241 -2 q 226 -3 233 -2 q 209 -7 218 -3 l 100 -7 q 93 1 98 0 q 81 3 87 3 q 70 5 75 4 q 66 13 66 7 q 73 38 66 28 q 91 54 80 48 q 116 63 102 60 q 142 69 130 66 l 147 69 z "},"O":{"ha":1149,"x_min":58,"x_max":1097,"o":"m 66 340 q 71 358 66 349 q 76 376 76 366 l 58 452 q 61 496 58 471 q 66 538 63 520 q 75 575 72 555 q 81 613 79 594 q 83 650 83 633 q 84 680 84 667 q 99 696 92 689 q 113 709 106 703 q 123 724 119 715 q 129 745 127 732 l 166 784 l 184 792 q 193 802 188 794 q 204 819 199 809 q 216 838 210 829 q 227 852 222 847 q 303 903 266 880 q 386 949 341 927 q 393 951 389 950 q 399 953 396 952 q 404 954 402 954 q 422 959 415 955 q 435 966 429 962 q 448 973 441 970 q 465 976 455 976 l 498 970 l 509 976 l 534 983 q 593 988 564 987 q 652 989 622 989 q 683 985 661 989 q 729 975 705 981 q 774 963 753 969 q 801 954 794 957 q 837 921 821 940 q 870 888 852 902 q 891 875 881 880 q 912 864 902 869 q 932 853 922 859 q 952 839 943 848 q 960 833 956 838 q 970 824 965 829 q 978 815 975 819 q 984 808 982 810 l 989 787 q 996 772 990 779 q 1009 758 1002 765 q 1022 744 1016 751 q 1031 730 1029 737 q 1043 709 1036 722 q 1057 682 1050 696 q 1068 654 1063 668 q 1074 630 1073 640 l 1074 590 q 1079 572 1077 578 q 1086 557 1082 565 q 1091 543 1089 550 q 1093 524 1093 536 q 1093 519 1093 523 q 1092 512 1092 516 q 1090 504 1091 508 q 1090 498 1090 500 l 1097 481 l 1093 452 q 1095 444 1095 448 q 1095 433 1095 439 q 1092 394 1095 411 q 1086 373 1089 378 q 1069 333 1079 351 q 1050 297 1060 315 q 1030 260 1040 279 q 1011 218 1020 241 q 1003 212 1007 214 q 995 209 999 210 q 987 205 991 208 q 979 197 983 202 q 975 189 977 194 q 969 177 972 183 q 963 164 966 170 q 956 154 960 158 l 942 146 q 931 141 937 146 q 926 132 926 136 q 913 115 922 125 q 894 93 904 104 q 874 73 884 82 q 859 58 865 63 q 850 54 854 56 q 844 51 847 52 q 840 50 841 50 l 764 24 q 758 15 760 18 q 753 11 755 12 q 749 8 751 9 q 740 6 746 7 l 695 2 l 647 -19 q 635 -21 641 -20 q 624 -22 629 -22 q 612 -22 618 -22 q 594 -21 605 -22 q 572 -17 584 -19 q 550 -13 561 -15 q 530 -8 538 -10 q 501 -4 516 -5 q 471 -3 486 -3 q 422 -2 446 -3 q 375 9 398 0 l 365 24 q 347 27 357 26 q 327 30 337 28 q 307 35 316 32 q 293 45 298 39 q 277 66 283 58 q 264 81 271 75 q 249 93 258 87 q 224 106 240 99 l 203 111 q 188 124 196 114 q 172 148 180 134 q 155 177 163 161 q 140 207 146 193 q 127 233 133 222 q 119 251 122 245 q 104 274 113 267 q 87 288 95 281 q 73 305 79 294 q 66 340 66 316 m 210 492 q 215 467 210 478 q 227 444 220 455 q 239 422 233 433 q 246 399 245 412 q 248 391 248 397 l 246 358 q 248 345 246 352 q 254 330 249 337 q 263 319 258 322 q 272 313 268 316 q 280 306 277 310 q 286 293 284 302 l 287 286 q 287 277 287 281 q 286 265 286 273 q 290 246 286 254 q 300 237 292 239 q 312 229 307 235 q 332 185 322 202 q 360 153 342 168 q 409 116 384 134 q 460 84 433 98 q 515 62 486 71 q 577 54 545 54 q 592 56 586 54 q 604 59 598 57 q 616 63 610 61 q 631 67 622 65 q 674 74 650 70 q 718 77 698 77 q 749 98 732 88 q 784 118 767 107 q 816 141 802 128 q 840 172 831 154 l 875 243 q 889 260 884 250 q 896 283 893 271 q 902 306 899 294 q 912 326 905 317 l 926 420 q 925 440 926 431 q 923 463 923 450 l 931 486 q 926 512 931 496 q 914 543 921 527 q 899 574 907 559 q 886 600 892 589 l 880 611 l 883 630 q 880 648 883 640 q 872 662 876 656 q 864 675 868 669 q 859 690 860 682 l 852 723 q 827 767 846 742 q 785 817 808 793 q 736 860 761 842 q 695 884 712 879 q 667 888 685 887 q 639 888 650 888 l 621 910 q 605 916 616 912 q 579 923 593 920 q 553 929 566 927 q 534 932 541 932 q 499 929 520 932 q 455 921 477 926 q 414 907 433 916 q 386 888 395 899 l 382 878 q 371 871 377 873 q 360 866 366 869 q 352 858 355 863 q 346 845 348 854 q 325 838 330 841 q 316 830 319 834 q 311 821 314 826 q 299 808 309 816 q 256 763 273 791 q 232 703 240 735 q 220 636 223 670 q 217 572 217 602 l 220 524 q 215 510 220 518 q 210 492 210 501 z "},"P":{"ha":803,"x_min":47,"x_max":770,"o":"m 47 42 q 50 51 47 46 q 56 59 52 55 q 63 66 60 63 q 69 72 67 70 l 87 72 q 116 73 102 72 q 144 77 131 74 q 169 89 157 81 q 191 111 181 97 l 212 137 q 216 143 216 140 q 217 154 217 146 l 212 243 q 219 284 212 264 q 227 323 227 304 q 219 366 227 344 q 212 412 212 389 q 214 421 212 417 q 217 428 216 425 q 221 436 219 432 q 222 446 222 440 l 216 494 l 222 558 l 222 585 l 212 603 q 209 635 211 620 q 206 663 208 649 q 204 685 205 676 l 214 717 q 210 748 214 726 q 199 793 205 770 q 184 835 192 816 q 169 858 176 854 q 137 864 157 861 q 97 874 117 867 q 62 891 77 880 q 47 921 47 902 q 50 927 47 927 q 69 929 61 927 q 84 934 77 931 q 99 939 92 937 q 115 941 106 941 l 169 934 l 278 945 l 300 937 l 336 945 q 374 948 355 947 q 413 949 393 949 q 450 948 431 949 q 486 945 468 947 q 514 936 500 937 q 544 935 529 935 q 576 934 560 935 q 606 929 591 932 q 638 918 618 927 q 679 896 658 909 q 716 869 699 884 q 741 840 734 854 q 752 806 747 825 q 762 769 758 788 q 768 732 766 751 q 770 697 770 713 q 770 675 770 689 q 768 648 770 662 q 764 621 766 633 q 757 603 761 609 l 736 577 l 732 551 q 716 529 728 543 q 690 501 705 515 q 662 474 675 486 q 640 458 648 462 q 625 451 633 455 q 606 441 616 446 q 588 433 597 437 q 574 428 580 429 l 527 425 l 497 415 q 477 417 489 415 q 455 425 466 420 q 437 435 445 429 q 429 448 429 441 q 444 465 429 459 l 522 481 q 527 487 523 484 q 535 490 532 489 q 579 523 559 503 q 614 567 600 543 q 638 619 629 591 q 646 675 646 646 q 643 685 645 680 q 640 692 640 689 q 639 694 640 693 q 638 698 638 695 q 632 742 635 717 q 622 786 629 768 q 607 805 619 793 q 580 830 595 817 q 549 857 565 844 q 522 880 533 870 l 462 894 l 408 894 q 391 888 402 890 q 369 881 380 885 q 351 870 359 877 q 342 850 342 863 l 342 772 q 348 762 347 766 q 349 751 349 759 l 342 725 q 346 716 342 724 q 349 706 349 709 l 349 694 l 336 659 l 352 581 q 352 571 352 574 q 349 559 351 567 l 349 455 q 352 444 351 449 q 352 433 352 439 l 342 393 q 349 343 342 368 q 357 293 356 319 q 358 254 358 274 q 359 214 358 234 q 361 175 359 194 q 370 137 363 155 q 385 122 370 132 q 418 101 399 112 q 453 83 436 91 q 474 75 469 75 l 495 75 q 506 75 503 75 q 514 72 509 75 q 517 68 514 71 q 524 62 520 66 q 533 55 528 58 q 541 50 537 52 q 543 44 542 46 q 544 39 544 42 l 544 37 q 525 16 538 23 q 498 5 513 8 q 467 1 483 1 q 439 0 452 0 l 387 9 q 373 6 380 9 q 357 3 366 3 l 301 19 l 293 19 q 286 18 288 19 q 228 7 257 14 q 165 0 199 0 q 132 1 152 0 q 93 5 112 1 q 60 18 74 9 q 47 42 47 26 z "},"Q":{"ha":1138,"x_min":52,"x_max":2100,"o":"m 52 511 q 61 547 52 530 q 72 582 69 564 q 73 590 72 583 q 74 605 73 597 q 76 619 75 612 q 78 628 77 626 q 83 638 79 630 q 92 654 87 646 q 101 670 96 663 q 106 680 105 677 q 107 683 106 680 q 109 689 108 686 q 111 695 110 692 q 111 699 111 699 q 167 782 132 745 q 241 850 201 819 q 248 853 243 850 q 258 859 253 856 q 269 865 264 862 q 274 869 273 868 q 286 876 279 871 q 295 882 294 881 q 298 886 296 883 q 304 892 301 889 q 311 899 307 896 q 315 902 314 902 q 320 904 316 903 q 331 906 325 905 q 341 907 336 907 q 348 908 346 908 q 352 911 349 909 q 360 915 355 913 q 368 919 364 918 q 374 921 372 921 l 375 921 l 380 921 q 395 928 387 923 q 410 937 402 932 q 426 945 418 941 q 441 948 433 948 l 446 948 q 451 944 446 947 q 458 941 456 941 q 468 946 461 942 q 478 954 475 951 q 522 959 500 957 q 565 961 543 961 q 609 959 587 961 q 654 954 631 957 q 662 952 655 954 q 679 949 669 951 q 698 945 688 947 q 713 941 707 943 q 719 938 714 941 q 726 935 724 935 q 730 930 726 934 q 738 921 734 926 q 747 912 743 916 q 753 908 751 909 q 762 906 755 907 q 776 904 768 905 q 792 902 784 903 q 806 902 800 902 l 811 902 q 814 897 812 900 q 820 891 817 894 q 826 885 823 888 q 830 882 829 883 q 834 881 831 882 q 840 879 837 880 q 847 877 844 878 q 850 876 850 876 q 857 869 851 876 q 863 863 862 863 q 877 855 869 858 q 892 849 884 852 q 907 844 900 846 q 922 836 915 841 q 928 831 923 836 q 936 823 932 825 q 988 760 964 791 q 1033 693 1012 729 q 1047 662 1040 682 q 1062 622 1055 643 q 1073 582 1069 602 q 1079 549 1078 562 l 1079 498 q 1082 487 1079 494 q 1086 477 1084 479 l 1086 474 q 1083 443 1086 457 q 1076 415 1080 429 q 1067 389 1072 402 q 1059 360 1063 375 q 1055 339 1056 348 q 1054 322 1055 330 q 1050 306 1053 314 q 1040 286 1047 297 q 1037 283 1040 286 q 1030 277 1034 280 q 1024 271 1027 274 q 1020 267 1021 268 q 1016 262 1019 267 q 1010 251 1013 257 q 1004 241 1007 245 q 1000 235 1001 236 q 979 207 991 220 q 955 182 968 194 q 929 159 942 170 q 903 136 916 148 q 887 124 898 133 q 865 106 877 115 q 844 88 854 96 q 830 77 833 80 q 813 69 825 73 q 789 60 801 65 q 767 51 777 56 q 758 39 758 45 q 761 28 758 31 q 772 19 764 25 q 779 14 774 18 q 787 8 783 11 q 794 2 791 5 q 798 -1 798 -1 q 804 -2 799 -1 q 814 -4 808 -3 q 824 -6 819 -5 q 830 -7 829 -7 q 840 -12 832 -8 q 857 -20 848 -16 q 873 -29 865 -25 q 883 -33 881 -33 q 922 -45 903 -42 q 962 -53 941 -47 q 968 -56 963 -53 q 975 -60 973 -59 q 988 -65 979 -62 q 1007 -71 998 -68 q 1023 -76 1016 -74 q 1033 -79 1031 -79 q 1046 -81 1036 -79 q 1069 -85 1057 -83 q 1092 -89 1081 -87 q 1105 -92 1102 -91 q 1120 -97 1107 -92 q 1148 -106 1133 -101 q 1179 -116 1164 -111 q 1203 -124 1195 -121 q 1227 -132 1215 -129 q 1251 -140 1239 -136 q 1273 -150 1262 -144 q 1295 -164 1284 -155 q 1319 -169 1301 -165 q 1357 -176 1337 -172 q 1395 -184 1377 -180 q 1418 -190 1412 -188 q 1429 -193 1421 -190 q 1438 -197 1436 -196 q 1485 -211 1461 -206 q 1533 -218 1508 -215 q 1581 -222 1557 -220 q 1629 -229 1605 -224 q 1638 -233 1630 -230 q 1647 -236 1645 -236 l 1657 -236 l 1668 -236 q 1677 -233 1669 -236 q 1688 -229 1685 -230 l 1752 -229 l 1759 -223 l 1857 -223 q 1863 -220 1858 -223 q 1871 -216 1868 -218 q 1894 -204 1883 -209 q 1918 -197 1906 -200 q 1942 -190 1929 -193 q 1968 -183 1954 -187 q 1992 -173 1981 -180 q 2014 -157 2003 -165 q 2037 -143 2026 -149 q 2063 -137 2049 -137 q 2081 -141 2074 -137 q 2092 -151 2088 -144 q 2098 -165 2096 -157 q 2100 -182 2100 -173 q 2095 -206 2100 -195 q 2083 -227 2090 -217 q 2066 -245 2075 -237 q 2047 -262 2056 -254 q 1989 -299 2018 -285 q 1929 -328 1961 -313 q 1911 -333 1921 -332 q 1892 -337 1902 -335 q 1874 -341 1883 -338 q 1857 -347 1865 -343 q 1848 -352 1855 -349 q 1834 -359 1842 -355 q 1820 -367 1827 -363 q 1811 -373 1813 -371 q 1711 -380 1760 -374 q 1611 -386 1662 -386 l 1555 -386 q 1525 -378 1539 -379 q 1491 -373 1510 -378 q 1485 -370 1489 -373 q 1479 -366 1480 -366 l 1449 -366 l 1438 -366 q 1420 -362 1434 -366 q 1388 -355 1405 -359 q 1354 -347 1371 -351 q 1328 -340 1337 -342 q 1321 -337 1326 -340 q 1314 -333 1315 -334 l 1308 -333 q 1295 -334 1302 -333 q 1280 -334 1289 -334 q 1264 -333 1273 -334 q 1249 -328 1256 -332 q 1245 -324 1248 -327 q 1239 -317 1242 -321 q 1233 -311 1236 -314 q 1229 -307 1230 -308 l 1224 -307 l 1208 -307 l 1203 -307 q 1195 -306 1202 -307 q 1181 -301 1189 -304 q 1166 -297 1173 -299 q 1158 -294 1160 -295 q 1151 -293 1156 -294 q 1138 -291 1145 -292 q 1125 -289 1131 -290 q 1118 -288 1120 -288 q 1111 -282 1116 -288 q 1105 -275 1106 -276 q 1095 -272 1103 -274 q 1079 -268 1088 -271 q 1063 -264 1070 -266 q 1053 -262 1055 -262 q 1046 -258 1052 -261 q 1034 -252 1040 -256 q 1021 -246 1027 -249 q 1013 -243 1015 -243 q 1009 -241 1013 -242 q 1001 -239 1005 -240 q 992 -237 996 -238 q 987 -236 988 -236 q 977 -232 984 -235 q 967 -229 969 -230 q 958 -224 966 -229 q 942 -216 951 -220 q 925 -208 933 -212 q 916 -203 918 -203 l 907 -203 l 882 -203 l 876 -203 q 869 -199 874 -203 q 859 -191 865 -195 q 849 -182 854 -186 q 844 -177 845 -178 q 821 -169 833 -170 q 798 -164 809 -169 q 763 -143 779 -155 q 726 -124 747 -132 q 719 -123 724 -124 q 707 -121 713 -122 q 695 -119 701 -120 q 687 -119 689 -119 q 676 -115 684 -117 q 667 -111 668 -113 q 665 -108 667 -111 q 661 -102 663 -105 q 657 -95 659 -98 q 654 -92 655 -92 l 640 -92 l 634 -92 q 628 -89 633 -92 q 621 -85 623 -85 q 613 -82 618 -84 q 601 -78 607 -80 q 589 -74 594 -76 q 583 -73 584 -73 l 570 -73 q 564 -70 568 -73 q 556 -63 560 -66 q 548 -57 551 -60 q 544 -53 545 -54 q 533 -49 541 -52 q 524 -47 525 -47 q 516 -43 522 -46 q 505 -37 511 -40 q 493 -31 498 -34 q 484 -27 487 -28 q 480 -24 483 -26 q 474 -20 477 -22 q 469 -16 471 -18 q 465 -14 466 -14 q 460 -13 464 -14 q 452 -11 456 -12 q 444 -8 448 -9 q 438 -7 440 -7 q 429 -6 436 -7 q 415 -4 422 -5 q 400 -2 407 -3 q 393 -1 394 -1 q 373 8 387 1 q 345 22 359 14 q 318 36 330 29 q 302 45 306 42 q 292 55 300 47 q 275 72 283 62 q 259 89 267 81 q 250 98 252 96 q 245 100 248 98 q 239 104 243 102 q 233 108 236 106 q 229 111 230 110 q 211 125 222 115 q 188 144 199 134 q 167 161 176 153 q 157 169 158 168 q 154 174 156 170 q 148 183 151 178 q 142 193 145 188 q 137 202 139 199 q 130 217 135 207 q 120 237 125 227 q 111 256 115 248 q 106 267 107 264 q 98 287 103 274 q 87 314 92 300 q 77 338 81 328 q 72 352 73 349 l 72 365 l 72 397 q 68 405 72 399 q 65 410 65 410 q 63 427 64 415 q 59 453 61 439 q 55 479 57 467 q 52 498 53 492 l 52 511 m 195 487 l 195 482 q 200 473 197 481 q 202 465 202 466 q 217 391 212 428 q 237 319 223 354 q 281 224 256 269 q 341 136 307 179 q 344 133 342 135 q 348 130 347 130 q 357 126 349 129 q 367 123 365 124 q 376 115 369 122 q 393 101 384 109 q 410 86 401 93 q 420 77 418 79 q 425 76 420 77 q 435 74 429 75 q 446 73 441 73 q 452 72 450 72 q 458 68 453 71 q 471 62 464 65 q 483 55 477 58 q 491 52 489 52 q 502 50 493 51 q 520 48 511 49 q 539 46 530 47 q 550 45 548 45 q 554 44 551 45 q 562 42 558 43 q 570 40 566 41 q 576 39 574 39 q 578 38 576 39 q 585 38 581 38 q 591 38 588 38 q 597 37 595 37 q 608 38 601 37 q 615 39 614 39 q 618 40 616 39 q 624 44 621 42 q 630 49 627 47 q 634 52 633 51 q 657 56 644 55 q 680 64 671 57 q 686 71 682 66 q 696 81 690 76 q 706 92 701 87 q 713 98 711 96 q 720 99 714 98 q 732 101 726 100 q 745 103 739 102 q 753 104 751 104 q 757 109 753 105 q 765 117 761 113 q 773 126 770 122 q 779 130 777 130 q 786 137 781 132 q 797 145 791 141 q 806 152 802 149 q 811 156 810 155 q 815 158 812 157 q 824 160 819 159 q 832 162 828 161 q 837 163 836 163 q 842 166 839 163 q 848 173 845 170 q 853 178 851 176 q 857 182 856 181 q 859 187 858 183 q 860 196 859 191 q 862 204 861 200 q 863 209 863 208 q 866 219 864 212 q 870 228 869 227 q 873 232 871 229 q 877 238 875 235 q 881 244 880 241 q 883 248 883 247 q 885 258 884 250 q 887 275 886 266 q 889 292 888 283 q 890 302 890 300 q 892 307 890 302 q 896 317 894 311 q 901 327 899 322 q 903 332 903 331 q 904 339 903 334 q 906 349 905 344 q 908 359 907 355 q 909 365 909 363 l 909 389 l 909 445 q 917 484 910 463 q 923 524 923 504 q 922 524 922 524 l 922 526 q 922 528 922 526 q 916 539 922 531 q 909 549 910 547 q 906 559 908 551 q 902 575 905 566 q 898 592 900 584 q 896 602 897 600 q 893 606 895 602 q 889 614 892 610 q 885 623 887 618 q 883 628 884 627 q 882 636 882 629 q 880 650 881 642 q 878 665 879 658 q 876 673 876 671 q 871 680 876 675 q 860 692 866 686 q 850 704 854 699 q 844 712 845 710 q 832 738 837 724 q 824 767 828 752 q 814 794 820 781 q 798 817 809 807 q 793 819 798 817 q 785 821 789 820 q 777 823 781 822 q 772 823 772 823 q 768 827 771 824 q 762 833 766 829 q 756 839 759 836 q 753 844 753 842 q 748 846 751 844 q 739 850 744 848 q 730 854 734 852 q 726 857 726 856 q 721 860 724 857 q 712 867 717 863 q 704 873 708 870 q 700 876 701 876 q 651 885 677 883 q 602 895 625 887 q 581 901 589 900 q 563 902 572 902 l 550 902 l 524 902 q 513 899 521 902 q 504 895 506 895 l 479 895 l 471 895 q 459 890 469 895 q 438 879 449 885 q 418 868 427 873 q 406 863 408 863 q 366 841 385 852 q 331 816 347 829 q 299 787 315 802 q 269 752 284 771 q 260 729 260 741 q 256 706 259 717 q 253 699 256 705 q 246 686 250 692 q 240 674 243 680 q 237 667 237 668 q 233 653 235 664 q 229 631 231 643 q 225 608 227 618 q 224 595 224 597 q 210 542 216 567 q 195 490 203 516 l 195 487 z "},"R":{"ha":1047,"x_min":56,"x_max":1088,"o":"m 794 24 q 722 101 753 58 q 669 191 690 144 l 659 216 q 650 230 656 222 q 637 244 644 237 q 625 257 631 251 q 616 270 618 264 l 601 294 l 550 350 q 531 388 549 370 q 491 422 514 407 q 443 446 467 437 q 401 454 418 454 q 385 452 395 454 q 365 446 374 450 q 348 435 355 441 q 340 419 340 428 l 345 393 q 343 380 345 384 q 340 370 340 376 q 341 352 340 359 q 345 334 342 346 l 339 227 l 340 212 q 341 190 341 201 q 341 168 341 179 q 341 146 341 156 q 340 125 341 136 q 346 111 340 119 q 359 100 351 103 l 391 79 q 415 69 400 72 q 447 65 430 66 q 480 63 463 64 q 510 58 496 62 q 531 47 523 54 q 540 27 540 40 q 532 8 540 17 q 514 -6 524 0 q 492 -16 503 -12 q 472 -19 480 -19 q 452 -17 461 -19 q 434 -11 443 -14 q 415 -5 425 -8 q 394 0 405 -2 q 346 8 370 5 q 291 21 321 12 q 275 19 283 21 q 256 16 267 16 l 208 21 q 192 14 200 21 q 174 7 183 7 l 63 11 q 56 24 56 18 q 72 50 56 41 q 109 66 88 60 q 149 76 130 72 q 175 85 168 80 q 182 110 182 96 q 185 134 182 124 q 192 139 189 135 q 197 143 196 143 q 205 178 203 158 q 207 218 207 199 l 207 248 q 204 272 207 262 q 201 294 201 283 l 215 416 l 204 482 l 201 498 l 201 501 q 201 508 201 503 q 202 519 201 513 q 203 530 202 525 q 204 537 203 535 q 214 543 212 541 q 215 549 215 545 l 207 591 l 215 628 q 217 635 215 629 q 218 645 218 642 l 215 663 l 215 683 l 218 726 l 207 829 l 207 844 q 178 875 192 862 q 147 897 163 888 q 112 913 131 906 q 69 926 94 920 q 60 937 60 928 q 72 954 60 947 q 101 964 85 960 q 133 970 117 968 q 155 972 149 972 l 195 969 l 237 972 l 297 960 q 333 964 315 960 q 372 969 351 969 l 428 963 l 486 969 q 551 963 519 969 q 616 947 583 956 q 650 938 631 941 q 683 926 669 935 l 698 915 q 747 884 725 899 q 784 851 769 869 q 809 809 800 833 q 820 749 818 785 q 825 717 821 732 q 828 685 828 703 q 826 673 828 677 q 822 666 825 669 q 816 659 819 663 q 810 650 813 656 q 806 634 807 643 q 803 615 804 625 q 800 598 802 606 q 794 585 798 589 q 767 558 783 568 q 736 534 751 548 q 718 517 730 524 q 692 505 705 511 q 669 490 679 498 q 659 466 659 481 q 662 455 659 458 q 668 449 665 452 q 675 444 671 446 q 683 435 680 441 q 689 425 684 433 q 701 408 694 417 q 713 391 707 399 q 720 382 718 383 q 765 316 745 350 q 810 252 785 282 q 841 217 826 235 q 876 188 857 199 q 886 178 882 185 q 893 161 890 170 q 901 143 897 152 q 909 129 905 134 q 957 96 935 111 q 1003 64 979 82 q 1028 52 1014 57 q 1056 39 1043 46 q 1079 23 1069 33 q 1088 -2 1088 13 q 1076 -20 1088 -16 q 1050 -24 1064 -24 l 950 -24 q 909 -15 929 -15 q 863 -12 888 -14 q 849 -7 857 -11 q 831 2 840 -3 q 813 13 822 7 q 798 22 804 18 l 794 24 m 331 549 q 337 522 331 534 q 353 503 342 511 q 376 491 363 495 q 404 487 389 487 l 428 487 q 448 506 430 498 q 488 519 466 513 q 531 529 510 525 q 562 537 553 533 q 589 556 576 543 q 614 581 603 568 l 636 623 q 653 660 646 641 q 659 701 659 679 q 657 711 659 706 q 652 721 654 716 q 647 732 649 726 q 644 745 644 738 q 649 768 648 764 q 650 774 650 772 l 650 781 q 643 789 650 784 q 636 798 637 795 q 599 847 620 827 q 552 879 578 867 q 497 896 527 891 q 434 901 468 901 q 422 900 431 901 q 404 897 414 899 q 385 893 393 895 q 374 890 376 892 q 371 885 373 889 q 366 878 368 882 q 361 870 363 873 q 359 865 359 866 l 359 846 q 352 774 359 809 q 336 703 345 739 l 326 689 l 340 671 q 342 657 341 668 q 345 641 344 647 l 345 631 q 342 629 344 631 q 340 623 340 626 q 342 616 340 622 q 345 610 344 611 l 331 549 z "},"S":{"ha":712,"x_min":58,"x_max":646,"o":"m 237 7 q 199 16 219 13 q 160 22 180 19 q 121 30 140 25 q 89 44 103 35 q 66 71 75 54 q 58 115 58 88 l 58 132 l 71 262 q 75 270 73 267 q 84 273 77 273 q 106 260 99 273 q 151 189 132 224 q 193 116 170 155 q 207 103 195 109 q 235 90 219 96 q 271 78 252 83 q 307 68 290 73 q 338 62 324 64 q 359 60 352 60 l 372 60 q 384 61 382 60 q 391 66 386 62 q 402 73 396 69 q 413 81 408 77 q 420 85 418 84 q 429 91 422 88 q 439 94 436 94 l 467 101 q 479 116 469 101 q 498 148 488 130 q 524 195 511 168 q 525 202 524 196 q 526 215 526 208 q 527 229 526 222 q 528 238 528 235 l 528 249 q 527 262 528 256 q 526 274 527 268 q 523 286 525 279 q 519 302 522 293 l 517 307 q 504 320 512 314 q 488 334 495 326 q 477 352 480 346 q 470 362 473 358 q 460 370 467 366 q 441 379 454 373 q 433 381 440 379 q 423 386 427 383 q 405 394 414 391 q 387 397 396 396 q 368 399 378 398 q 349 404 359 400 q 333 419 339 411 q 315 432 327 427 q 308 433 313 432 q 297 435 303 434 q 287 438 292 437 q 280 439 281 439 l 245 475 q 228 485 235 482 q 213 491 220 488 q 200 497 206 494 q 185 508 193 500 q 176 519 179 513 q 171 530 173 524 q 167 541 169 535 q 162 551 165 546 q 156 564 161 557 q 149 576 152 572 q 124 607 134 594 q 110 633 115 621 q 103 662 104 646 q 101 701 101 677 q 108 760 101 729 q 127 820 115 791 q 159 875 140 849 q 201 919 178 901 q 217 929 208 926 q 234 933 225 932 q 253 935 243 935 q 271 937 262 935 q 288 943 280 939 q 303 952 296 947 q 320 960 311 956 q 338 963 328 963 q 393 960 367 963 q 445 950 419 956 q 477 939 463 946 q 510 932 492 932 q 533 940 523 932 q 554 957 544 947 q 575 973 564 966 q 601 981 587 981 q 618 968 614 981 q 622 945 622 956 l 609 901 l 614 821 l 614 804 q 613 773 614 785 q 608 741 612 760 q 603 735 606 738 q 598 732 600 732 q 593 731 598 731 q 583 740 590 731 q 566 762 576 749 q 545 792 556 776 q 524 824 534 808 q 503 851 513 839 q 486 868 493 863 q 456 883 472 877 q 422 891 439 888 q 387 896 404 895 q 354 897 369 897 q 315 893 332 897 q 287 880 299 889 q 265 858 275 871 q 248 825 256 844 q 236 801 241 810 q 229 785 232 792 q 224 769 226 777 q 223 746 223 760 q 235 684 223 710 q 268 638 248 657 q 315 606 288 618 q 373 585 342 593 l 380 580 q 409 563 396 570 q 433 550 421 555 q 457 538 444 544 q 486 526 469 533 l 564 475 q 567 473 566 475 q 571 470 569 471 q 576 466 574 468 l 588 432 q 593 421 591 427 q 598 413 595 416 q 605 406 600 412 q 615 394 610 401 q 624 382 620 388 q 627 374 627 376 q 632 362 629 370 q 638 347 635 355 q 644 331 642 338 q 646 320 646 323 l 646 220 q 643 212 646 220 q 637 198 640 203 q 633 195 635 197 q 632 191 633 193 q 629 182 631 189 q 624 168 627 176 q 618 153 621 159 q 614 144 616 146 q 607 132 612 138 q 596 119 602 125 q 584 108 590 113 q 576 101 578 103 q 569 83 570 93 q 561 69 568 74 q 517 48 534 60 q 485 25 500 36 q 453 7 470 15 q 410 0 436 0 l 402 0 q 378 2 384 1 q 370 2 372 2 l 237 7 z "},"T":{"ha":1014,"x_min":10,"x_max":999,"o":"m 240 29 q 252 58 240 48 q 281 68 263 68 l 326 62 q 360 69 342 62 q 392 87 377 76 q 418 113 408 98 q 433 144 429 128 l 433 180 q 443 237 437 210 q 449 292 449 264 l 439 321 l 439 477 q 438 493 438 486 q 437 511 437 501 l 437 635 q 441 653 440 642 q 441 675 441 663 q 440 697 441 688 q 439 715 439 707 l 444 722 l 444 800 q 437 821 439 812 q 431 837 435 830 q 421 846 428 843 q 401 850 415 850 l 363 840 q 329 846 346 840 q 292 859 311 852 q 236 854 258 857 q 195 847 214 852 q 159 835 177 842 q 118 814 142 827 q 102 787 109 803 q 86 755 94 770 q 66 729 77 740 q 41 718 56 718 q 31 718 37 718 q 21 719 26 718 q 14 722 17 720 q 10 728 10 724 q 12 748 10 739 q 16 764 14 756 q 21 779 19 771 q 25 797 24 787 l 25 840 l 36 866 q 40 881 38 871 q 43 901 41 890 q 47 923 45 912 q 51 941 49 934 q 56 962 53 951 q 63 982 58 972 q 75 997 68 991 q 94 1003 82 1003 q 121 993 106 1003 q 152 969 136 983 q 181 944 167 956 q 208 928 196 932 q 230 924 214 926 q 262 919 245 922 q 294 915 279 916 q 315 913 309 913 q 334 915 326 913 q 349 919 342 916 q 365 923 357 921 q 385 924 374 924 l 402 924 q 420 924 417 924 q 430 918 422 922 q 439 913 438 914 l 443 913 q 465 915 454 913 q 486 920 475 918 q 508 925 497 923 q 531 928 519 928 q 557 924 545 928 q 581 920 570 920 l 602 920 q 656 921 629 920 q 711 925 683 923 q 769 929 739 927 q 831 932 798 931 q 848 929 841 932 q 862 927 854 927 q 877 931 871 927 q 887 942 882 936 q 896 953 892 947 q 907 962 901 959 q 923 971 916 966 q 938 981 931 976 q 952 989 945 986 q 968 993 960 993 q 982 984 976 993 q 992 970 987 976 q 993 968 992 969 q 994 968 993 968 q 992 957 992 964 q 992 943 992 951 l 992 876 q 992 862 992 867 q 994 853 992 857 l 999 780 q 999 772 999 778 q 998 761 998 767 q 997 750 998 755 q 997 744 997 745 q 979 736 992 736 q 958 745 967 736 q 940 766 948 754 q 923 790 931 779 q 907 808 916 802 q 881 827 893 819 q 857 848 868 834 l 833 846 l 673 859 l 650 853 l 616 859 l 604 859 l 593 848 q 593 842 593 849 q 591 823 592 834 q 589 802 590 812 q 589 784 589 791 l 593 713 l 593 578 l 584 528 l 593 445 q 593 433 593 437 q 589 421 592 429 q 589 395 589 413 q 589 353 589 376 q 589 315 589 332 q 589 290 589 298 l 584 256 q 585 233 584 248 q 587 201 585 218 q 591 164 588 183 q 598 130 593 146 q 609 103 603 115 q 625 90 616 92 l 713 68 l 728 68 l 747 72 q 761 67 755 72 q 770 56 766 63 q 775 42 774 50 q 777 29 777 35 q 772 11 777 18 q 760 1 768 5 q 744 -3 753 -2 q 726 -3 734 -3 q 712 -1 718 -3 q 699 6 706 1 q 684 12 692 9 q 668 15 676 15 l 634 6 q 602 11 621 6 q 563 19 583 16 q 557 18 562 19 q 545 15 551 17 q 532 13 538 14 q 525 12 526 12 l 464 12 q 436 5 448 11 q 409 0 424 0 q 395 4 404 1 q 385 6 387 6 q 368 4 376 6 q 351 -1 360 1 q 326 -7 338 -4 q 300 -9 314 -9 l 290 -9 q 272 -8 280 -9 q 252 -3 264 -7 q 248 10 252 -2 q 240 29 245 22 z "},"U":{"ha":1173,"x_min":22,"x_max":1179,"o":"m 267 154 q 240 225 253 189 q 214 294 227 262 q 213 298 214 296 q 210 302 212 300 q 207 307 208 304 l 207 373 l 201 386 l 201 435 q 195 444 199 440 q 187 452 191 448 q 180 461 183 456 q 177 474 177 467 q 176 489 176 481 q 176 501 176 496 q 176 514 176 509 q 177 524 176 519 l 177 618 l 174 670 l 177 683 l 174 713 l 174 726 l 177 773 q 175 779 176 777 q 174 789 174 786 q 169 799 172 791 q 162 814 166 806 q 152 832 157 823 q 141 845 146 840 q 126 853 136 849 q 106 863 117 857 q 83 876 95 868 q 61 893 71 883 q 48 904 55 900 q 36 912 41 909 q 26 919 30 916 q 22 928 22 922 q 28 944 22 937 q 44 955 35 951 q 64 961 53 959 q 83 962 75 962 l 106 969 l 141 966 l 154 966 q 196 963 176 966 q 229 956 216 960 l 267 958 q 283 958 274 958 q 302 961 292 959 q 319 965 311 962 q 336 967 328 967 q 360 964 350 967 q 379 961 371 961 q 411 965 396 961 q 446 969 427 969 l 477 967 q 488 962 481 965 q 501 955 494 958 q 512 948 507 951 q 516 940 516 944 l 516 910 q 503 897 516 904 q 473 885 490 890 q 440 874 456 879 q 419 867 425 869 q 384 844 404 857 q 350 813 363 830 l 350 745 l 344 691 q 345 684 344 688 q 346 672 346 680 q 339 651 346 660 l 339 564 l 344 547 q 346 535 344 545 q 349 511 347 525 q 353 484 351 498 q 355 460 355 469 q 351 452 353 456 q 350 439 350 448 q 351 434 350 436 q 360 429 353 431 l 360 389 q 360 374 360 380 q 361 359 360 367 l 372 326 l 411 248 q 427 220 419 234 q 443 193 435 206 q 461 169 452 180 q 485 149 471 157 l 516 142 l 533 124 q 577 109 553 111 q 625 106 601 106 q 648 106 638 106 q 666 107 657 106 q 686 111 675 109 q 711 116 696 113 q 720 118 716 116 q 727 123 724 120 q 734 128 730 125 q 744 132 738 131 q 772 140 762 136 q 790 151 782 144 q 806 165 798 157 q 829 185 815 174 l 847 193 q 851 202 848 193 q 860 224 855 211 q 871 255 865 238 q 882 287 877 271 q 892 313 888 302 q 899 330 897 325 q 906 354 903 338 q 912 388 909 370 q 918 424 916 406 q 924 455 921 441 q 922 484 924 467 q 920 516 920 501 l 916 532 l 930 557 q 927 568 930 560 q 920 578 923 576 l 920 623 l 929 701 l 921 765 q 920 773 921 768 q 920 789 920 779 q 913 800 918 791 q 902 819 907 809 l 887 845 q 880 849 885 846 q 868 856 874 852 q 858 861 863 859 q 850 863 852 863 q 837 870 844 866 q 821 877 829 873 q 805 884 812 881 q 791 888 797 887 q 774 892 785 890 q 752 896 764 893 q 733 903 741 899 q 725 918 725 908 l 725 928 l 747 932 l 772 945 q 797 949 784 948 q 822 950 809 949 q 847 953 835 951 q 869 961 859 955 l 899 961 q 944 959 922 961 q 991 958 965 958 l 1030 958 q 1085 977 1056 971 q 1144 983 1114 983 q 1153 982 1147 983 q 1164 978 1158 981 q 1175 971 1171 975 q 1179 961 1179 966 l 1179 921 l 1173 918 q 1147 909 1161 910 q 1120 906 1133 907 q 1089 900 1104 904 q 1057 893 1074 896 q 1028 857 1037 878 q 1014 812 1019 836 q 1006 765 1010 789 q 995 723 1003 742 l 995 564 l 985 538 l 985 455 q 982 445 983 450 q 982 431 982 439 q 984 418 982 422 q 985 402 985 413 l 977 378 q 968 352 973 364 q 961 325 964 339 l 947 267 q 935 234 941 250 q 919 204 928 219 q 911 192 916 197 q 901 182 906 186 q 891 172 896 177 q 885 159 887 166 q 848 117 876 138 q 820 94 835 106 q 791 71 805 81 q 780 63 785 68 q 770 55 775 59 q 760 47 765 50 q 747 42 754 43 l 725 42 l 694 27 q 675 24 686 24 q 654 24 665 24 l 625 24 l 581 20 l 546 24 l 494 20 q 487 23 493 21 q 474 28 481 25 q 455 36 465 33 q 435 42 444 39 l 414 47 q 384 55 397 52 q 368 60 370 58 q 360 67 363 62 q 354 78 357 73 q 347 87 351 83 q 338 95 343 92 q 298 118 317 104 q 267 154 280 132 z "},"V":{"ha":911,"x_min":-4,"x_max":947,"o":"m 256 473 l 256 477 q 237 523 246 503 q 222 569 228 543 q 215 584 220 577 q 205 596 210 590 q 197 609 201 603 q 191 623 193 616 q 175 690 184 658 q 155 754 167 722 l 138 789 l 129 823 q 110 845 121 836 q 87 863 99 854 q 66 880 76 871 q 50 897 56 888 q 34 898 43 897 q 16 903 24 899 q 2 912 7 906 q -4 927 -4 918 q 2 943 -4 937 q 16 948 8 948 l 56 943 q 63 947 60 943 q 73 950 66 950 q 82 955 78 950 l 129 955 l 206 948 q 249 954 229 948 q 290 962 268 959 q 313 964 303 963 q 330 964 323 964 q 349 966 338 964 q 372 970 359 968 q 383 969 374 970 q 403 966 393 968 q 421 958 413 963 q 429 945 429 953 l 426 908 q 420 900 426 904 q 407 891 414 895 q 391 885 399 887 q 380 882 383 882 l 357 887 q 335 886 344 887 q 313 882 327 885 q 302 874 307 880 q 298 861 298 869 q 304 832 298 846 q 313 804 310 819 l 317 749 q 322 726 318 737 q 330 704 326 715 q 340 682 335 693 q 347 661 345 671 l 347 627 q 353 617 347 624 q 360 608 359 610 q 372 577 368 594 q 381 541 377 559 q 390 505 385 523 q 400 473 394 487 q 418 434 407 454 q 434 395 429 414 l 437 357 q 446 337 441 350 q 455 312 450 324 q 466 290 460 299 q 479 280 472 280 q 498 287 491 280 q 513 300 505 293 l 518 307 q 522 320 522 315 q 521 333 521 328 q 521 340 521 338 q 522 346 521 345 l 544 382 q 552 404 547 391 q 561 429 556 416 q 569 455 565 441 q 577 479 574 468 q 585 500 581 488 q 592 526 588 513 q 602 550 596 538 q 614 569 607 562 q 612 578 612 570 l 612 611 q 613 617 612 614 q 614 623 613 620 q 615 629 614 625 q 618 640 616 634 q 622 651 620 646 q 625 661 624 657 l 633 677 l 633 710 q 642 718 637 713 q 648 726 648 723 q 667 791 659 755 q 674 863 674 828 l 674 876 q 661 893 668 885 q 639 905 653 901 q 612 907 629 907 q 590 908 602 907 q 569 912 578 909 q 553 923 559 916 q 547 943 547 930 q 551 960 547 954 q 562 970 555 966 q 577 975 568 974 q 595 976 586 976 l 715 961 q 775 975 745 961 q 804 984 791 979 q 830 988 818 988 q 864 978 848 980 q 897 975 880 975 l 911 975 q 919 975 916 975 q 928 976 923 975 q 934 972 931 975 q 939 970 937 971 q 941 967 941 968 q 945 956 943 962 q 947 943 947 949 q 941 919 947 928 q 931 905 938 911 q 921 897 924 899 l 882 897 l 865 901 q 858 900 863 901 q 846 898 852 899 q 834 896 840 897 q 826 894 829 895 q 800 865 810 881 q 782 830 789 848 q 771 794 775 812 q 764 757 766 775 q 760 749 764 752 l 740 720 q 733 702 733 713 q 733 692 733 697 q 732 682 733 687 q 726 674 730 677 q 719 668 723 671 q 711 663 715 665 q 706 656 708 660 l 707 631 q 704 598 707 614 q 687 574 700 583 l 672 515 q 646 480 658 501 q 625 439 634 458 q 621 423 622 431 q 620 408 621 415 q 615 392 618 400 q 604 376 612 385 q 601 352 604 363 q 594 329 598 340 q 583 306 589 318 q 571 281 577 294 q 559 248 565 267 q 545 216 553 230 l 534 201 q 528 190 529 195 q 528 180 528 186 q 529 169 529 175 q 528 155 529 160 q 528 148 528 151 q 526 141 528 146 q 523 132 525 137 q 520 124 522 127 q 518 119 519 120 l 513 108 q 508 87 511 102 q 502 57 505 73 q 494 26 498 41 q 488 7 490 12 q 467 -28 480 -17 q 429 -39 454 -39 q 417 -32 422 -39 q 407 -17 412 -26 q 400 1 403 -8 q 395 14 397 9 q 390 35 393 19 q 382 68 386 50 q 375 104 378 87 q 368 129 371 121 q 351 193 361 163 q 334 256 340 223 q 328 267 333 262 q 317 274 323 271 q 306 283 311 278 q 299 296 301 288 l 290 357 q 286 369 288 360 q 280 386 283 377 q 275 402 277 395 q 273 412 273 410 q 262 438 270 426 q 254 465 254 450 l 256 473 z "},"W":{"ha":1327,"x_min":23,"x_max":1371,"o":"m 629 684 l 595 780 l 581 806 q 571 846 574 826 q 560 884 568 866 q 544 895 556 892 q 519 900 532 897 q 496 907 506 902 q 486 926 486 912 q 494 945 486 940 q 513 950 502 950 q 541 949 528 950 q 568 945 553 949 q 587 943 577 944 q 610 942 597 942 l 631 942 q 652 943 648 942 q 675 949 663 948 q 699 950 687 950 l 713 950 q 738 947 730 947 q 748 947 745 947 q 801 959 779 954 q 846 963 823 963 q 854 962 848 963 q 865 960 860 962 q 875 956 871 958 q 880 950 880 954 q 887 938 884 944 q 890 926 890 932 q 887 914 890 920 q 880 902 884 908 q 869 895 875 899 q 861 892 864 892 l 833 900 q 803 896 819 900 q 773 884 787 892 q 751 863 760 876 q 742 833 742 850 l 742 823 q 747 798 745 809 q 751 775 749 786 q 753 753 752 765 q 755 728 754 742 l 756 715 q 760 697 756 708 q 769 675 764 686 q 780 653 774 663 q 788 636 785 642 q 798 601 793 619 q 807 564 802 583 q 816 527 811 545 q 828 492 821 509 q 828 456 828 471 q 831 434 829 441 q 834 429 831 433 q 839 422 836 426 q 844 414 842 418 q 846 410 846 411 q 849 402 846 408 q 853 389 851 396 q 858 376 856 382 q 861 370 861 370 q 863 356 862 365 q 867 337 865 347 q 874 321 870 328 q 886 315 879 315 q 913 322 903 315 q 928 342 922 330 q 938 366 934 353 q 947 387 942 378 l 965 410 q 967 415 966 411 q 969 424 968 419 q 969 434 969 429 q 970 440 970 438 q 977 447 971 443 q 984 453 983 452 q 990 471 988 458 q 997 498 993 484 q 1005 528 1000 513 q 1019 553 1010 543 q 1025 561 1022 555 q 1027 567 1027 566 q 1030 578 1028 570 q 1034 595 1032 586 q 1038 612 1036 604 q 1039 622 1039 620 l 1047 631 q 1051 639 1048 631 q 1059 657 1055 646 q 1068 679 1063 667 q 1074 697 1072 690 q 1095 729 1082 714 q 1114 762 1108 744 l 1122 812 q 1131 831 1128 825 q 1134 844 1134 836 q 1133 854 1134 851 q 1132 860 1133 857 q 1120 876 1129 872 q 1109 880 1111 880 l 1076 888 q 1058 888 1066 888 q 1043 889 1050 888 q 1027 890 1036 889 q 1007 892 1018 890 q 1000 905 1004 897 q 996 921 996 913 q 1003 937 996 929 q 1021 950 1010 944 q 1041 959 1031 956 q 1057 963 1051 963 q 1112 961 1082 963 q 1168 947 1142 958 l 1227 960 q 1241 953 1234 960 q 1254 947 1248 947 q 1260 950 1257 947 q 1267 954 1264 953 q 1309 971 1286 963 q 1354 979 1332 979 q 1366 974 1361 979 q 1371 960 1371 968 q 1369 947 1371 954 q 1362 933 1367 940 q 1352 922 1358 926 q 1341 918 1347 918 q 1326 910 1333 916 q 1314 901 1320 905 q 1301 892 1308 896 q 1288 888 1295 888 q 1283 888 1285 888 q 1280 889 1280 888 q 1275 887 1279 889 q 1264 883 1270 886 q 1252 875 1258 880 q 1242 866 1246 871 q 1223 842 1230 850 q 1211 819 1216 833 q 1180 753 1194 785 q 1148 684 1166 721 q 1136 647 1139 667 q 1127 610 1133 628 q 1108 575 1121 593 q 1087 538 1095 557 q 1077 516 1082 527 q 1068 494 1073 505 q 1059 472 1064 484 q 1047 448 1054 461 q 1030 418 1041 434 q 1015 387 1020 402 q 1005 356 1009 372 q 999 325 1002 340 q 991 293 996 309 q 981 265 987 278 q 974 257 979 263 q 963 243 969 250 q 952 229 957 235 q 947 222 947 223 l 944 182 q 928 163 938 170 q 912 142 918 156 q 908 114 909 131 q 905 80 907 98 q 900 48 903 63 q 890 24 897 33 q 882 15 887 20 q 871 3 876 9 q 861 -6 865 -2 q 856 -9 857 -9 q 849 -13 853 -12 q 841 -14 845 -14 q 816 -9 828 -14 q 803 2 809 -8 q 793 27 798 12 q 784 58 788 41 q 776 91 779 75 q 771 118 773 106 q 768 134 768 130 l 764 196 q 761 206 764 198 q 756 222 759 214 q 750 238 753 231 q 748 246 748 245 q 738 298 741 273 q 732 347 736 323 q 728 354 732 350 q 720 363 724 358 q 711 377 717 369 q 703 387 705 385 q 702 398 703 389 q 699 410 700 407 q 697 416 699 410 q 695 422 696 421 l 685 422 q 665 412 673 422 q 649 389 656 402 q 635 361 642 375 q 624 340 629 348 q 618 335 623 338 q 610 326 614 331 q 602 315 606 321 q 595 304 597 309 l 591 269 q 588 263 591 267 q 583 256 586 260 q 578 248 581 252 q 576 243 576 244 q 572 219 573 231 q 563 196 570 207 q 559 191 562 192 q 555 188 557 189 q 551 184 553 186 q 547 177 549 182 q 544 164 547 172 q 539 148 542 156 q 535 133 537 139 q 533 124 533 126 l 533 87 q 533 83 533 85 q 532 80 532 81 q 524 49 529 68 q 510 12 518 30 q 491 -18 502 -5 q 465 -31 479 -31 q 446 -23 456 -31 q 424 -4 435 -15 q 406 20 414 7 q 394 41 397 32 q 386 69 389 55 q 381 98 383 83 q 378 127 380 112 q 372 156 376 142 q 366 171 370 164 q 357 184 361 178 q 348 198 352 191 q 342 212 344 205 q 330 250 336 232 q 315 285 323 268 q 298 320 307 302 q 282 357 290 337 q 281 364 282 360 q 280 370 280 368 l 280 405 q 275 418 279 411 q 267 434 271 426 q 257 449 262 441 q 250 463 252 456 q 248 467 250 463 q 245 474 246 471 q 233 516 239 496 q 220 557 227 536 q 207 598 213 577 q 198 641 201 618 q 187 656 191 648 q 181 674 183 665 q 177 692 179 683 q 172 711 175 702 q 154 755 163 733 q 136 797 146 777 q 114 837 126 817 q 84 874 102 856 q 66 881 77 880 q 47 884 56 882 q 31 891 38 886 q 24 907 24 895 l 23 924 q 30 937 23 930 q 44 944 35 941 q 62 948 53 946 q 81 950 72 949 q 98 950 91 950 q 108 948 102 949 q 115 947 113 947 l 116 947 q 173 952 143 947 q 229 960 202 957 l 282 954 l 323 960 l 397 950 q 413 936 411 946 q 416 915 416 926 l 416 902 l 408 892 l 342 892 q 325 882 333 886 q 309 873 316 878 q 298 859 302 867 q 294 838 294 851 q 297 826 294 831 q 303 817 300 821 q 310 808 307 812 q 315 798 314 803 q 321 767 319 782 q 326 738 323 753 q 331 707 328 722 q 342 675 335 692 q 349 661 343 671 q 360 638 354 650 q 370 615 366 626 q 375 601 375 605 l 385 528 l 416 484 q 417 478 416 482 q 418 468 418 473 q 420 459 419 463 q 420 453 420 454 q 430 406 424 430 q 446 361 437 382 l 459 337 q 464 329 460 334 q 470 317 467 323 q 476 307 473 311 q 481 300 479 302 q 486 288 484 296 q 491 273 488 280 q 497 261 493 266 q 507 256 500 256 q 522 260 515 256 q 538 278 529 264 q 545 287 539 281 q 556 301 550 294 q 568 316 563 309 q 576 326 574 323 q 579 348 576 339 q 588 365 583 357 q 599 381 593 373 q 608 400 604 389 l 635 484 q 642 504 638 494 q 650 524 646 514 q 656 545 654 534 q 659 569 659 556 q 654 597 659 584 q 644 624 650 611 q 634 651 639 637 q 629 680 629 665 l 629 684 z "},"X":{"ha":1122,"x_min":24,"x_max":1111,"o":"m 24 20 q 35 46 24 36 q 61 64 45 57 q 99 75 78 71 q 140 82 119 79 q 178 88 160 85 q 209 96 197 92 q 236 113 220 101 q 268 140 252 125 q 297 170 283 155 q 317 197 310 185 q 317 201 317 197 q 319 208 318 204 q 320 215 319 212 q 321 218 321 218 q 333 240 326 231 q 348 256 340 249 q 366 271 357 264 q 384 288 375 279 q 394 304 390 294 q 403 325 399 315 q 414 342 408 334 q 431 353 420 351 q 438 357 434 353 q 444 363 441 361 l 453 378 q 465 394 456 385 q 485 412 474 404 q 506 428 495 420 q 524 437 517 435 q 528 445 528 437 q 521 463 528 452 q 505 486 515 474 q 485 508 495 497 q 466 527 474 519 q 448 550 448 545 q 447 555 448 551 q 444 564 446 559 q 441 572 443 568 q 440 576 440 576 q 434 581 439 578 q 425 588 430 585 q 416 594 420 591 q 412 598 412 597 l 384 645 l 361 663 q 343 687 350 673 q 326 712 337 701 l 288 749 q 282 771 286 764 q 275 782 279 778 q 265 788 271 785 q 252 799 260 791 l 241 820 q 210 849 226 838 q 169 861 194 861 l 68 861 q 56 865 60 861 q 48 875 51 869 q 43 888 45 881 q 42 900 42 895 q 50 926 42 916 q 70 940 58 935 q 95 945 81 944 q 122 947 109 947 q 138 946 132 947 q 151 937 143 945 l 252 937 q 265 933 260 934 q 281 932 271 932 l 353 937 q 373 937 359 937 q 407 935 388 936 q 446 932 425 934 q 484 929 467 931 q 512 925 500 928 q 523 921 523 923 q 526 913 524 916 q 527 908 527 911 q 526 899 527 905 q 523 890 524 894 q 507 876 520 881 q 478 866 494 871 q 451 852 463 861 q 439 827 439 844 q 444 801 439 813 q 457 777 450 788 q 474 754 465 765 q 492 733 484 744 q 494 729 492 733 q 495 724 495 725 q 523 674 506 696 q 556 630 541 652 q 558 623 556 625 q 561 619 559 621 q 562 608 561 616 q 566 598 562 600 q 575 591 568 595 q 589 585 581 588 q 603 578 596 581 q 614 572 610 574 l 623 568 q 644 586 632 571 q 670 623 656 601 q 696 670 683 644 q 723 721 710 696 q 745 766 735 745 q 762 799 755 787 q 774 815 768 810 q 781 833 781 821 q 779 843 781 836 q 773 860 777 851 q 767 874 770 868 q 762 881 764 881 q 746 877 753 880 q 730 874 739 874 q 711 877 721 874 q 691 881 702 880 q 681 887 686 884 q 673 892 677 889 q 668 900 670 895 q 666 911 666 904 q 668 926 666 919 q 679 934 669 934 q 721 939 696 937 q 777 941 746 941 q 849 939 810 941 q 930 934 888 937 q 988 940 960 937 q 1043 943 1017 943 q 1066 938 1058 943 q 1074 914 1074 932 q 1067 899 1074 905 q 1049 889 1060 892 q 1025 883 1038 885 q 999 879 1011 880 q 977 874 987 877 q 963 868 967 872 l 927 833 l 903 821 q 886 805 895 815 q 867 783 876 794 q 851 760 859 771 q 840 739 844 748 q 839 729 840 736 q 836 720 838 722 q 829 718 834 719 q 823 717 823 717 q 799 695 812 709 q 775 673 786 682 q 767 650 768 663 q 759 630 766 638 l 727 598 q 704 565 713 581 q 677 532 694 550 q 665 511 665 520 q 678 472 665 493 q 706 432 690 452 q 736 397 722 413 q 752 374 750 382 l 780 323 q 801 298 787 310 q 823 277 814 286 q 841 241 834 258 q 859 205 848 223 q 870 195 861 199 q 883 186 879 190 q 922 144 907 159 q 945 122 937 130 q 955 112 953 114 q 958 108 958 110 l 992 79 q 1021 67 1006 71 q 1052 60 1036 64 q 1082 52 1067 56 q 1111 40 1097 48 l 1111 24 q 1107 11 1111 16 q 1097 4 1103 6 q 1083 1 1091 1 q 1067 0 1076 0 l 1050 0 q 1033 2 1042 0 q 1014 7 1024 5 q 994 12 1004 9 q 975 14 984 14 q 957 12 966 14 q 937 9 948 9 l 903 18 l 862 14 l 848 14 q 838 15 842 14 q 831 18 835 15 l 798 18 l 667 9 l 654 9 q 643 11 649 9 q 631 13 637 12 q 622 18 626 15 q 618 24 618 20 q 627 37 618 30 q 649 51 636 43 q 677 67 662 58 q 705 84 692 75 q 727 101 718 92 q 736 119 736 111 q 734 127 736 123 q 731 136 732 132 q 727 146 729 141 q 723 153 727 149 q 714 161 719 157 q 705 169 709 165 q 699 175 701 173 q 693 190 695 182 q 689 205 691 197 q 686 219 688 212 q 679 231 684 226 q 674 235 677 232 q 667 241 671 237 q 660 248 663 245 q 656 252 656 251 l 656 271 q 643 296 651 284 q 625 318 634 307 q 607 341 616 330 q 593 367 599 353 q 587 380 591 370 q 576 401 582 391 q 565 420 570 412 q 556 428 559 428 q 514 372 531 402 q 479 311 497 341 q 433 235 454 271 q 400 159 412 198 q 398 153 399 157 q 397 146 397 149 q 392 142 395 146 q 387 136 388 137 q 394 113 387 122 q 411 97 401 104 q 433 85 421 91 q 456 74 446 80 q 473 60 466 68 q 479 40 479 52 q 468 22 479 28 q 448 14 457 17 q 440 11 447 13 q 426 8 434 9 q 409 5 417 6 q 397 3 401 3 l 394 3 q 347 11 370 3 q 301 18 324 18 l 220 0 q 214 1 217 1 q 209 3 212 2 q 204 3 206 3 q 177 0 192 3 q 146 -9 161 -4 q 117 -17 131 -14 q 95 -21 104 -21 q 72 -16 84 -20 q 56 -13 59 -13 q 41 -7 47 -9 q 32 -3 35 -5 q 26 5 28 0 q 24 20 24 9 z "},"Y":{"ha":945,"x_min":37,"x_max":996,"o":"m 207 52 q 215 66 207 60 q 235 76 224 73 q 258 82 247 80 q 276 83 270 83 l 303 80 q 322 85 311 84 q 343 90 333 87 q 362 98 354 92 q 372 115 371 103 l 372 134 l 385 146 q 383 156 385 153 q 378 162 380 160 l 378 227 l 385 300 l 385 328 q 377 410 385 372 q 338 477 368 444 q 335 490 338 484 q 329 504 332 496 q 323 517 326 511 q 319 530 320 524 l 319 559 l 311 570 q 296 585 304 576 q 280 603 288 593 q 266 624 272 613 q 255 643 259 634 q 252 650 254 643 q 251 659 251 656 q 239 692 248 674 q 220 729 231 711 q 197 766 209 748 q 175 797 185 783 q 169 813 170 804 q 166 830 168 821 q 161 846 165 838 q 149 861 158 854 q 119 874 138 868 q 82 887 100 880 q 50 905 64 894 q 37 932 37 916 q 42 947 37 940 q 55 959 47 954 q 71 967 62 964 q 87 970 80 970 q 113 967 99 970 q 141 962 127 963 l 188 962 q 252 952 220 959 q 315 945 283 945 l 377 958 q 394 957 385 958 q 413 952 404 956 q 429 942 422 948 q 435 927 435 936 q 427 906 435 915 q 407 891 419 898 q 381 879 395 885 q 356 866 368 873 q 336 848 344 859 q 328 823 328 838 q 331 805 328 819 q 341 773 335 791 q 355 733 347 754 q 370 695 362 713 q 384 664 377 677 q 395 649 391 651 q 402 630 397 643 q 415 603 408 617 q 428 577 422 589 q 438 559 435 565 q 445 545 439 556 q 458 522 451 534 q 473 500 466 509 q 484 490 480 490 q 501 498 490 490 q 523 516 511 505 q 543 537 534 526 q 556 555 552 548 q 558 565 557 557 q 559 574 559 572 q 561 578 559 575 q 564 581 562 581 q 571 590 565 583 q 583 604 576 597 q 596 617 590 611 q 604 627 602 624 q 614 659 606 644 q 632 688 623 673 q 652 716 642 702 q 667 746 661 730 q 678 774 674 762 q 686 800 682 786 l 696 821 q 691 836 696 827 q 681 854 687 845 q 669 870 675 863 q 659 880 663 877 l 656 880 q 646 879 652 880 q 635 879 641 879 q 614 880 625 879 q 596 885 604 881 q 584 895 589 888 q 578 911 578 901 q 584 934 578 922 q 601 945 589 945 q 606 943 602 945 q 610 940 609 941 l 612 940 q 633 943 624 940 q 652 945 643 945 l 760 940 q 804 941 784 940 q 847 945 823 941 q 854 946 848 945 q 866 949 859 947 q 879 951 872 950 q 890 953 886 952 q 899 951 896 953 q 909 945 902 950 l 956 940 q 968 938 962 939 q 981 933 975 937 q 992 925 987 930 q 996 913 996 920 q 992 905 996 910 q 987 897 988 901 q 978 891 984 895 q 965 885 972 888 q 951 879 958 882 q 941 876 945 876 q 921 861 932 866 q 894 854 909 855 q 858 844 873 850 q 829 826 844 838 q 820 816 823 821 q 816 808 816 812 l 770 762 q 764 749 768 753 q 756 743 760 745 q 747 739 751 741 q 739 731 743 737 q 733 718 735 725 q 728 702 730 710 q 724 687 726 694 q 717 675 722 680 l 667 621 q 662 611 664 617 q 661 595 661 604 q 661 581 661 587 q 659 574 661 575 q 645 553 656 563 q 621 533 634 543 q 595 513 607 524 q 578 490 583 503 l 567 455 q 556 439 561 445 q 547 428 551 433 q 541 416 543 423 q 538 394 538 408 l 549 317 l 538 224 q 539 197 538 212 q 540 169 539 183 q 544 140 541 154 q 549 115 546 126 q 562 110 555 111 q 572 108 568 109 l 585 93 q 601 87 588 90 q 631 81 614 84 q 669 75 649 78 q 705 67 688 71 q 733 60 722 64 q 744 53 744 56 q 747 45 746 50 q 747 37 747 41 q 747 28 747 32 q 744 19 746 24 q 741 17 744 18 q 735 14 739 16 q 728 10 732 12 q 723 6 725 8 q 716 4 720 6 q 711 0 711 1 l 681 0 q 608 1 644 0 q 538 9 573 2 q 483 19 508 15 q 437 22 458 22 q 396 18 416 22 q 356 9 376 14 q 318 1 337 5 q 278 -3 298 -3 l 262 -3 q 234 -1 248 -3 q 212 12 220 1 q 208 29 208 18 q 207 52 207 41 z "},"Z":{"ha":987,"x_min":54,"x_max":943,"o":"m 73 11 q 73 16 73 12 q 73 22 73 19 q 72 29 73 26 q 72 33 72 32 l 72 42 q 73 56 72 50 q 79 69 75 62 q 92 83 82 72 q 113 108 102 95 q 134 133 124 121 q 144 148 143 144 q 159 168 151 157 q 175 191 168 179 q 188 215 182 203 q 197 239 194 227 q 209 251 201 242 q 227 268 218 259 q 244 286 237 277 q 255 298 252 294 q 278 330 269 313 q 301 363 288 347 q 310 372 302 365 q 325 386 317 378 q 339 400 332 393 q 347 408 346 406 q 348 414 347 410 q 351 422 349 418 q 353 430 352 427 q 355 435 354 434 q 358 439 355 436 q 364 445 361 441 q 370 451 367 448 q 375 454 374 454 q 381 465 376 456 q 393 483 387 473 q 406 502 400 493 q 414 513 412 511 q 417 519 414 515 q 423 527 420 523 q 429 535 426 532 q 433 540 432 538 q 440 547 435 543 q 446 553 445 551 q 450 554 447 553 q 456 556 453 555 q 463 557 460 557 q 465 558 465 558 q 467 564 466 559 q 469 572 468 568 q 470 581 469 577 q 472 585 471 585 q 475 589 473 586 q 481 595 478 592 q 488 601 485 598 q 492 604 491 604 q 493 610 492 606 q 495 618 494 614 q 497 626 496 623 q 498 631 498 630 l 500 634 q 503 636 502 635 q 505 637 504 636 q 508 640 505 637 q 514 644 511 642 q 520 648 517 646 q 524 650 523 650 q 530 655 528 653 q 532 661 532 658 q 533 667 532 663 q 538 675 534 670 q 547 694 541 684 q 559 713 552 705 q 576 728 567 722 q 597 736 585 734 q 603 748 598 739 q 612 768 607 758 q 622 788 617 779 q 628 800 626 797 q 634 815 633 810 q 635 831 635 821 q 631 844 635 839 q 620 852 627 849 q 605 856 613 854 q 589 859 597 857 l 583 859 q 566 855 574 859 q 551 852 559 852 q 546 852 547 852 q 544 853 545 852 q 537 856 542 853 q 531 859 532 859 q 526 858 530 859 q 517 856 522 857 q 510 854 513 854 q 505 853 506 853 q 488 852 501 852 q 458 850 474 851 q 430 848 443 849 q 414 846 416 846 q 408 845 412 846 q 400 843 404 844 q 392 842 396 842 q 388 841 389 841 q 377 843 385 841 q 368 846 370 845 l 263 846 q 256 843 261 846 q 245 838 251 841 q 233 831 239 835 q 224 826 227 828 q 212 816 221 825 q 191 795 202 807 q 168 772 179 783 q 151 754 157 760 q 137 730 144 747 q 119 695 129 713 q 98 666 110 678 q 73 657 87 654 q 64 663 68 659 q 58 674 60 668 q 55 686 56 680 q 54 696 54 692 q 58 718 54 707 q 67 739 62 728 q 78 760 73 749 q 86 780 83 770 q 87 787 86 782 q 89 797 88 791 q 91 807 90 803 q 92 813 92 812 q 96 821 93 815 q 102 833 99 827 q 109 846 106 840 q 112 853 111 852 q 117 877 116 866 q 118 897 117 888 q 123 914 119 906 q 138 930 127 922 q 143 931 140 931 q 152 932 147 932 q 160 932 157 932 q 166 932 164 932 q 210 927 187 932 q 250 905 233 922 l 283 905 q 327 909 305 905 q 371 913 349 913 q 389 909 380 913 q 408 905 398 905 l 414 905 q 419 907 414 905 q 429 912 423 909 q 439 916 435 914 q 446 918 444 918 q 451 917 447 918 q 459 915 454 916 q 467 913 463 914 q 472 913 471 913 l 479 913 q 499 915 490 913 q 520 918 509 918 l 531 918 q 591 908 562 912 q 655 905 621 905 l 661 905 q 665 906 662 905 q 671 909 668 907 q 677 911 675 910 q 681 913 680 913 q 704 912 686 913 q 741 911 723 911 q 756 911 750 911 q 766 913 762 911 q 783 917 774 913 q 801 925 792 921 q 819 933 810 930 q 837 937 828 937 l 844 937 q 851 936 847 937 q 860 934 856 935 q 867 932 864 933 q 870 930 870 931 q 873 925 871 930 q 879 914 876 920 q 885 902 882 908 q 890 892 888 896 l 890 887 q 884 868 890 878 q 871 851 879 859 q 856 837 864 844 q 844 826 848 831 q 789 753 812 791 q 740 675 766 715 q 694 621 720 646 q 648 566 668 595 q 644 555 646 564 q 642 545 642 547 q 638 543 641 545 q 635 540 636 540 q 631 537 634 539 q 625 534 629 536 q 619 530 622 532 q 615 527 616 528 q 605 517 611 524 q 593 505 599 511 q 582 493 587 498 q 576 487 577 488 q 572 478 575 486 q 566 462 569 471 q 560 445 563 453 q 557 435 557 437 q 542 411 552 423 q 524 389 532 399 q 508 369 519 384 q 482 338 496 355 q 456 306 469 321 q 439 285 444 291 l 433 272 q 420 255 433 271 q 391 219 408 240 q 357 177 374 199 q 329 141 340 155 q 318 130 323 134 q 310 121 313 125 q 303 110 306 116 q 301 95 301 104 q 306 86 301 90 q 318 81 311 83 q 332 78 325 79 q 342 76 338 77 q 347 75 342 76 q 358 73 352 74 q 368 71 363 72 q 375 69 373 70 q 379 67 375 69 q 387 63 382 66 q 395 59 391 61 q 401 56 399 57 l 403 56 l 406 56 q 455 72 431 64 q 505 82 479 81 q 517 82 509 82 q 534 83 524 83 q 556 83 545 83 q 580 83 568 83 q 625 83 604 83 q 655 82 646 82 q 661 86 656 84 q 668 89 665 89 q 674 86 669 89 q 681 82 680 83 l 684 82 l 688 82 q 691 85 688 83 q 697 89 694 87 q 703 93 700 92 q 707 95 706 95 q 713 93 708 96 q 720 89 718 89 l 723 89 l 727 89 q 733 96 728 91 q 742 106 737 101 q 752 116 747 111 q 760 122 758 120 q 766 125 763 123 q 770 127 768 126 q 772 128 772 127 q 775 133 773 129 q 779 141 777 137 q 783 150 781 146 q 785 154 785 153 q 788 158 786 155 q 792 164 789 161 q 796 170 794 168 q 798 174 798 173 q 805 188 800 176 q 818 213 811 200 q 830 238 824 227 q 837 252 836 250 q 849 265 839 256 q 872 283 860 274 q 896 298 884 292 q 912 305 907 305 q 928 299 922 305 q 937 283 934 292 q 942 265 941 275 q 943 250 943 256 q 943 244 943 248 q 941 239 943 241 q 932 220 939 234 q 919 191 926 206 q 905 161 911 175 q 897 141 899 146 q 880 94 886 117 q 865 54 874 72 q 838 25 855 37 q 785 11 820 14 l 774 11 l 758 11 q 745 10 751 11 q 732 5 740 9 l 335 5 q 321 2 331 3 q 302 0 312 1 q 282 -1 292 -1 q 271 -2 273 -2 q 261 -1 269 -2 q 247 1 254 0 q 232 3 239 2 q 224 5 226 4 l 216 5 l 210 5 q 200 1 208 3 q 192 -2 193 -2 l 144 -2 l 99 -2 q 86 1 96 -2 q 73 11 77 4 z "},"[":{"ha":587,"x_min":119,"x_max":636,"o":"m 578 974 q 589 966 587 972 q 591 953 591 960 l 591 943 q 590 917 591 928 q 583 889 589 905 q 578 883 582 886 q 571 880 575 881 q 563 877 567 878 q 558 876 559 876 q 513 871 534 872 q 470 869 492 869 l 435 869 q 416 863 426 863 l 409 863 q 380 867 393 863 q 353 871 366 871 q 343 871 349 871 q 335 869 336 871 q 320 868 329 869 q 301 866 311 867 q 285 864 292 865 q 276 863 277 863 q 271 860 275 863 q 263 852 267 857 q 255 844 259 848 q 250 838 252 840 q 245 811 246 829 q 243 779 243 794 l 243 764 q 245 694 243 732 q 250 629 247 656 q 252 622 250 627 q 257 611 254 617 q 261 601 259 606 q 263 596 263 597 l 263 585 q 261 573 263 578 q 250 563 260 568 l 250 517 q 249 512 250 516 q 247 504 248 509 q 244 496 245 500 q 243 492 243 492 q 244 485 243 490 q 244 473 244 479 q 244 459 244 467 q 245 445 245 452 q 245 432 245 437 q 243 426 245 427 q 242 421 243 425 q 238 413 240 417 q 233 405 235 408 q 231 400 231 401 l 231 397 l 231 393 q 232 389 231 393 q 234 380 233 385 q 236 372 235 376 q 237 367 237 368 l 237 339 l 237 328 q 238 323 237 327 q 240 314 239 319 q 242 306 241 310 q 243 302 243 302 l 243 296 l 243 289 q 242 284 243 288 q 240 276 241 280 q 238 268 239 271 q 237 263 237 264 l 237 259 l 237 257 q 238 245 237 254 q 240 227 239 237 q 242 209 241 217 q 243 197 243 200 q 244 187 243 196 q 244 166 244 178 q 245 144 245 155 q 245 125 245 132 q 245 111 245 121 q 244 90 245 101 q 244 68 244 79 q 243 54 243 58 q 240 41 242 51 q 237 28 237 31 q 237 16 237 25 q 237 -5 237 6 q 237 -25 237 -16 q 237 -37 237 -34 q 229 -47 234 -41 q 224 -56 224 -54 q 228 -67 224 -59 q 231 -76 231 -75 q 234 -110 234 -93 q 243 -143 234 -127 q 248 -148 245 -144 q 254 -155 251 -151 q 260 -163 258 -159 q 263 -168 263 -167 q 266 -175 264 -170 q 271 -188 269 -181 q 274 -200 273 -195 q 276 -206 276 -205 q 287 -216 279 -211 q 296 -222 294 -220 q 313 -223 301 -222 q 338 -225 325 -224 q 364 -227 352 -226 q 380 -228 376 -228 l 391 -228 l 401 -228 q 411 -227 403 -228 q 427 -225 418 -226 q 444 -223 436 -224 q 452 -222 451 -222 q 457 -220 454 -220 q 465 -220 460 -220 q 486 -221 475 -220 q 498 -222 496 -222 q 508 -218 500 -220 q 519 -215 516 -215 l 534 -215 l 552 -215 q 561 -218 553 -215 q 570 -222 568 -220 q 577 -221 571 -222 q 589 -220 584 -220 q 594 -220 592 -220 q 597 -222 597 -220 q 617 -230 610 -223 q 629 -247 625 -237 q 634 -269 633 -257 q 636 -290 636 -280 l 636 -294 q 615 -312 627 -305 q 591 -321 604 -318 q 564 -325 578 -324 q 536 -326 550 -326 q 477 -324 506 -326 q 418 -318 448 -321 q 360 -313 389 -315 q 302 -311 331 -311 l 256 -311 q 252 -312 256 -311 q 244 -315 249 -313 q 236 -318 240 -317 q 231 -319 232 -319 q 201 -316 217 -319 q 171 -304 184 -312 q 148 -285 157 -297 q 139 -257 139 -273 q 142 -186 139 -222 q 146 -115 146 -151 q 140 -53 146 -84 q 133 8 135 -22 l 133 27 l 133 74 q 132 89 133 77 q 130 116 131 102 q 128 143 129 130 q 126 159 127 155 l 126 161 l 126 165 q 127 185 127 172 q 129 217 128 199 q 130 253 130 234 q 131 290 131 272 q 132 321 132 307 q 133 341 133 334 q 137 351 135 343 q 139 361 139 358 l 139 363 l 139 367 q 133 377 138 369 q 126 387 129 385 l 126 596 q 130 605 127 597 q 133 615 133 612 q 132 625 133 617 q 130 641 131 633 q 127 657 128 650 q 126 667 126 665 l 126 785 q 125 789 126 785 q 123 798 124 793 q 121 807 122 803 q 120 810 120 810 q 120 819 120 811 q 119 836 119 826 q 119 854 119 845 q 119 869 119 864 q 119 882 119 873 q 119 900 119 890 q 120 917 119 909 q 120 928 120 924 q 140 945 130 940 q 162 952 151 951 q 185 954 173 954 q 210 955 197 954 q 219 956 212 955 q 234 958 227 957 q 249 960 242 959 q 256 961 255 961 l 276 961 l 330 961 q 339 964 332 961 q 348 968 347 968 q 365 969 352 968 q 394 971 378 970 q 425 973 410 972 q 448 974 439 974 l 459 974 l 493 974 q 502 978 494 975 q 511 981 510 981 l 519 981 l 524 981 q 535 980 527 981 q 551 978 543 979 q 567 976 559 977 q 578 974 574 975 z "},"\\":{"ha":399,"x_min":-109,"x_max":471,"o":"m 376 -302 q 372 -286 374 -290 q 366 -278 369 -281 q 360 -271 363 -275 q 353 -256 357 -267 l 353 -236 q 348 -221 351 -227 q 339 -210 344 -215 q 329 -201 334 -205 q 320 -189 324 -197 q 315 -179 317 -186 q 312 -165 313 -172 q 311 -150 311 -157 q 311 -136 311 -142 l 311 -119 q 302 -109 306 -116 q 298 -94 298 -101 l 285 -69 q 278 -59 282 -66 q 273 -47 273 -52 q 276 -39 273 -43 q 278 -34 278 -35 q 275 -13 278 -21 q 269 2 273 -4 q 261 14 265 9 q 253 24 256 18 q 250 44 251 31 q 247 69 248 56 q 242 94 245 82 q 235 111 240 105 q 231 114 235 111 q 221 122 227 117 q 211 131 216 127 q 206 137 207 135 l 201 164 q 199 168 201 165 q 194 173 197 171 q 188 178 191 176 q 185 180 186 180 q 178 202 178 188 l 179 231 q 178 250 179 242 q 172 267 176 258 q 159 282 168 273 q 143 303 151 292 q 128 323 135 314 q 119 339 121 333 q 116 363 117 351 q 105 389 116 376 q 97 405 99 399 q 93 415 94 410 q 89 427 92 420 q 81 444 87 433 l 81 463 l 54 541 q 47 549 50 545 q 41 562 43 554 q 41 582 41 576 q 42 593 41 588 q 8 667 16 625 l 8 690 q 7 701 8 697 q 0 709 6 705 q -14 727 -5 716 q -31 750 -22 738 q -48 774 -40 762 q -60 794 -56 785 q -61 821 -60 814 q -64 833 -61 827 q -76 848 -71 842 q -86 861 -82 854 q -94 874 -91 867 q -96 893 -96 882 l -96 929 q -100 933 -98 930 q -104 940 -102 937 q -107 947 -106 944 q -109 951 -109 951 l -109 995 q -85 1005 -99 1000 q -61 1010 -72 1010 q -26 1001 -40 1010 q 0 976 -13 991 q 7 961 2 976 q 17 928 12 947 q 25 892 22 909 q 29 871 29 876 q 48 833 37 851 q 66 794 59 814 q 91 717 79 756 q 119 641 104 677 q 131 621 124 629 q 143 605 137 612 q 153 589 149 597 q 157 567 157 580 l 158 553 q 161 546 158 551 q 165 538 164 540 q 178 516 173 530 q 187 486 183 502 q 194 454 191 470 q 201 428 197 439 q 209 407 203 417 q 219 388 214 397 q 230 369 224 378 q 237 347 235 359 q 237 339 237 345 q 241 325 238 334 q 259 269 249 298 q 283 216 269 239 q 292 205 286 218 q 307 171 298 192 q 326 124 315 150 q 346 73 336 98 q 364 28 355 48 q 378 -2 372 7 q 384 -15 381 -9 q 386 -32 386 -21 q 386 -46 386 -41 q 388 -55 387 -51 q 392 -59 389 -56 q 400 -65 395 -62 q 408 -73 404 -69 q 412 -77 411 -76 q 412 -84 412 -79 q 414 -95 413 -89 q 415 -107 414 -101 q 415 -115 415 -113 q 424 -132 418 -125 q 434 -144 431 -138 l 434 -157 q 442 -183 436 -171 q 455 -209 448 -196 q 466 -235 461 -222 q 471 -262 471 -248 q 466 -272 471 -264 q 453 -290 460 -281 q 439 -307 446 -300 q 428 -315 432 -315 l 376 -302 z "},"]":{"ha":621,"x_min":-8,"x_max":509,"o":"m 51 -319 q 40 -311 41 -317 q 38 -298 38 -305 l 38 -289 q 39 -261 38 -273 q 46 -235 40 -250 q 50 -229 46 -232 q 57 -225 53 -227 q 65 -223 62 -224 q 71 -222 69 -222 q 116 -216 94 -217 q 159 -215 137 -215 l 194 -215 q 212 -209 203 -209 l 220 -209 q 248 -212 235 -209 q 276 -216 262 -216 q 286 -216 279 -216 q 294 -215 292 -216 q 309 -214 299 -215 q 327 -212 318 -213 q 343 -210 336 -211 q 352 -209 351 -209 q 357 -205 353 -208 q 365 -198 361 -202 q 373 -190 369 -194 q 378 -183 376 -185 q 384 -157 382 -174 q 385 -124 385 -140 l 385 -109 q 383 -40 385 -77 q 378 26 381 -2 q 376 33 378 28 q 372 43 374 37 q 368 53 370 49 q 365 58 366 58 l 365 69 q 367 82 365 77 q 378 92 368 87 l 378 137 q 379 142 378 138 q 381 151 380 146 q 384 158 383 155 q 385 163 385 162 q 385 170 385 165 q 385 182 385 175 q 384 196 385 189 q 384 210 384 203 q 384 222 384 218 q 385 229 384 227 q 387 234 385 230 q 391 242 389 238 q 395 250 393 246 q 398 254 397 254 l 398 258 l 398 262 q 397 266 398 262 q 394 274 396 270 q 392 282 393 279 q 391 288 391 286 l 391 315 l 391 326 q 390 332 391 328 q 388 340 389 336 q 386 348 387 345 q 385 353 385 352 l 385 359 l 385 366 q 386 371 385 367 q 388 379 387 374 q 390 387 389 383 q 391 392 391 391 l 391 395 l 391 397 q 390 409 391 400 q 388 428 389 418 q 386 446 387 437 q 385 458 385 455 q 385 468 385 459 q 384 488 385 477 q 383 511 383 499 q 382 529 382 522 q 383 543 382 533 q 384 565 383 553 q 385 587 385 576 q 385 601 385 597 q 388 614 386 604 q 391 627 391 624 q 391 639 391 630 q 392 659 392 648 q 391 680 392 670 q 391 692 391 689 q 399 702 394 695 q 404 711 404 708 q 401 722 404 714 q 398 731 398 730 q 395 765 395 748 q 385 798 395 782 q 380 802 384 798 q 374 810 377 806 q 368 818 371 814 q 365 823 366 821 q 362 830 364 825 q 358 843 360 836 q 354 854 356 849 q 352 861 353 860 q 342 870 349 865 q 332 876 335 875 q 315 877 328 876 q 290 879 303 878 q 264 881 277 880 q 248 882 252 882 l 237 882 l 227 882 q 218 881 225 882 q 201 879 210 880 q 185 877 193 878 q 176 876 178 876 q 171 876 175 876 q 163 876 168 876 q 143 876 154 876 q 130 876 132 876 q 120 872 127 875 q 109 869 112 869 l 94 869 l 77 869 q 67 872 75 869 q 59 876 60 875 q 51 876 57 876 q 39 876 44 876 q 31 876 32 876 q 11 885 18 878 q -1 902 3 892 q -6 924 -5 912 q -8 945 -8 935 l -8 948 q 13 966 1 960 q 38 976 24 972 q 65 980 51 979 q 93 981 79 981 q 152 978 122 981 q 210 973 181 976 q 268 968 239 970 q 326 966 297 966 l 372 966 q 376 967 372 966 q 384 970 380 968 q 393 972 389 971 q 398 974 397 974 q 428 970 412 974 q 457 959 444 966 q 480 940 471 951 q 490 911 490 928 q 486 841 490 876 q 482 770 482 806 q 488 708 482 739 q 495 646 494 677 l 495 628 l 495 581 q 496 565 496 577 q 498 539 497 553 q 500 512 499 525 q 503 496 501 500 l 503 494 l 503 489 q 501 469 502 482 q 500 438 500 455 q 498 401 499 420 q 497 365 498 382 q 496 334 496 348 q 495 313 495 320 q 492 304 494 311 q 490 293 490 296 l 490 291 l 490 288 q 495 278 490 286 q 503 267 499 271 l 503 58 q 498 50 500 57 q 495 40 495 43 q 496 30 495 38 q 499 14 497 22 q 502 -3 500 5 q 503 -13 503 -11 l 503 -130 q 503 -135 503 -131 q 505 -143 504 -139 q 507 -152 506 -148 q 508 -156 508 -155 q 509 -164 509 -157 q 509 -181 509 -172 q 509 -200 509 -191 q 509 -215 509 -210 q 509 -228 509 -219 q 509 -245 509 -236 q 509 -262 509 -254 q 508 -273 509 -271 q 488 -291 498 -286 q 467 -298 478 -296 q 443 -300 455 -300 q 418 -300 431 -300 q 409 -301 416 -300 q 394 -303 401 -302 q 380 -306 387 -304 q 372 -307 374 -307 l 352 -307 l 298 -307 q 295 -308 298 -307 q 289 -310 292 -309 q 283 -312 286 -311 q 281 -313 281 -313 q 263 -315 277 -314 q 235 -317 250 -316 q 204 -319 219 -318 q 181 -319 189 -319 l 169 -319 l 135 -319 q 126 -323 134 -320 q 117 -326 119 -326 l 109 -326 l 104 -326 q 93 -325 101 -326 q 77 -322 85 -323 q 62 -320 69 -321 q 51 -319 54 -319 z "},"^":{"ha":654,"x_min":172,"x_max":454,"o":"m 321 670 l 317 670 q 300 655 308 665 q 287 633 293 645 q 276 610 281 622 q 266 590 271 598 q 261 586 264 589 q 255 577 258 582 q 249 569 252 573 q 245 564 246 566 q 237 542 240 554 q 230 518 234 529 q 219 499 226 507 q 197 492 212 492 q 181 497 190 492 q 174 511 172 502 q 182 534 176 524 q 195 555 188 545 q 209 576 202 566 q 220 598 216 587 q 229 633 225 614 q 238 671 233 652 q 250 708 243 690 q 266 741 256 726 q 275 756 269 746 q 289 776 282 766 q 303 795 296 787 q 311 807 309 804 q 321 817 313 810 q 332 826 328 824 q 334 827 332 826 q 335 827 335 827 q 337 827 336 827 q 340 827 338 827 q 345 826 342 826 q 374 817 363 821 q 396 800 385 813 q 399 793 397 798 q 403 787 401 789 q 424 705 414 746 q 441 623 433 665 q 449 598 444 612 q 454 570 454 584 l 454 564 q 453 560 454 564 q 451 552 452 556 q 450 544 450 547 q 449 540 449 541 l 449 535 q 452 516 449 526 q 454 496 454 506 q 450 472 454 483 q 436 453 446 460 q 429 459 434 455 q 418 467 424 463 q 409 474 413 471 q 403 479 404 477 q 399 485 401 480 q 396 493 397 490 q 393 499 395 494 q 389 509 391 504 q 385 519 387 515 q 383 524 383 524 q 380 530 382 526 q 376 538 378 534 q 372 547 374 543 q 370 551 370 551 q 367 563 369 553 q 363 584 365 573 q 359 605 361 595 q 357 616 357 614 q 352 629 355 622 q 345 644 349 637 q 335 659 340 652 q 324 670 330 666 l 321 670 z "},"_":{"ha":655,"x_min":14,"x_max":642,"o":"m 14 -140 l 14 -109 q 14 -87 14 -100 q 19 -61 15 -74 q 32 -39 23 -49 q 57 -28 41 -30 l 102 -28 q 136 -20 120 -25 q 174 -15 153 -15 l 224 -24 q 244 -21 237 -24 q 262 -19 252 -19 q 292 -22 277 -19 q 322 -27 307 -24 q 351 -33 336 -31 q 380 -35 366 -35 l 479 -22 l 517 -28 q 529 -26 524 -28 q 541 -21 533 -24 q 552 -17 548 -18 q 568 -15 557 -15 q 607 -22 589 -15 q 637 -42 626 -28 q 642 -48 642 -44 q 641 -53 642 -51 q 640 -56 640 -55 q 637 -60 638 -58 q 637 -78 637 -69 q 634 -94 636 -86 l 637 -124 l 633 -143 q 614 -155 625 -151 q 592 -162 604 -160 q 569 -166 581 -165 q 546 -167 557 -167 q 498 -164 525 -167 q 450 -161 472 -161 q 195 -167 322 -161 q 138 -172 166 -168 q 83 -177 109 -177 q 62 -174 73 -177 q 42 -165 52 -171 q 24 -154 32 -160 q 14 -140 16 -147 z "},"`":{"ha":726,"x_min":158,"x_max":474,"o":"m 158 937 q 163 961 158 949 q 178 980 169 972 q 198 993 186 988 q 222 998 210 998 q 250 991 237 998 q 274 976 263 985 q 296 955 286 966 q 315 932 306 943 q 318 928 316 930 q 321 924 320 926 q 327 918 323 922 q 334 907 330 913 q 342 895 338 901 q 347 885 346 888 q 350 880 348 884 q 354 872 352 877 q 358 864 356 868 q 360 859 359 861 q 364 856 361 858 q 368 852 366 854 q 388 837 376 846 q 406 819 399 829 q 411 813 407 819 q 419 801 414 808 q 427 788 423 794 q 431 781 431 783 q 437 776 433 779 q 446 768 441 772 q 454 760 450 764 q 460 755 458 756 q 465 740 463 750 q 470 718 468 729 q 473 696 472 707 q 474 681 474 686 q 458 681 467 681 q 439 683 449 682 q 420 687 429 684 q 406 696 412 690 q 403 703 406 698 q 401 709 401 708 q 397 711 400 709 q 391 713 394 712 q 384 715 387 714 q 380 716 380 715 q 374 722 378 717 q 364 732 370 726 q 354 742 359 737 q 347 747 349 747 q 338 751 346 749 q 330 755 331 753 q 311 769 321 760 q 291 786 301 777 q 272 804 281 795 q 256 819 263 813 q 242 832 253 822 q 220 853 232 842 q 197 873 208 864 q 184 885 186 883 q 166 909 174 897 q 158 937 158 922 z "},"a":{"ha":607,"x_min":3,"x_max":595,"o":"m 402 89 q 400 93 401 90 q 397 101 399 97 q 395 109 396 105 q 394 113 394 112 q 393 118 393 115 q 393 127 393 122 q 393 135 393 131 q 394 141 393 139 q 383 157 385 150 q 381 174 381 164 l 381 188 q 380 192 381 189 q 378 196 378 195 q 370 203 376 197 q 361 211 364 210 q 347 217 355 216 q 333 223 339 218 q 327 223 332 223 q 320 224 321 223 q 309 219 315 222 q 301 215 302 216 l 294 211 l 261 215 l 245 215 q 227 212 236 215 q 208 203 217 208 q 191 190 199 197 q 178 176 183 183 q 176 168 177 174 q 174 159 174 161 q 170 151 173 155 q 168 141 168 146 l 166 124 l 161 106 l 168 75 q 170 72 168 74 q 174 67 172 70 q 182 58 182 60 q 184 57 182 58 q 189 56 186 56 q 195 55 192 55 q 198 54 197 54 q 209 54 202 54 q 222 50 216 53 q 233 43 229 47 q 238 31 238 39 q 232 15 238 22 q 217 5 226 7 q 206 3 214 4 q 190 -1 199 1 q 173 -4 181 -3 q 161 -7 165 -6 l 145 0 l 47 -7 q 32 -4 38 -5 q 20 0 25 -3 q 11 7 15 3 q 3 21 7 12 q 11 41 3 33 q 28 54 18 49 q 49 64 38 60 q 66 73 60 68 q 68 75 66 74 q 71 77 70 76 q 84 92 77 83 q 95 109 92 100 q 97 113 96 110 q 100 121 98 117 q 102 128 101 125 q 103 132 103 132 q 121 168 111 152 q 138 199 131 184 q 140 203 139 200 q 143 211 142 207 q 145 218 144 215 q 146 223 146 222 l 158 271 q 160 275 159 272 q 163 281 161 278 q 165 288 164 285 q 166 291 166 290 l 178 331 q 189 356 182 346 q 201 379 195 366 l 205 399 q 208 408 206 401 q 210 415 209 414 l 217 439 q 218 446 217 441 q 220 456 219 451 q 221 467 220 462 q 222 474 222 472 l 222 526 q 223 532 222 528 q 227 540 225 536 q 232 548 229 545 q 238 554 235 552 l 261 562 q 268 567 263 562 q 273 574 272 572 l 296 585 l 314 602 q 333 592 326 602 q 346 574 341 583 q 349 563 347 570 q 354 547 351 555 q 358 531 356 538 q 361 521 361 524 l 361 501 q 363 497 362 500 q 366 493 365 494 q 382 458 375 477 q 394 419 389 439 q 396 404 395 406 q 397 401 396 401 q 407 396 404 401 q 413 382 410 390 l 421 360 q 423 354 421 358 q 428 344 425 349 q 433 333 431 338 q 436 326 435 328 q 441 320 437 326 q 444 315 443 317 q 447 308 445 314 q 451 296 449 302 q 455 283 453 289 q 456 276 456 277 q 464 249 460 262 q 476 223 469 235 q 481 215 476 221 q 488 206 487 208 l 492 188 q 497 169 494 176 q 500 154 500 161 q 502 146 500 152 q 506 133 504 140 q 510 120 508 125 q 511 113 511 114 q 518 96 513 105 q 529 85 524 87 q 534 83 530 85 q 544 78 538 81 q 553 74 549 76 q 558 72 557 72 q 573 64 566 66 q 585 59 581 62 q 593 50 590 56 q 595 34 595 45 q 585 17 595 24 q 559 5 574 9 q 530 -1 545 1 q 509 -3 515 -3 q 476 1 491 -3 q 442 6 462 6 l 389 0 q 372 1 382 0 q 352 5 362 2 q 335 14 342 8 q 328 28 328 19 q 340 46 328 41 q 365 56 351 52 q 391 65 379 60 q 402 85 402 71 l 402 89 m 273 264 q 278 263 274 264 q 289 260 283 262 q 300 258 294 259 q 309 256 306 256 l 325 252 q 330 254 326 253 q 340 256 335 254 l 354 258 l 341 310 q 339 327 340 316 q 338 340 338 337 q 336 356 338 349 q 332 368 334 362 q 326 381 329 374 q 319 395 322 387 q 310 406 317 400 q 296 418 302 412 q 290 420 294 420 q 277 415 283 420 q 264 410 271 410 q 251 400 258 410 q 239 377 245 390 q 230 350 233 363 q 225 331 226 337 l 225 279 q 229 271 227 277 q 233 264 232 265 q 236 261 235 262 q 240 259 237 259 q 247 260 241 259 q 257 261 252 260 q 267 263 262 262 q 273 264 272 264 z "},"b":{"ha":582,"x_min":53,"x_max":528,"o":"m 53 26 q 65 52 53 43 q 94 69 77 61 q 102 73 96 70 q 115 79 109 76 q 128 85 122 82 q 136 89 134 87 q 141 99 138 92 q 144 109 144 106 l 141 142 l 144 184 l 144 217 q 146 220 145 218 q 148 223 147 222 q 149 225 149 224 l 153 246 l 153 283 q 154 287 153 283 q 156 296 155 291 q 159 306 158 301 q 161 315 161 311 q 154 338 161 327 q 148 363 148 350 q 153 381 148 372 q 150 389 152 383 q 146 401 149 395 q 143 415 144 408 q 141 426 142 422 q 142 436 141 429 q 146 458 142 443 q 135 481 146 473 q 112 498 125 490 q 89 516 99 506 q 78 542 78 526 q 85 558 78 552 q 104 568 93 565 q 126 573 115 572 q 144 576 137 575 q 237 580 195 580 q 310 576 274 580 q 316 575 311 576 q 327 574 321 575 q 338 573 332 574 q 345 572 343 572 q 373 565 360 570 q 400 555 387 559 q 421 549 412 551 q 439 543 431 547 q 455 532 448 538 q 471 513 463 525 q 480 497 474 507 q 487 480 487 487 l 482 440 q 484 435 482 439 q 487 427 485 431 q 490 418 488 422 q 492 412 491 414 q 486 399 492 406 q 479 389 481 393 l 465 370 q 464 363 465 368 q 461 358 463 358 q 459 354 461 357 q 453 349 456 352 q 448 344 450 347 q 445 341 446 342 q 444 338 445 341 q 441 333 443 336 q 439 327 440 330 q 437 323 437 324 q 426 311 431 315 q 421 294 421 307 q 425 283 421 288 q 433 276 428 279 q 443 271 437 273 q 453 267 449 269 q 470 257 464 260 q 481 250 476 253 q 490 241 486 246 q 500 225 494 235 q 504 219 500 224 q 508 212 507 214 l 508 201 q 511 194 508 199 q 517 188 515 189 q 518 185 517 187 q 523 182 520 184 q 527 178 525 180 q 528 175 528 176 q 527 170 528 174 q 524 159 525 165 q 527 150 525 157 q 528 137 528 142 q 526 135 528 137 q 522 130 524 132 q 518 124 520 127 q 517 121 517 121 l 517 106 q 510 77 515 92 q 496 52 505 63 l 479 43 q 423 24 452 28 q 364 14 393 20 q 336 5 349 12 q 309 -2 323 -2 l 231 2 q 228 1 231 2 q 221 0 224 1 q 214 -1 218 -1 q 210 -2 211 -2 l 161 -2 q 155 -6 157 -5 q 144 -6 152 -6 q 131 -4 140 -5 q 112 -2 122 -3 q 94 1 102 -1 q 82 2 85 2 q 62 8 72 3 q 53 26 53 14 m 264 89 q 277 80 267 85 q 300 72 288 76 q 326 66 313 68 q 344 64 338 64 q 375 73 359 64 q 397 98 391 81 q 398 102 397 98 q 399 112 398 106 q 400 121 399 117 q 400 125 400 125 q 405 133 401 127 q 408 144 408 138 q 405 158 408 152 q 400 172 401 164 q 400 179 400 173 q 399 194 399 186 q 398 208 398 201 q 397 217 397 215 q 391 237 395 227 q 376 250 387 247 q 369 251 374 250 q 357 252 363 252 q 345 253 351 253 q 338 254 340 254 q 326 259 337 254 q 310 267 315 264 q 293 276 301 270 q 275 283 284 283 q 266 281 267 283 q 264 276 264 279 q 265 269 264 273 q 265 260 265 265 l 264 254 q 259 248 263 252 q 256 241 256 243 l 256 220 q 254 215 256 220 q 252 208 252 210 q 252 202 252 205 l 252 195 l 252 186 q 252 180 252 183 q 254 171 252 178 q 256 163 256 164 l 256 146 q 257 142 256 146 q 259 134 258 138 q 262 125 261 130 q 264 121 264 121 l 264 89 m 260 382 q 265 357 260 369 q 286 345 271 345 q 305 352 298 345 q 321 361 313 359 q 329 363 323 362 q 340 366 334 365 q 353 368 347 367 q 364 370 359 369 q 374 384 374 378 q 376 401 374 390 q 377 408 376 403 q 379 414 379 413 q 380 416 379 415 q 380 417 380 416 q 380 419 380 418 q 378 430 380 421 q 373 449 376 439 q 368 467 370 458 q 364 476 365 475 q 359 480 363 477 q 353 487 356 484 q 346 492 349 490 q 342 496 343 495 q 338 499 342 498 q 334 501 334 501 q 326 507 332 502 q 318 513 319 513 l 305 513 q 282 508 290 513 q 271 496 275 504 q 267 477 267 488 q 264 453 266 466 q 263 442 264 450 q 262 423 262 433 q 261 404 261 413 q 260 389 260 394 q 260 387 260 389 q 260 382 260 384 z "}}}
